<mxfile host="Electron" agent="Mozilla/5.0 (Macintosh; Intel Mac OS X 10_15_7) AppleWebKit/537.36 (KHTML, like Gecko) draw.io/26.0.16 Chrome/132.0.6834.196 Electron/34.2.0 Safari/537.36" version="26.0.16">
  <diagram name="Page-1" id="FT8fvI08VrZJrwxCAv_D">
    <mxGraphModel dx="1113" dy="1353" grid="1" gridSize="10" guides="1" tooltips="1" connect="1" arrows="1" fold="1" page="1" pageScale="1" pageWidth="850" pageHeight="1100" math="0" shadow="0">
      <root>
        <mxCell id="0" />
        <mxCell id="1" parent="0" />
        <mxCell id="A7p27Nae_m4T2nP8SgOU-1" value="Submit worklog, confirm TWFC &#xa;request to update claim start date. " style="shape=image;verticalLabelPosition=middle;labelBackgroundColor=none;verticalAlign=middle;imageAspect=0;image=https://www.twc.texas.gov/themes/custom/uswds_custom/logo.png;imageBackground=default;aspect=fixed;fontFamily=Architects Daughter;fontSource=https%3A%2F%2Ffonts.googleapis.com%2Fcss%3Ffamily%3DArchitects%2BDaughter;labelPosition=right;align=left;fontSize=17;spacing=0;spacingLeft=11;spacingTop=0;spacingBottom=0;" parent="1" vertex="1">
          <mxGeometry x="20" y="1370" width="50" height="50" as="geometry" />
        </mxCell>
        <mxCell id="A7p27Nae_m4T2nP8SgOU-2" value="Reply to Holt about letter." style="shape=image;verticalLabelPosition=middle;labelBackgroundColor=none;verticalAlign=middle;aspect=fixed;imageAspect=0;image=https://www.holtmajorlackey.com/wp-content/uploads/sites/1203754/2023/11/logo-new-mobile.jpg;fontFamily=Architects Daughter;fontSource=https%3A%2F%2Ffonts.googleapis.com%2Fcss%3Ffamily%3DArchitects%2BDaughter;labelPosition=right;align=left;fontSize=17;spacing=0;spacingLeft=11;spacingTop=0;spacingBottom=0;" parent="1" vertex="1">
          <mxGeometry x="450" y="60" width="50" height="50" as="geometry" />
        </mxCell>
        <mxCell id="izkQLqx_YW1xycEnvegU-10" value="Clean the kitchen." style="shape=image;verticalLabelPosition=middle;labelBackgroundColor=none;verticalAlign=middle;aspect=fixed;imageAspect=0;image=https://cdn2.iconfinder.com/data/icons/furniture-home-living-glyph/64/kitchen-1024.png;fontFamily=Architects Daughter;fontSource=https%3A%2F%2Ffonts.googleapis.com%2Fcss%3Ffamily%3DArchitects%2BDaughter;fontSize=17;spacing=0;spacingLeft=11;labelPosition=right;align=left;spacingTop=0;spacingBottom=0;" parent="1" vertex="1">
          <mxGeometry x="20" y="1236" width="50" height="50" as="geometry" />
        </mxCell>
        <mxCell id="izkQLqx_YW1xycEnvegU-12" value="Put away laundry." style="shape=image;verticalLabelPosition=middle;labelBackgroundColor=none;verticalAlign=middle;aspect=fixed;imageAspect=0;image=https://cdn5.vectorstock.com/i/1000x1000/80/99/laundry-icon-vector-21138099.jpg;clipPath=inset(24.67% 5.76% 55% 72.3%);fontFamily=Architects Daughter;fontSource=https%3A%2F%2Ffonts.googleapis.com%2Fcss%3Ffamily%3DArchitects%2BDaughter;fontSize=17;spacing=0;spacingLeft=11;labelPosition=right;align=left;spacingTop=0;spacingBottom=0;" parent="1" vertex="1">
          <mxGeometry x="20" y="1300" width="50" height="50" as="geometry" />
        </mxCell>
        <mxCell id="izkQLqx_YW1xycEnvegU-13" value="Collect payments." style="shape=image;verticalLabelPosition=middle;labelBackgroundColor=none;verticalAlign=middle;aspect=fixed;imageAspect=0;image=https://static.vecteezy.com/system/resources/previews/024/094/111/original/pickup-truck-glyph-icon-design-free-vector.jpg;fontFamily=Architects Daughter;fontSource=https%3A%2F%2Ffonts.googleapis.com%2Fcss%3Ffamily%3DArchitects%2BDaughter;fontSize=17;spacing=0;spacingLeft=11;labelPosition=right;align=left;spacingTop=0;spacingBottom=0;imageBorder=default;" parent="1" vertex="1">
          <mxGeometry x="20" y="640" width="50" height="50" as="geometry" />
        </mxCell>
        <mxCell id="izkQLqx_YW1xycEnvegU-14" value="Set up cards on imdone." style="shape=image;verticalLabelPosition=middle;labelBackgroundColor=none;verticalAlign=middle;aspect=fixed;imageAspect=0;image=https://th.bing.com/th/id/OIP.9w8mXLBMt79PBs8O4VLvXgAAAA?rs=1&amp;pid=ImgDetMain;fontFamily=Architects Daughter;fontSource=https%3A%2F%2Ffonts.googleapis.com%2Fcss%3Ffamily%3DArchitects%2BDaughter;fontSize=17;spacing=0;spacingLeft=11;labelPosition=right;align=left;spacingTop=0;spacingBottom=0;" parent="1" vertex="1">
          <mxGeometry x="20" y="1510" width="50" height="50" as="geometry" />
        </mxCell>
        <mxCell id="izkQLqx_YW1xycEnvegU-15" value="Complete development on hbia2." style="shape=image;verticalLabelPosition=middle;labelBackgroundColor=none;verticalAlign=middle;imageAspect=0;image=https://vectorseek.com/wp-content/uploads/2024/05/Vertex-AI-Logo-Vector.svg-.png;fontFamily=Architects Daughter;fontSource=https%3A%2F%2Ffonts.googleapis.com%2Fcss%3Ffamily%3DArchitects%2BDaughter;fontSize=17;spacing=0;spacingLeft=11;labelPosition=right;align=left;spacingTop=0;spacingBottom=0;clipPath=inset(15.67% 8.02% 9.67% 7.25%);aspect=fixed;imageBackground=none;" parent="1" vertex="1">
          <mxGeometry x="20" y="340" width="50" height="50" as="geometry" />
        </mxCell>
        <mxCell id="izkQLqx_YW1xycEnvegU-16" value="Folllow up w/ Ben at Firebolt AI." style="shape=image;verticalLabelPosition=middle;labelBackgroundColor=none;verticalAlign=middle;imageAspect=0;image=https://th.bing.com/th/id/OIP.jBBzriyh6lkKFGBXF264TgAAAA?w=199&amp;h=198&amp;c=7&amp;r=0&amp;o=5&amp;pid=1.7;aspect=fixed;fontFamily=Architects Daughter;fontSource=https%3A%2F%2Ffonts.googleapis.com%2Fcss%3Ffamily%3DArchitects%2BDaughter;fontSize=17;spacing=0;spacingLeft=11;labelPosition=right;align=left;spacingTop=0;spacingBottom=0;" parent="1" vertex="1">
          <mxGeometry x="450" y="200" width="50" height="50" as="geometry" />
        </mxCell>
        <mxCell id="izkQLqx_YW1xycEnvegU-17" value="Folllow up w/ Greg at Hijack Poker." style="shape=image;verticalLabelPosition=middle;labelBackgroundColor=none;verticalAlign=middle;aspect=fixed;imageAspect=0;image=data:image/jpeg,/9j/4AAQSkZJRgABAQAAAQABAAD/2wBDAAsJCQcJCQcJCQkJCwkJCQkJCQsJCwsMCwsLDA0QDBEODQ4MEhkSJRodJR0ZHxwpKRYlNzU2GioyPi0pMBk7IRP/2wBDAQcICAsJCxULCxUsHRkdLCwsLCwsLCwsLCwsLCwsLCwsLCwsLCwsLCwsLCwsLCwsLCwsLCwsLCwsLCwsLCwsLCz/wAARCAC0ASMDASIAAhEBAxEB/8QAHAABAAICAwEAAAAAAAAAAAAAAAEGBQgCBAcD/8QATxAAAQMDAgIEBg4FBw0AAAAAAQACAwQFEQYSIVETMUFhFDZxdZHTBxUXIjJUVYGTlKGxsrMjNVJy8BYlM2JzdME0QkNTY4KSosPR0uHx/8QAGwEBAAIDAQEAAAAAAAAAAAAAAAIEAQMFBgf/xAAtEQACAgIBAgQDCQEAAAAAAAAAAQIDBBEhEjEFEyJRYYGxFDRBcZHB0eHwJP/aAAwDAQACEQMRAD8A9X3HmU3HmVCICdx5lNx5lQiAnceZTceZUIgJ3HmU3HmVCICdx5lNx5lQiAnceZTceZUIgJ3HmU3HmVCICdx5lNx5lQiAnceZTceZUIgJ3HmU3HmVCICdx5lNx5lQiAnceZTceZUIgJ3HmU3HmVCICdx5lNx5lQiAnceZTceZUIgJ3HmU3HmVCICdx5lNx5lQiAnceZTceZUIgOW48yihEBCIiAIiIAiIgCIiAIiIAiIgCLhLLDBFJNPLHDDGMySzPbHGwZxlz3kAelVet9kLRFG5zBcH1T2kgihp5Zm8OUhAjPzOQN6LWioTvZV0kDgUd6cOYgpAPtnUe6tpP4je/oaP16aZDrXuX5FQPdW0n8Rvf0NH69T7q2k/iN6+ho/Xpoda9y/IqD7q2k/iN6+ho/Xp7q2k/iN7+ho/Xpoda9y/IqB7q2k/iN7+ho/XqfdW0n8Rvf0NH69NDrXuX5FQR7K2kicGivQHPoKQ49E+VkaP2RND1ZDXV8lK84AFdTSxtyecjQ5n/MnJlSTLai+cM1PURRz080U0EgzHLBIySN4/qvYSD6V9EJBERAEREAREQBERAEREBKIiAhERAEREAREQBERAEREAWI1Df7bpy3vrqwl7nEx0lMwgS1U2MhjSeoDrc7sHM4By448Fr/ra+SXy/Vr2vJo6F76GhaD73o4nEPk8r3AnyYHYspbITl0rZ0L7qK9ahqDNcZyYmuLoKSPLaWnB7I4+fMnJ+4YhThRgqetFRy33ChTgpgrI2Qp4JgrJWqz1t3dUtpXwMNO2N0jp3OaD0hcGhuxpPYVrssjVFzm9JGyuErZKEFtsxilWX+Rl7/19v+kn9WvhW6XutBSVNZLLRuipwxz2xSSl+HPDOAcwDt5qrHPxpS6YzXJZlg5MY9Tg+DAqFOEwVeKWyEU4KYKDZlLJf71p+pFRbagsaXAz08hLqWoA7JY848hGCOw8/d9N6jt+paAVdMOjmiLY62lcQX00xGcZHW08S09vcQQNdOKsGkb3JYb5Q1ReRSTvbR3Bufeup5XBu897Dhw8h5qLRthPT0zYZE/jgigWQiIgCIiAIiIAiIgJRQiAIiIAiIgCIiAIiIAiIgOndal1FarxWMOH0lvrahh/rRwucPtWsw6hzxxWxuqTjTWp8fJNd+UVropxK1z7EIiKZXCIiAK36I/pL1+5RffMqgrfon4d5/covvlXL8W+5z+X1R0/CvvcPn9C5LF6h/UV4/sofz410rsdTS3egp7e+qhoC2lMksHCFp3kyulJHXjs8nNd7UWPaO8f2UP58a8lTT5dtMtp9TT/AC5/E9bdd5ldsda0n/keYopUL6CfPwiIgC4uGQ4cwR6QuSIZ2bJWCqdW2KwVbiS+otlDJIT2yGFod9uVklX9GeKumPN0X4nKwLSdBdgiIgCIiAIiIAiIgJREQEIiIAiIgCIiAIiIAiIgMPqnxa1P5prvyitdFsXqnxa1P5prfyytdFsgVb+6JUKUUitsIicFkBW7RQ9/ee9lH98qqKydqvFVaHVLqeOCTwhsbXicPOOjLiC3Y4c1Rz6ZXY8q4d3r6l7AujRkRsn2W/oemLF6h/Ud3/sofz41W/5ZXb4rQf8ADP8A+a61dqi5V9JUUckFGyKcMbI6Jsu/a1wfgb3kdg7F5jH8Hya7YzaWk1+J6a/xfGsrlFPlr2ZgURF7U8WFClEBClEWAbB6M8VNMeb4vvcs+q/ozxV0x5ui/E5WBaTprsEREAREQBERAEREBKIiAhERAEREAREQBERAEREBh9U+Lep/NNd+UVr/AG2niq7hbqWXd0VRUxxSbHbXbTknBWwGqfFrU/mmu/KK8Esn64s399i+5yjNuNUmvZmtRUrYJ+5ldR2a3WuG3vpBMHTyzsk6WUyDDGsIxkd67dk07aLhbKerqPCOnl8K3OZMWsHRvexpDMY4YWS1Nba+5QW9lHE2R0E1Q6QOkZHhr2sAI3nuXbsdJU0Npp6Wpa1k0bKsva1weG73SPA3Dh1FeZlnT+xwas9e/fnR6GODD7ZPdfo1x7bK3pux2u6U081WJ3SMrOgb0UvRt2BjHdQHWclY2lt1NNfmW1xkdTGtqaf3jsSOZEJMe+A6+AVl0T/kFT5x+3oo1T7gSLhciCcitqiCDgj9K7qwujj2W25N1fV2XHw+JzciuqvHps6V35+Jdzo+xAZMVaB31Dx/gsNqGx2u10VNPSNnD5KroX9LMZAWmNzuAcO5Ya0yy+2tnHSSYNdTAgvdggvAxjKtesv1ZRf38dv+xeqyWTjZddc7XJMst0ZOJZZCvpaKvZKCO53GClm6ToBHNPP0Z2u2MbwAdjhkkLP3jTVso7bV1dG2oE1P0ch6SV0jTHvDXjBHfn5lGiqUudcqsj4ToaKJ3k/SPx6W5Wboatl5prxE7bs8LrqAYxjoXDbE457cH7FHOzLo5W65ajDp38yWFh1SxUpx9U96+R5xDBPUzwU0DQ+aeRsUbeobj2k8h1nyK90ekbPDEPCWy1c2B0kjpJI4wT2MZGRgcskn7lW9Mxll+po5B+kjZWtLT1h7Iy08D29aymtJZA60QiRwiMVRMWBxAMge1gcQD2dn/tWc2227JhjVS6U1vf6/wV8KqqnGnk2x6mnrX6HzvmmIaWCSst5k6OEbqinkJeWRjgZI3HjgdoPl7MLnaNPWittMFZOKgzyQ1byWTFrd0ZkDcNA7gupFqysZRNon0kEpFK+ldPLJKXvDmGPc9vUTj7lYtNtDrBbWZO18VSzI4Ha6WRuQVVybczGx9Wy5Uu/ui1jVYmTkN1R46e2uzK5puwRXVktVWCXwbIhpmxv6MyyD4by4DO0dXlz+ysRc221lbVNtu/wON4jiMjy8vLRhz2uPHBOcK6X6oFnssVJRMdG2YeARPb/ooQzLzu/acMj5yV5/w/7Dkul4dZZkznkSfp7Jfuc3xCuvHjDHivV3b/Y2C0Z4q6Y83RficrAq/ozxU0x5ui/E5WBdE0rsEREAREQBERAEREBKKEQBERAEREAREQBERAEREBhtU+LWp/NNd+UV4Rp+R0V5tTgGnfP0B3AHDZGuaS3PbyK931T4tan80135RXgVnkiiu1pllkZHFHVxue+R21jG4PFxKhcuqqa+DIwfTdCXxRfb5eH2eGjkZTxzmollYRI97A0Rta7I2c8rs2m4PuNBTV7omRukE7jG1znMBie5vW7j2Kt6vrLfUwWplNV09Q6Oapc8QSNeWNcxgBOF3tO3C1wWSlinrqSKVja3dHLM1sg3SSOHvevjkLyLw19jhYoPrb+Z6aOW3lzrc10pfI56QmfUW6cPaxu24zDMbGsB6YNlOQ3kTgd2B2LHQWSG+1d8raiplgc27VFMI6aOLZtj28Tu7V9NIVtvpaGoZU1lLBIa7pA2eVrHbOjjG4B3ZwXUtN8paC53eOd+aGtrZ5WTMy5scm9wEmBxLXDGfIFbcL4XXyoWnxr9yqrKZ00wvaa52dChY6g1JTU8f6ToLk6kBkYNzmFxiLtvYcce5WbV8pjtMTAGET1sTHFwBLWsY5/vCeo81kt2nelNz6a1CYtwarpoOkwRjiQd2ccOrKqGorvT3eoo6Omk20MMoaZ5MsbJJK5rHSkHqa0dXzntUq7J5mVXZ0NdC52YshDDxp1qafU+NFosEM0NioGNDWTy0s0rCW4DXzl72OcBxOMglfGwWWts5renqYZWVDYS1sTZBtezcC4l/MHH/wAXxv14o6a1iG2XCE1DpYIIzRzAyRQxgknLOocAPnVetF8uLLnb/DLhUPpXyGOcVMznRBr2loc4OPYcFaa8XIvqtsXCk9tNc8PjRunk49NlVb5cV3T45M3EJKbWdY3ZGGV1K+YEsbnaYmvy0468gh3NfDWsjv5nhw3YW1MxeWjdvy1m0O68Y4471yv9xoYK2x3ShqqWoqKd00E0cMrX7oOvDtvVnLgPKsy2r03eoI+kkoZmNIk6GtdGySJ/UctkIPoOCsKU6505UoNpLT9+OP7EowtjbjRmk29r255/opMGn73UUjKyOGLwd8DqhpdOxrzE0F27YePUMhXbT83S2S2SvDQGU8g/RtDRsgc9oO0cM4H8ZWPv9/oKajnoKCaKWpniNM405BhpoSNrsOb73cRwAHVkqbFX2qnsNLDNXUccrKaua6KSVoeC50pA29fHIx5Vsy55GXjqdkeHLjjnXxNeLCjEyHGuW/Tz+Z26jodRWGR8DSHTxGena4guZUQE+8J58C3515vn+CrVpC609K2ro6qoihZllVTvmcGN34DXsyeGeoj51h75HRxXOt8DmgmppniojdA8PYzpRvdHkcjldHw6Esa6zG0+nuv4KHiEo5FMMhPnsz3HRnirpnzfF+JysCr+i/FXTPm6L8TlYF1imEREAREQBERAEREBKIiAhERAEREAREQBERAEREBhtVeLWp/NNd+UVrmtj9Sxul07qZjes2e4Ef7sLnf4LW9SiV7e6JyoyoRTNJyypBRm3c3eXBu4bywAuDc8dodwzyV1pYNC+1dY+N8D3CmmMj64tFeJdh27WnqOcbdowquTlLHS9Le/ZFrHxfP36kte7KWGOccMjc5w44YxzjjOMkNBKlrZHuLGskc8BxLWMc54A6yWgZWd0rIIp71K6eaDorNUPdLA3dJG0SR5ewEgbh2LMsuT6qK819pFQ2oNdYaMyiJvhU0LG7XySCPPw+OeHYtF2ZKubio8LXP5+5Ypwo2QUnLl74/gpAa8hpax7tztjdrXHL/2Rgdfcp6ObG7opdv7RjftxnGc4wvRHMYxt/bRlja5t2vvtYA3AjqvBmOl6IA7d23dtKxs087bTpqKOrubWSUlq6aGGnLqJ8RnbvfPL1h3Vwz2D9paY+Iub4j/ALWzdLw2MeXL/b0UxzZG4D2PaTxG9jm5xy3BceB6wCVddXT5pBGXzVDpbxWYlmDQ2idTjo30seBnByDx7F1dNw6Zkt9c65+A9MKhwkNY8NeyHYNhi4h3P4Patqzv+fz5QffWkapYK890xku29sqmUyu3cW2ptVILW+pfSD4LqprQ7OepmPfbeWQCumuhCXUlI504dEnHeycplcUUiJsPovxU0x5vi/E5WBYLSEbo9LaYaRx9q6WTjykbvH3rOrUXgiIgCIiAIiIAiIgJREQEIiIAiIgCIiAIiIAiIgOEsUdRFPBKMxzxSQyDmyRpYfvWsVbSTW+rraGcYmo6iamk/eicWZHl6/nW0C8u9kvSk0rnakt8ReWxtbdoowS/bGMNqgBxOBhr+HUAeoEjKNdi2jyjIUripUyuSi45TPFAfeKeoh6boZZI+midBMGOLekicQSx2Ow4C+lLW19C5z6Kpnp3vbse6CRzC5vI4+xdXKZ61GUIy2mu5OMpRe0+x22XC5RdF0dXUs6Kd9VFtlf7yd42ulHH4RHWVzF2vQhFOLhWCABoEQmeIwGkOA255gFdHKjKw6oS7xRlWTXZs7UtZXTtlZPUzSMlnNVI173Oa+cjaZSD/nHqyuuuOUypKKS0uCDbb2zki4plZMHLK+kEE1XPTUkDd01XNFTQt/akmcI2j7V8V6j7GmlZjMzUlwicyNjXC0RyDBkc8FrqotPHAHBnPJPYC7D7EoR2z1Kkp46Olo6OP+jpaeCmj/dhYIx9y+yIoFoIiIAiIgCIiAIiICUREBCIiAIiIAiIgCIiAIiIAh/jtREB53qP2MrfcHy1djljoKl5Ln0sjSaKRx45Zs98zPcCO4Lz6t0Nrehc4Ps9ROwZxJQFlS1w5gRHf6WhbCos7IuKZrM6x6kacOst4aeRoKsf9NR7Sai+Rrt9Rq/VrZvJ5n0lMnmfSU2R8tGsftJqL5Gu31Gq9WntJqP5Gu31Gr9WtnMnmfSUyeZ9JTY8tGsftJqP5Gu31Gr9WntJqL5Gu31Gr9WtnMnmfSUyeZ9JTY8tGsftJqL5Gu31Gr9WntJqL5Gu31Gr9WtnMnmfSUyeZ9JWdjy0aytsepXEBtku7iewUFWT+BZKj0Rreuc0R2WqhacZfXbKVrRzImId6GrYjJ5n0lQsbHQjzjT3sX0NE+Krv00ddO3Dm0cId4ExwOf0jnYc/wAmAOYIXowDQAAAAAAABgADgAAFKLBPWgiIhkIiIAiIgCIiAIiICUREBCIiAIiIAiIgCIiAIiIAiIgCIiAIiIAiIgCIiAIiIAiIgCIiAIiIAiIgCIiAIiIAiIgJREQHPa3vTa3vREA2t702t70RANre9Nre9EQDa3vTa3vREA2t702t70RANre9Nre9EQDa3vTa3vREA2t702t70RANre9Nre9EQDa3vTa3vREA2t702t70RANre9Nre9EQDa3vTa3vREA2t702t70RANre9Nre9EQDa3vTa3vREA2t702t70RANre9Nre9EQE7W96IiA//2Q==;clipPath=inset(15.56% 28.01% 16.67% 30.07%);fontFamily=Architects Daughter;fontSource=https%3A%2F%2Ffonts.googleapis.com%2Fcss%3Ffamily%3DArchitects%2BDaughter;fontSize=17;spacing=0;spacingLeft=11;labelPosition=right;align=left;spacingTop=0;spacingBottom=0;" parent="1" vertex="1">
          <mxGeometry x="450" y="130" width="50" height="50" as="geometry" />
        </mxCell>
        <mxCell id="izkQLqx_YW1xycEnvegU-18" value="Update documentation and&#xa;instructions for wrenchai." style="shape=image;verticalLabelPosition=middle;labelBackgroundColor=none;verticalAlign=middle;imageAspect=0;image=https://th.bing.com/th/id/R.8adb9d1ea4737e6a7ad96adcd6d36097?rik=oQXyXv4sLCtqgQ&amp;riu=http%3a%2f%2fpluspng.com%2fimg-png%2fwrench-hd-png-png-file-svg-980.png&amp;ehk=v0tUtBmMGjUbjXjkgeGYHQAGbwv%2bHgC0HNOKOVEXehA%3d&amp;risl=&amp;pid=ImgRaw&amp;r=0;aspect=fixed;fontFamily=Architects Daughter;fontSource=https%3A%2F%2Ffonts.googleapis.com%2Fcss%3Ffamily%3DArchitects%2BDaughter;fontSize=17;labelPosition=right;align=left;spacingLeft=11;spacingBottom=0;spacing=0;" parent="1" vertex="1">
          <mxGeometry x="20" y="710" width="50" height="50" as="geometry" />
        </mxCell>
        <mxCell id="izkQLqx_YW1xycEnvegU-19" value="Re-up." style="shape=image;verticalLabelPosition=middle;labelBackgroundColor=none;verticalAlign=middle;aspect=fixed;imageAspect=0;image=data:image/jpeg,/9j/4AAQSkZJRgABAQAAAQABAAD/2wBDAAsJCQcJCQcJCQkJCwkJCQkJCQsJCwsMCwsLDA0QDBEODQ4MEhkSJRodJR0ZHxwpKRYlNzU2GioyPi0pMBk7IRP/2wBDAQcICAsJCxULCxUsHRkdLCwsLCwsLCwsLCwsLCwsLCwsLCwsLCwsLCwsLCwsLCwsLCwsLCwsLCwsLCwsLCwsLCz/wAARCADOAM4DASIAAhEBAxEB/8QAHAAAAgMBAQEBAAAAAAAAAAAAAAcFBggEAgMB/8QATBAAAQMDAgIHAwkDCQYGAwAAAQIDBAAFEQYhEjEHExRBUWFxIoGRFSMyQlJygqGxM2KSJDRDg5Oio6TBJVNjc7LRFkRUZHSzwsPw/8QAFAEBAAAAAAAAAAAAAAAAAAAAAP/EABQRAQAAAAAAAAAAAAAAAAAAAAD/2gAMAwEAAhEDEQA/AG1v7qOfpRz9P1o/SgKOfpRz9P1o5+lAc/SiiigP0o50UUBzo/Sijn6UBzqla91ijTcHskNaTeZzSuzjY9lZOUmSoePMIHiM7hODNan1HB01bHp0jhW6rLcKNnC5MjGyR4JHNZ7h4kgFD22BfNdaiV1ri1vy3Q/cJRGURo4ISVAZxhIwlCc+A8wHJYtSXrT9wNwhPlS3Vfytp4lbUtPFxEPAnOeZBzkZ577v7TOq7PqiL1sRXVSmkgy4TqgXmDyyDtxI8FAeoB2GfHLYyxqB2zvurQy1d1W557CStDaZPUFzGwJA3qRutn1Roe7MOBbrDjbilwLhGz1L6Rz4Sds42Wg+O4IOVBpLn6UVRtG6/t+oUtQJ5bi3kDAR9FiZgfSYJOyvFJPpnfhvPPlyoDn6Uc/SjnsOVFAUelHPajyHKgKKKPIUB6e+j0o8hRQFFFFAc6OfpRz9KOfpQHP0oo/Sjn6UBz9KKP0o/SgKKKOfpQHP0rluFwg2uFLuE10NRIrRdeWfDkEpHeScBI7yQO+ulSkJStalJShCSpalEJSEgZJJO2B30gtf6wXqOcIEBavkeE7hkJyO2Pj2S+pPhzDY8N+asJCMvl3vWt7811LLilPOCJa4KDkMtE7Anlk/ScUfyCQEvDSemIemLYmI1wuS3uF24SQDl54DZKSd+BOSEj1PNRqD6PdGCwxPlK4Nj5Xmtj2FDeFHVg9UP3zzWfQdxK77z9KDOfSBG7HrC/hGQHHmJaCPF9lt4ke8mnwuNbNR2aMidHbkQ7hEjSChf/FbDgUhSdwoZ2IIpR9LsXqr/bZSRhMq1tpUfFxl5xJ/Ippl6Flds0lpxzP7OJ2Q+I7K4uPj4JFAodX6Guel3TNhqdk2nrElqUkYeiqJ9lMjgxg52ChgHyJxVq0X0lBfUWrUr4Ctm41zcOAruCJh8e7j+Peotdxtt5DjTiELacQptxDiQpC0KGClSVbEHvpOa06NXIvX3XTra3I3tOSbekFTrHeVxu9SPFPMd2QcIByghQBSQQQCCNwQfAijny99IbRnSDNsRZt1zLkmz5CUHJVIhDxazzR4p+GOS3lEmQ58aPLhPtPxZCONl1pXElaeW3mORHMYx3UH38hyo9KKPTlQHkKPIUeQ5UUBRRRQFH6UUUBz9KP0o50c/SgP0ooo/SgKP0o/Sjn6UBz9KOfp+tHP0qi9IGsk6fhm3wHB8szWvYKcHsbCsgvK/eO4QPf9XCgrvSXrPJkaZtbuw9i7vtnmRuYiFD/E/h8Qfn0aaL61TOpLoz82hQXaGHB9NaT/ADtST3A/s/P2u4FVe0Jo97Us8zZyV/JER0KkrVkGW99Ls6Vc9+bh7ge4qBD/AEIQhCG20pQ2hKUISgBKUpSMBKQNsDuoPXP0/Wj9KKOfpQKzpii8cHTs0DZiVLiqP/PbQ4B/cNSXRNKL+mpMcneHc5CEjO4bdbbdH5lVdfSfF7TpKa4BnsMuFLHvc7Oce5dVboclYd1LCKvptwZTafuKcaWf7yaBv0c9qPTlR5d1Au9adHUa89fc7KhqPdfaceY2bjzlcyfspcPjyJ54zxBa6f1NqHRdwfYU051KXuG4W2VxIBUNiU5BKV45EDwyCKc+o9b6b04lbT7/AGmeAeGDEKVug4265X0UDlnJzvsDSN1PqWbqicmbJjRY4aQWmER2xxhvOQHXiONRHnsN8AZ3DQliv9o1FCTMtr3EkcKX2l4S/HcIzwOoycHwO4PcTUr5Ckn0PtPKvV5eClBlu19U4kE8JW6+2UEjlkBKsetOzyFAUUUUBR5UeVFAUUenKj0oD9KKKOfpQH6UUUc/SgOfpRz9KOfpR+lAVnHpAYeY1fqFLq1LLj7L6FKOfm3WG1pSPJI9kelaO5+lJHpdh9Ve7XNSnCJluDRP2nYzqgT8FIoKpCvOtNNpjiNKucFlxIfYaeSsRnEuALDiGX0log88hO9W229Lt+Y4EXO3w5qAMFxgqivnzJHE38ECmDoZ9i66OsKZDbbyG464LrbqErQRGcUykKSoEfRCfjXm5dHmiLlxn5OEN0/0ttWY+PRoZa/uUHHbulDRk7hTJdk29w4BExkqbKvBLrHEMeZAq3w7hbLi31kCbFlNDGVRHm3QM9x4CcUqrl0PyBxrtF3bWPqs3BotkerzPED/AGYqnzNG68sjnX/Js35s5RJtii/jH1gqMSsD1AoHtqmKJum9SRsZKrZMWgeLjTZdR+YFJzorldn1Whkn+fW+ZGA8SkJk/wD4GuGD0ga3t4Ww7OMxnC23GLo2H85BSQpasPf36rttuM+0zY9wgOhqXH6wsuFCHOArbU0TwuAp5E8xQaXvWobFp9jrrpMbZ4kktMp9uS/juaaT7R8M7AZ3IpPak6T75dOti2gLtkE5SVoUDOdT+86n6Ponf94g1CWnTmr9YynJKEvvJcX/ACi5XBa+pBG2OsXlSiOWEg425Cm9pvo807YeqkPIFwuKMK7TKQOraUMHLDG6RjuJ4j5jOKBYac6PNSX4typSVW+3uELMiWhRfeSrfLLBIUc+JIG+QTyqx6609p7Sulo0W2sZlTrlHaflSCHJTzbTTjpyvGAMhOyQB/q3/wD+NKHpjlAuaahJP0UTpTg++pttB/JVB19DsXhg6im4/by4sUH/AJDanCB/GKadUjovi9n0lDdxgzZk6UrxOHOzA/BFXegKPSiigKOewo57CoOfq3SFseTGm3mG2+pXAW0KU8ptXLDoYCuH8WKCc8hRX4haHEIW2pKm1pStC0EKSpKhkFJG2DX7QHOqLrnXTuln7fChxGJEuQyZTpkqWG22OMtpCUtkElRCt8jHDyOfZvXOs46/uPyjqu+LSrLUV5NvaHMARUhpWPVXEffQMi09LGnJnA3dI8m3OnALgBlRvXibAcH9mfWr3BuVrubXXW+ZGlM4GVxnUOcJPcoJOQfIgVnHTWnV6mlS4EeazGnIjKkxUSUK6qRwKAWguIyoEAgj2DyPhXRO0vrnTL3ajEms9SSUzrata20gfW62OeJI9cUGkefpRz9KQlp6UdW2/gbmli5x04BEpPBICR3B9rBz5qSqmDaelDSNx4G5in7Y+rAIlJ42Co9yX2gRjzUlNBeufpS16XoYdstpnAZVDuJZO3JuS0rJ+KE0xY8mJLaQ/FkMvsL+i7HcQ62r0W2SPzqva7h9u0nqJpKcqZjCYg947K4l9RHuBHvoKz0QTOts95gFWVRLgiQBnk3JaCQB70K+NMzy7qR/RHM6m+3KEVYRNtylgfadjuJUkfArp4UBR6Uc9qPIcqCPuFlsV1HDcbbCldwW+yhTiR+65jjHuNZ2jRIZ1fFghlBhnUjUTqV5UgsduDfVq4s5GNq0z4etZrtnzmt7Yftapjq/z4NBpJttppCGmUIbabSENobSEIQlOwSlKdgBXryFB3yKKApDdK0rr9UhgHaDbokcjwUsrkE/3xT58vdWbtYOuXPWV/CN1uXTsDeN8lkpiJA/hoHtpOL2PTOmmOHhItkRxY8FvIDyh8VGpvyqgam6Q7Zph9VmhQlzJkNllpwqcDUZgltJSkqAKiQMZAA54znIStbnr7W97X1KZi4rTp4URrUlTPETtw8aSXjnw4/dQPO66j03ZEn5TucWOsAHqSrrJBB5FLDeXMfhpf3bpfjI427JbFuqGwkXE9W3keDDJ4iD5uJ9Kp9q6O9a3ch1yJ2Flw8SnropTS1Z3J6oAvZ9Uj1pgWjom07F4HLrJk3F0fSbTmLG9OFslw/2g9KBaztT651O8IhlzX+uylEG2oU22pP2S1HGVAfvZqskEEgjBBII8xtWhtVP2vSOlbqq1xY0JyQgQIoitIaKpD4KOPKRkqSniVkk/RpI2iwTLvC1JNZ4urstvTMXgZ41FwewfwBxX4PPYHb0b3T5S0rb0KVl62rctrv3WsKawPuFI91XHbkKSnRFdOoutztK1YRcIyZDIJ/p4pOQkeaVKJ+7TsoOS4zG7fAuM9zHVwokiWoHbiDLZXgeuMVnjR1tTqDVFvjzEdcy67ImT+LOFIQhTquLG/tHA99NrpPuPYtKymEnDlylRoKcH2uAEyFn0wjB+9VV6HrdxSL9dVpPzTLFvZV3Euq650e7hR8aClMrmaN1Ykq4i5Z7kpDmBgvRslCsA9y0E4+9Wk23Gn22nmlhbTraHG1pOy0LAUkg+BFJ3pcs3VTbbfGkfNzEdilkDbr2RxNqUfFScj+rq29GV5+U9ONRHF5kWdfYlgn2iwcrYVjwxlI+5QS920bpG9ca5lsYS+rJMmIOzvlR24lKawD+IGl/duiCUjjcslyQ6kfRj3FPVuYHg+0Ckn1Qn1pw/pSu6RNd9jEjT9le/lagpq5S2j/NgdjHZUP6Q/XP1eX0v2YKtuTfNPzpLUWa9Elx3VMvKgyQUlSDgpKmVFCh8ad+h769q3T0+Pc3EuTGi9AmqSlKS8y+0eB1SEAJGQVDkPo+dK3TuhrrfbVd7sQtmPHiSVW4cPtzpTQJ4GwR9DYpJ8dhyPD29Ft2+T9RphLVhi7sKjEE4T17eXmifPZSR9+gidHSF2rWNi63KVJuBt7w8C/xRCD6FX5VpHy+NZu1gw5adY3wteytu5C4MkcgX+GYnGPDi/KtGR325UeNIbPzchlp9B8UuICx+tB9fIcqKKOewoAeVZr097es7GfHUEdX+Z4q0oOYArNmkxx6x0+fG8NL+DhVQaToo9KKD8UpKEqUogJSCpRPIBIyazRY3mpeqoM+WvhZTcnLxKUoA/NRlLnuAg+ISR760FqWV2PT2o5OcFq1zerP/EU0pCPzIrMKHXWus4FFJW2ppRHMoUMKHvoOqW/Ou8+5TlNuOPyXZU+QGkqWEJUourVsNkp/ICmH0V362RpLlllR4jUqWpS4E3qm0vOKx7UVx3HEc80ZPiO8Cvv0R2ZDxvl4kNJW2UC1MBxIUhYcAdfCkqGOXAPxH31nW+ln9LXVD8LrBbZbin7e6hSuKO4k8RYK+YUjYpOdxjfIOA0N5D30VUdC6sRqa2cEhSU3WClDc5Gw65JGEyUAdyvreB8ARm0SpMeHGly31cMeIw7JfV9ltpBWo/AUCa6W7x2i6QLK0r5u2s9okgf+pkgKSFD91PCR981dujyxNQdKMJktAuXpLkyWlQ5sPp6ttB78cGD+I0noDEvWGq2UPZ47tcVvyuEn5qPxF1wJP7qQQn0FaVShCEoQhIShCQhKUgAJSkYAAFBmqK49pLVrRcKs2e7KaeON1x0uFpZA/eQTj1rSqSlQBScpIBBB2IO4NI3pYtfZL9GuSE4ausRJWcbGRGwysfw9WffTM0HdPlbS9meUriejNfJ8jfJ6yLhtJUfEp4VH1oF/0v3HrblZbWlXsxIjkt3H+8kr4AFeYCM/iq7dG9u7BpS2qUnhcuC37i759argbP8AAlB99JnV1zavOpr1NQ6DGcl9Qw6MlHZ2AlhC0gb4IHF76bDPSVoG3xYkOO7OcZiR2YzQaiKTltlAbTjrSnwoLDq6zC+6fu0BCOKR1JkQtt+1MfOICfvbpP3qTvRneDa9SMxXVlMa7o7A4CcAP54mCR48Xsj79Xtzpd0mn9lBvKyPtNRUD49cT+VJ+6zor95nXK1IfiMuzDNioUpIdjrUoO+yW9hhWeHHLbwoG90ga7FpQ9ZbO7/tRxPDLkNn+YoUPooI/pT/AHfU7UfQ2iX9Sye3zw4izMOfOqypK5roOSy2rnj7avcNzlHw0bpGdq2e5KlqeTbGXiufKUSXJDqjxlltatytWcqPcDnmQFaAjRosOPHiRWUMxo7aWmW2xhKEJ2AAoPbLLEdplhhtDTLDaGmm2khKG20DhShCU7ADkKzhqaE/pnVk5MUdX2Wc3cbeceyltahJaA8k/R/DWkufKlR0v2nias97bTu0pVtlEc+FWXmTjwB4x+IUFc6SyxMuFgvkYYj3qyxnwe/rEFQUD5gFAPpTV0JM7dpPTrufaai9jV4gxVqjj8kg++krIkfKOirchSuJ/T15digYOUw7m0p9BJ++2sfCmN0RTOusl1glWVQ7j1oH2WpLScD4pV8aBk+Qo8hR5CigM49BnPwrNuhxx6v055ziv4IWqtHuHhbdP2ULPwSaznoAZ1hpsf8AuHj8I7poNH0UelFBTekuUI2kLogHCpb0KKk+ryXVD4JNZ6p09MMrgtVih5/nE96Tgd4jM8H/AOylzom0fLWpbPFUnijtPdtl7ZT1Eb5wpV5KPCn8VA99JWn5F09ZoCk8LyY4fl559of+ecSfQnh/DXXfLNAv9sl2yYn5p9OUOAZWw8ndDrfmk/EZHI1JUeQoM1NOX3QupCSOGXAeKFpyQzMjL7s96FjcbbbcinZja91ZCl6PtptzpI1EsJwdnGmIxC3214+sFcKD45Pdzm9f6STqO3dphtj5Xt7a1RsAAyWfpKjKPjzKPPbbjJrPyi4MNq4vYKvYVn2VHnsfTegbHRDZsm7311PIC2xCfE8LrygD+AA+Zpu+QrPNu6QtRWe1w7TbGLdHYjJWA6WXHX1rWsuLcWpxwoyST9Xy7tuZ/XGv7isN/LE7iVslEFKI6vQdlQlVA1elC19v0y7KQnL1qkNSwce0WV/MuJHluFH7tVjohuyGXb5aX3UobcbauLHGoJSFoIYd3Jxk5b/hpcXJd/6xCbuu5dc42l5KbiqR1im1/RWA+c4Pcam9J6MvGqO2Oxn0xIsbDapLqVlK3zg9SgJwSQN1eG32qDxrDSM3S07gyt62ySowZRAyoDctO8OwWn8xuPBPVo/SVo1T17Sr2uJPYytUQxErLjOw61pwvDOOShw7e+nxdbXbr1Bk26eyHIz6cK7loWPouNq7lJ5g/wChwc+XuzX3Q98YLbziFNOGTa57Q4UvtpOM4ORkZw4k5596VAqBiNdD9hH7a7XJfj1SI7f/AFJVXwvPRPa2rXMcssi4u3JlHXMty3GVIf4MlTQDbScKI+ic88DvyLbo/VsLVMAL9hm5RkpTPig7A8g6znfgV3eHI+KrPQZ+0BqpWnLoYc1ZRarg4lqUF5Aivj2Uv4PLHJflv9QCtAg5Axy8f+1JbpP0p2KSdRQGsRJjgTckIGzMtZ2ewPqud/7338CwdGWrPlGILBOdzOgNZhLWd5ENGBwZP1m+X3cfZJoGT5DlUPqe1C92G820JBcfjLVH5bSWsOtb/eAB9amKPSgytElmOxdoiyoNTYyW1J+y8y6h9tWPHIKfxGr50QzeqvV2gk4TMt4eHm5GdGB8Fq+FV3Xtp+R9T3ZpCeGPLWLjF2wOrk5WoJHglXGkeledCTRB1Zp50nCHZRhr8D2pCo4z71Cg0jRR5UUHwmK4YkxX2Y75+DajWeujscWstOj/AIks/CG8a0Dc1cNtuqh9WDLPwZUaQXRuM6zsHl8oH/Iv0GiKOe1Hl3UeQ5UCV6YJXHd7HDzkR7cuRjwVIeUk/wDQKl+iG0dXEu16cR7clxMCMSNwy1hx0pPgpRSPwVR9f3BF01ZdlMnibjON25okjBMcBte52xxcWKv0PXWjtJ2+zWFgvz1Q2ENTX7cltUdL6iVvKbW4oBWVFRGMjfnQM3yFHkK5bfcLfdIkebb5Db8V9PE242dvNJB3ChyIIyK6VKShKlKUEpSCpSlEBKUgZJJO1BU9faj/APD1jd7O5w3G48cSDwnCm9vnXx9wHbzUKVfR9pJnUtwkvXBtarVBQOuCVLR18hwEIaC0kHbdSsHuH2q4tW3uTqzUSjEStxjrW7daGU81oK+FKgDj2nFHPvA+rT10zY2NO2aDbGuFTjaetmOpH7aU5guL8ccgnySPCg54uitEQ8BixQFY75LZlEe+SVmvzUN6s+j7S7LSxHQ4oFqBEYQhrtD+Nhwtgeynms9w8yAZi4T4VrhS5810NRYjZdeWe4cglI71E4CR3kgd9Z3vd2vWt7+11LK1LfcES1wkHIZaJ2BPLJ+k4o+fIJASH5ardfdc6gc6x1a3pTnabjLWCUR2AQkqA5bDCW0+g2AyND2y2wLRBiW6C11caK2ENp2JJ5layOalHJUfE1F6U0zD0xbEQ2eFyW8Uu3CSBu89jGEk78Cdwgep5qObB5UBzqJv9htuorc/b5yPYV7bDyQOtjvAYS42T3jv8Rkd9S259KKDNcmPqPQl/ThRalxVdYw6kEx5kZRxnHehWMKHdy2KdnvpjUtv1PbUTIxDb7fC3OilQLkZ4jOPNJ3KD3+RBCfOqdM2/VFuVEfw3Ja4nIMoJBXHeI+JQrYLHf6gEIqJK1HoS/rygtSoyuqlMLJ6mXHUc4yOaVc0nu2PMUGjZkSJPiyoUppLsWS0tl9tQ2UhYwQO/Pge73VnS9Wy7aJ1EkMurSuK8iXbJWMB5jPsqIG3ilY9RyO7+sV8tuobcxcYC8tr9h5pRHWx3gAVNOAd4/MEEbGozWmmGtT2lxltKRcYnG/bXVYGHcDiZUT9VeMHfYgH6uCHdpq/xNSWmLcY/Chah1UtkHJjyUgcbZ8u9PiCPdM+Q5VnbRmpJGk70tuYHUQJDnZLqwpKuNlSFFId4OfE2c5GOWRz5NZ3pN0E3nguD7uP91DlDPp1iU0EH0u2kPW613hpHtwXzDkEDfqJHtIKj4JUMD79J2M+5FkxZTX7SM80+2fBbSwsfpTfv/SPom7Wi62ssXZYmRXWkKEdgJQ79JtZ43gdlAHl3UmqDWjLrchlh9s5bebbeQfFLiQsH869+lJa29LDtutdrtwsgecgw48QvrnFIcDKA2FcAZJ7vtVe9Ha3haqRIZUyIlxjDrFxut6wOMZA61pRAOAdlDG2R40E/eTw2e+K+zbJ5+DC6RPRmnOsbQfss3A/5R1P+tPLUCuGw6kV3Js9zOfSM4az5o+9wtPXpu6S23nUMRZaENsBPG4642W0pJUQAN9zv6HlQaW8hVJ1N0iaesjciNDeTOugQtCG4pSthh3GAX3vo7HmBk7YOM5pX6g17qjUalRGlKhwXldWiFBKyt7iOAh10ALUTnGAAD9mpPTnRde7l1Um8qVbYasK6kpBnOJOD+zPso/Fv+7QUJlibPkIZjtPyZUhZ4W2ULdedWcqOEpyonmTXqXBmQpj8CS3wS2HjHebC0L4XQcFHEglOx251piy6dsNgZ6m1w22SQkPPq9uQ9jf5x5XtHxxnA7gKQFvze9Zw1kcQuOokyF53y05K65fPyzQfaw6h1Dom6PsqacCEu9XcrdJJQlwp7xz4V4+ioD4g4N61pr+1zNNMMWWQTIvSVsyUEhL8OMnAdbeSCcKX9EcwRxEHkatmrdG2vVMfiITHujKCIs1KcnHMNPgbqR4d45jmQpAXa0XSyTXoFxYUzIa3wd0OIOeFxpQ2KT3H3cxgAwuinTnaJT+opSPmYalRreFDZclScOOjPcgHA81eKKcqlJSlRJCUpBKlKIASAMkkmqjoK96euNkgwbUns7tujobkwnFAvIUd1PZAAUFqJJUBzO4B2qq9Jms+EP6ZtbvtKHBd32zyB/8olQ/xP4fEAK30gawVqKb2CAtXyPCcIa4cjtkgZSXyPDmG/Lf62EsDo90b8gxPlK4N/7Ymtj2VjeFHVuGhn66ua/cO48Va6NNGF9bWpLoz8y2oKtLLg/aOJP86Uk9yT+z8Tv9UFTi8qA8qKPSigKOfKjyo8hyoDyHKqtrLSMPVEDCeBm6RUKMGSRgeJYexvwK/I7jvCrT5Uc9qDN1hvd80Teng4y4jgcEa6wHTwh1CT8OIZyhQ8e8KIVoS2XO33iDGuEB4OxZCeJKuSkkbKQtPcociKq+utFMakjGXCShu9RW8MqOEpltp36h0nbP2D3cjscpU+l9VXfR0+W0tlxyMoutzre8VNlMhsFKVjiGUrScBW24yDyBSHf0oC0DU7yYKOGSIzJuhSR1apShxAgD63Dw8W/55z32HormXe12+5SbqIRmtdeiP2MvLSyo5bUVdake0MK5d491d01a5Wr9TtNy1KcS++7cbq7yPUBfG5uOXESEDw4h4VpBKUpSlCUpSlICUhIwEgDAAAoFe10O2sft71MX49VHZa/6lLrsb6ItJJx1k28rI54eioSfcGCfzpi+lFBRkdFuhkoUksTlkpUkLXLXxJJGOIBICcjnyxSkuEK/aF1CgIcKJENwSIMhIIbkx1EpCsfZUMpWM+I8zpTnVb1fpeLqi2Ljngbnxgt23SFD6DpG7ayN+BeAFe4/VwQ5DqGBqPRGobjGIQv5DurctgnKo0gRV8TZ8u9J7wR6DO9TUO43nTjt+t6m1NmbDmWm5RXsge2hTYVgbcSCcpPme5W8r0e2m23q+vQLiwHoy7ZMUpJJCkqBQErQobhQzsaC59Glx0GEMxmorcPUJSG1OzVh1yWcYJivKAAz3oAB+9jNNXyFIDVnR9d9Ol2dBLk20oJWXkgdoigbjtCEdw+0BjbcJzgyukuk6XB6m36hU5JhjhQ3OAK5TA5fPDmtI8fpc/pcgDZvsrsNlvssHCo1snPIP76GVFI+OKRvRnFMnV1tXjKYbEyWoejKmUn4qFM7Xt1huaIucqHIaeZuAiR47rKwpCw4+gqAI8grI/7VTuh6Lx3LUE3G8eCxFB/+S71h/wDroHN5CoXUOm7RqSEYk5vC0cSoslsAPxnD9ZCj3H6wOx9QCPnetXaWsIWmfcGu0JB/kkb5+UTzwW0cs9xUQKWl66W7tI42rHEbhNHIEmVwvyjvspKP2SfQhfrQVW62jU+iLs0rrHWHElxUCfFKktyG8cKuBR78HC0nlnvBBV99EWCPqe+hifJAYZQqbKbU4Q/MCVDLaDz3J9s5zjPfuISe/frikXS4uTpLbjqmES5RdW0pwDiLba1+zsO4cvfV86JLSuRdbheFg9Vb4/Z2TuAqRJ2OD+6kKz94UDpbbbabbaaQhDbaEtoQhIShCEgJCUpG2ByFevKijyFAeQooooDn/rRRRz2FAenLvo8hyo8hRQFInpWds69QttQ2UJnMxkfKryDgOurALSFpG3ElOMnvCgPq09ue1Z/6TbSu3amkSgFGPdm0zWlHJAcHzbqM+IIz6KFBbejFel7VbH5Em72tu6XJ0Fxp6Uy28zHaJS21wuKG5PEo48R9mmg08w+kLYdbcQeS2lpWk+hSSKzpa9CamvVtYulsEKQy6p1HVCSlt9tbaikocS6EpB5Ee1yI8a8O6L1/b1cfyNcEqTuFQil9Qx4GKpRoNI0Vmv5Y6Q7RgOTtQxEp5IlrlpQPwP8As/lXa30k6/Q2pv5VSvKcJWuJDK0eYPV8/XNBoVxxtpC1uLQ22gcS1uKCUJHiVK2qrXPpB0Ra+NKrkmW6n+itie0k+jgIZ/xKSaWtdatdCgm73T2sBay6uM0rwCl4ZT8RVptnRJqGTwLucyJAbOCW28y5A8QQgpa/xD/3Cv601JatTT2ZsO1rhuoQWn33HgpyWhOA2XG0J4QU7jPEdsDPsjEz0SJzqeYfs2aWf8eOn/WrDe+j7S1g0zfpqEyZU5iJlp+W7s24paE5Q20Eo79s5qC6IU51Fc1fZsr4/ikx6B47cu6lrq3oyhXHrp+nw1EnHK3YZwiJIVz+bxshR/hP7u5LK8hR5D30GV5QvVtTLs0vtUdCZCHpEJ7iSkPoSUpc4DtnB2I5g94r3Bu9+hx5Fvt0uSw1OdbLzcQ8Dr6gChKCtsdYRuRjON+VXjpelIcvdpiJ4T2W2hxZAHEFPvL9knnsEgj186vfR7ZLfA07ZZghx03CZHVJeldWkvqQ84paE9YRxY4eHbNAsLN0a6uuxQ7KaTbYy8KLk/iD6gefDHT85n73D60y7L0a6StXA5IZVc5ScEuTwkspON+CMn2Mfe4vWrt5CuS5To9rgXC4P/sYUZ6SsZwVdWkqCQfEnAHrQJPpSuyJd8YtTHCItljpZ4EABAkPBLjnCE7bDgTju4TTQ0JZ/kXTVrYWjhkyk/KEvIwetkAKCVDxSngSfSkppuA/qrVcREv5wS5rtwuSiPZLSVF90HyV9EfeFaS9KA8hR6UUUBRR6UeVAc9qPIUUUB5CiiigKo/SbZvlTTjstpHFJs7nbUYGVGORwPpHljCj9yrx6V4daaeadZdQlbTqFtOoUMpWhYKVJI8xQJ3ojvPUzblYnVYRMR22ICduvZHC4kDxUnB/q6cvpWaZDczRuq1hHF1louKXGsnBejZC05PgtBwfvVo+JLiT40eXDdQ7HfQlxtxtQUClQCseyTv40H355HdyOd6TnS/AZZf07NZaQjrmpkZ0toSkEtKbcTxcI5+0r4U4/Sl70sxeu03GkJT7UO5x1qV4NutuNEfEpoO3oxldp0jAazkwpM2Is5zj50vgfBYq6+QpWdDsvjg6ig5/Yyossf17amj/ANAq/wB8v1m09DVMuT4bR7QZaRhUiQsDPAy3kZPLO4AzuRQRfSAeHR2o/wDkR0/xSWhS86H05vN7X9m1hP8AFIbP+lV/Uurr/q+U3FQ263CLwEK2xQpxTjhOElzgHEtfhtgdwGSVck2yay0k7EnPMS4KyEKZlxnMpQpQyW1OskgK5gpJ3weYoNLeQo8hSl010rg9VE1K1g5CRcYre33pDCB8Sgfh76aLE+3yYqZ0aSy9DLanQ+ytLjZQkEn2k+HfQZ715JXcdYX7qwVcEpuA0kfajtojkD1UD8a0LBjIhQoEJvHBEix4qccuFltLY/Ss6acbcvesrQpwZVLvInvA75Sh1UxwH3A1pJa0NoW4tSUISCpa1kJSkd5KjtQfvkKWvS1eOy2mFZ2l4dub/XSADv2WMQoBQ/eVw4+4an7r0haJtXGlVxEx5P8AQ2xPaSf6wEM/4lJXVF8f1bfjLZYdShxMaDb4ylBbiUDZKSRtlSio/ixvjJBhdEVm6qLdb46n25KxAiEjcMtEOOqSfBSuEfgNNP0qOslsas1ptdra4cQ4zbS1JGAt0+04v8Sio++pGgKPIUeQo8hQHkPfRtR6UeVAUUUUBR5UUYoCig0Y7u6gXevtCTdRyI1ztTkdExpjs8lqQotpfQglSFIWARxDJBz3Y3HDurn7XrvSjqn1MXW3FP0pEVbgYI8C9HJbPoTWlaCAdsDB5+Y9KBEWvpW1ZC4ET0Rbk0MBRdQGJHCNsB1gBPvLZqbvnSDpjUmmb1bXW5UGc9HbWy2+31zS3mXUPJQ261k74xkpTV5umiNHXfiVJtTDbyskvwh2Z7iP1lFnCSfvJNUW69D6khx2z3YFKQSGbmgggDc/PsA//VQUzSOql6VevEhEftDkuCGGG1K4Wg+lxKkuOkb8IHFsOfLIzkfJpnV2u7wo5dmS3OHrHXDwRobOTjJA4UoG+ABv3Ak7/XSmlHdSXh+2rlIjtQ0LemOJBWsttuBopZBGMkkbnGOe+OE6AtFmtVjhtwbZGQwyk8SyN3HV4wXHVncqPifQYAwAhdKaJs+mGg4kCTdFp4X5ricFII3bjpP0U+Pee89ybO6yxIacYfabdZcSUOtuoSttaTzStCgQR7q94ooFhqXoqgyi7L064mI+crVCfUoxVnmeqc3Uk+W4+6KWZe1dpR+fAWZlvXJYdYlR3N2X2nEloqCTltW2eFQz5GtN+QrhulotF5jGHc4jMlg5KQ4PbbURjiaWMKSrzBFBmW03a4WSai4W9TaJbbbrbTjjaHeq61JQVJSsFOcEjcHnUlxa61c9jN2uh4+Q6xUZpR9MMp/KnXbuj3RFtX1iLYmS7nIVcVqkgDwDa/mv7lWlDbbSENtIQhtA4UIQkJSkDuCU7UCStXRJqGTwLukuLb2zgltv+VSB4ghBDQ/tD6eLAsfR7pSxvMSm2X5c1hQcakTXOLq3B9ZtpAS3kcxkEjx76t+KMUBR5UUelAeQo8qMeFFAeQo8hRjwo5UH/9k=;fontFamily=Architects Daughter;fontSource=https%3A%2F%2Ffonts.googleapis.com%2Fcss%3Ffamily%3DArchitects%2BDaughter;labelPosition=right;align=left;spacingLeft=11;html=1;fontSize=17;imageBorder=default;" parent="1" vertex="1">
          <mxGeometry x="20" y="920" width="50" height="50" as="geometry" />
        </mxCell>
        <mxCell id="izkQLqx_YW1xycEnvegU-20" value="Brush Bug&#39;s teeth, give her a bath." style="shape=image;verticalLabelPosition=middle;labelBackgroundColor=none;verticalAlign=middle;aspect=fixed;imageAspect=0;image=https://img.freepik.com/premium-vector/pug-silhouettes-icons-black-flat-color-simple-elegant-white-background-pug-animal-vector_1164753-2.jpg;labelPosition=right;align=left;fontFamily=Architects Daughter;fontSource=https%3A%2F%2Ffonts.googleapis.com%2Fcss%3Ffamily%3DArchitects%2BDaughter;fontSize=17;spacing=0;spacingLeft=11;imageBorder=default;" parent="1" vertex="1">
          <mxGeometry x="20" y="850" width="50" height="50" as="geometry" />
        </mxCell>
        <mxCell id="izkQLqx_YW1xycEnvegU-21" value="" style="shape=image;verticalLabelPosition=bottom;labelBackgroundColor=default;verticalAlign=top;aspect=fixed;imageAspect=0;image=https://cdn-icons-png.flaticon.com/512/9129/9129390.png;" parent="1" vertex="1">
          <mxGeometry x="20" y="1440" width="50" height="50" as="geometry" />
        </mxCell>
        <mxCell id="izkQLqx_YW1xycEnvegU-25" value="Wash the dishes." style="shape=image;verticalLabelPosition=middle;labelBackgroundColor=none;verticalAlign=middle;aspect=fixed;imageAspect=0;image=https://thumbs.dreamstime.com/z/black-white-icon-dirty-dishes-isolated-image-white-background-black-white-icon-dirty-dishes-isolated-image-281779338.jpg;clipPath=inset(15% 9.86% 9.33% 10.21%);fontFamily=Architects Daughter;fontSource=https%3A%2F%2Ffonts.googleapis.com%2Fcss%3Ffamily%3DArchitects%2BDaughter;labelPosition=right;align=left;spacingLeft=11;fontSize=17;spacing=0;" parent="1" vertex="1">
          <mxGeometry x="20" y="1170" width="50" height="50" as="geometry" />
        </mxCell>
        <mxCell id="GNDAwFF0zjLFhvpFObI1-4" value="Find out what happened." style="shape=image;verticalLabelPosition=middle;labelBackgroundColor=none;verticalAlign=middle;aspect=fixed;imageAspect=0;image=data:image/png,iVBORw0KGgoAAAANSUhEUgAAAX4AAAF+CAYAAACF2nH8AAABXWlDQ1BJQ0MgUHJvZmlsZQAAKJF1kN8rg2EUxz+bLYWiSIq0lBUhzZTbGa1pZW3kxwW93s2mtnl6N8mdK3dcSf4CyYUrtRst/oOVQq6441rtBr3Ou2EbOXX6fvp2znnOc8DeoimVcgDpTM6IBCZdi0vLrsYX7HTTjpM+Tc8qXzgckhK+tT5Kt9gsvRm2ZvWfRQdPVwYKar94seeePf9bXxdNsXhWF32X9OrKyIFtVDi8nVMW7wp3GLKU8KHFiQqfWrxW4ctyzVzEL1wUbtOTWkz4UXhorcZP1HA6taV/7WBt3xLPzEdFuyR7CBHAxbzoHBF8LBBkiul/erzlHj+bKHYw2CBBkpxM8ImjSBEXDpJBZ4QhYQ+jkuPWrX/fsOqpTpg4lqeeqt7qPeR7ofWg6rmf5TszcF1QmqH9XNZWcmTXxzwVbs6D88g0XxegcQA+7kzzLW+aHyfQ8ABXpU/BZGRaMJLS2AAAAFZlWElmTU0AKgAAAAgAAYdpAAQAAAABAAAAGgAAAAAAA5KGAAcAAAASAAAARKACAAQAAAABAAABfqADAAQAAAABAAABfgAAAABBU0NJSQAAAFNjcmVlbnNob3S0/oEqAAAB1mlUWHRYTUw6Y29tLmFkb2JlLnhtcAAAAAAAPHg6eG1wbWV0YSB4bWxuczp4PSJhZG9iZTpuczptZXRhLyIgeDp4bXB0az0iWE1QIENvcmUgNi4wLjAiPgogICA8cmRmOlJERiB4bWxuczpyZGY9Imh0dHA6Ly93d3cudzMub3JnLzE5OTkvMDIvMjItcmRmLXN5bnRheC1ucyMiPgogICAgICA8cmRmOkRlc2NyaXB0aW9uIHJkZjphYm91dD0iIgogICAgICAgICAgICB4bWxuczpleGlmPSJodHRwOi8vbnMuYWRvYmUuY29tL2V4aWYvMS4wLyI+CiAgICAgICAgIDxleGlmOlBpeGVsWURpbWVuc2lvbj4zODI8L2V4aWY6UGl4ZWxZRGltZW5zaW9uPgogICAgICAgICA8ZXhpZjpQaXhlbFhEaW1lbnNpb24+MzgyPC9leGlmOlBpeGVsWERpbWVuc2lvbj4KICAgICAgICAgPGV4aWY6VXNlckNvbW1lbnQ+U2NyZWVuc2hvdDwvZXhpZjpVc2VyQ29tbWVudD4KICAgICAgPC9yZGY6RGVzY3JpcHRpb24+CiAgIDwvcmRmOlJERj4KPC94OnhtcG1ldGE+CquaxnMAAEAASURBVHgB7X1psCxHdWbe9/Se9GwJ7wsRHg8ztrHNJrFJgnBYkgfHTNgYGxmBNhAIAdolwHgsZqwnYQ+aMcIWSEhi0waI1dgeT3j+CRQeGzASYLN6whOeCEfM4j94IhDv6Tb39pwvM091VnVVddaS1VXdX77XnZV5Tp7M/LLqy1Onq/vuGGPm8mIiAkSACBCBLUHgwJbMk9MkAkSACBABjwCJn6cCESACRGDLECDxb9mCc7pEgAgQgRNCCI4ePWpuuummsIrHRIAIEAEiMHEEbr755hy30+Of+IJy+ESACBCBpgiQ+JsiRn0iQASIwMQRIPFPfAE5fCJABIhAUwRI/E0Roz4RIAJEYOIIkPgnvoAcPhEgAkSgKQIk/qaIUZ8IEAEiMHEESPwTX0AOnwgQASLQFAESf1PEqE8EiAARmDgCJP6JLyCHTwSIABFoigCJvyli1CcCRIAITBwBEv/EF5DDJwJEgAg0RYDE3xQx6hMBIkAEJo4AiX/iC8jhEwEiQASaIkDib4oY9YkAESACE0eAxD/xBeTwiQARIAJNESDxN0WM+kSACBCBiSNA4p/4AnL4RIAIEIGmCJD4myJGfSJABIjAxBEg8U98ATl8IkAEiEBTBEj8TRGjPhEgAkRg4giQ+Ce+gBw+ESACRKApAiT+pohRnwgQASIwcQRI/BNfQA6fCBABItAUARJ/U8SoTwSIABGYOAIk/okvIIdPBIgAEWiKAIm/KWLUJwJEgAhMHAES/8QXkMMnAkSACDRFgMTfFDHqEwEiQAQmjgCJf+ILyOETASJABJoiQOJvihj1iQARIAITR4DEP/EF5PCJABEgAk0RIPE3RYz6RIAIEIGJI0Din/gCcvhEgAgQgaYIkPibIkZ9IkAEiMDEESDxT3wBOXwiQASIQFMESPxNEaM+ESACRGDiCJD4J76AHD4RIAJEoCkCJP6miFGfCBABIjBxBEj8E19ADp8IEAEi0BQBEn9TxKhPBIgAEZg4AiT+iS8gh08EiAARaIoAib8pYtQnAkSACEwcARL/xBeQwycCRIAINEWAxN8UMeoTASJABCaOAIl/4gvI4RMBIkAEmiJwQtMGKfU//elP58xr+eGHHzZnnXVWTobC2WefnasrlnNCFogAESACRMAisFbiB7HjBWJHXpfK5DfffHNpk6NHj9p6bARDbAZlYysdWIvKVONf95hT9t8C5uRNUq3jqoED56rrZFXbGDkcsptuuilGNanOmM+nodY+xCCmz7msiH0JYc5Tp0996lNzGVTWp/adMkd/mFuq+aWcT6oxp8R71ZghT9n/2GyvwiPlNZfy3ATO65yb4gZOGduaV40n5CKMu88UXldFu7I55zAaxONXryPckQSYwRL61b7h/QhAtu8xeCqDgcCOtg6B8LxPNXlcT7yO4tEN10TvxNbBR0k/3MUkzznnHPtS4o2HKJ0mAMdrZ2eHJ206mGl5zQgMdc2R+LstdJGP2uLZpF0y4scgQPpDnXxtoQ83gCbAte2P7YjAUAjg3B4iDdXPEHNZdx/FTaDpeCSUFNWkd+IH0YPwp3YyKOAk/6jzhkojR2Boh4vXTf8nBDipaVSi7OnHspH1SvxK+kOfdGUTa1vXBuy2fbEdEUiFwNCO19D9pcJtjHaBbezGGqvXG/Er6Y8RuDZjagJ2G/tsQwRSIYBrcR3OVyzppJr3JtsFHyGSEpNiwj29EP+mkb6CC7Cb3mppW+ZEYF0I4Lxl2jwEwLPgo1Wbeky4pxfij92JNm8pOCMiMD4EVhFDqhFzw0mFbN7uKpxj7rw6E39MJ/lhT6+0DXOc3qpwxGUIrIv0dSy8VhSJdDnWuKuz3Yn4scirdp900x/Gsny7bpiO2AsR6AGBdV+P6+6/BwgnYQLk32WT7UT8m77I+EZdzAclkzhTOMiNRwBkgNe6UxdCWvfYp9Q/+Lftercm/k1fXJD+ps9xSic5x7oagU13xFYjsH0abde8NfG37XAqS0PSn8pKcZxAAJ5fW++vbwQ3nRv6xquLvbbr3or4x3KCdQGsrq3+aFKdDmVEYEwIjO2apOM03NnRZqMl8RfWhyGeAiAsTgKBNhd/yomNbTwp57pu2228/lbEv6mLig9y6ams+zRm/00RGJu3r+PntaRIpM+bngOD/B5/02mDgDXcUnyqRieoecxf74rtX/uM1aceERgDAmN1xDAukv8wZwh4sElqTPxKuE06aaILoq97dl43As3VNsaFV9uLAKRftKm2mROBsSKg5/1YxwfiJ/mnXx2cB01SY+JvYryNbszvTJTZBWnjhZNML4bYTYBx/TJEp1mHc6DOcZjmrKpHHXuOV1ugZBUCsU5hSL59RiJWjU/l6B/nf0xqTPzh5GI6aKoTO/A6u7CBFzYBvFZdHNBhIgJTRCD19dgVE1x7U7++lE9WYQG9Yorhn2KbIcoHhuikSR+rSLqJLegCePnDw9lnBsX2jOsXEWF5KgiMnfQVx6kTv86jTa78U7YptLFX16bJ+TA64sfgU/wUsi5ASPQM8dSdRpSNHYG+naRU853KOFPNH3YRfhyC/GPn0Jj4hxo8ThbdAPr0GGBLY3Z92o0FnHpEoA8E4CA18fD66LOLDV5rpjLq0AXXsG2TJ3tOCBuO8Vi9BeTYdPTDXxzj1SZN6STEYk5pvG3Wg22aI6DXRfOWbLEuBNryVYrxjp74w0mHXo6e+ACzj80g7GdMx+GcxzQujmV9CEzxnFDHbUzkt44VxPyxfimS8mCM7cbEP7aFCy8C3Qw0jk9POeYU2CwdnA8IEY4h4aGCFEnP8xS2U9rE2oyNP1LOd8y2D7QZ3NgXDxcGXiCAFJ8TtMGMbYhAXwik8hgxPnWa+hpraGeqG1Y4h67HKdeuydhaEX+TW4omg0mlG24EvAtIhTLtDoFASuKAQ5f6+khtf4g1aNtHyrVrOqZWxD/lxdM7AcxhyvNoutDU3wwEUnrN6u1rngKxlONPMd4+baYm/iaRmFbEDzCadNIneH3Z0rsAkn9fiNJOagRAHCnJY6hrehuvOcw59abXZP1aE39KryD1BRTax2Lo5wBhPY+JwNgQSEkcIWlsIzGnXOuxkT7m2pr4caJsCvkDCN0AUnpU6IeJCLRFIOW5WbyWi+W2Yy5rl3IDK+tv6DqsE14gfDiVQ8y36eeujR/nDEFUz2CIiYX9pjw+55xz7Iamc0vZF20TgVgEUpI+nLjQ48eYcP6nvK5hH68pJOAQi0XKdarDqimWnYgfA0GH6/gJ0joQusp0kZuC2bVfticCVQjoOVkl71Jf5d1jM0hFZJjPVK6vVBh0WbOwbdX6hTrF49ahntDQ2H6AKBxb2+MpnZht58h200AAxJOSfIrevqLSNHyg7WLzqRB/7HympNcL8WPCIP82O8+YwQL5p7zgxjx3jm08CKT09qtIH7MnMY/nHKgaCTi3zTr1Rvx6omwi+VeBznoikBoBOB4pnY9V1+sqeZf507Hqgp5r24b00bJX4odBDKTuD59AZ0oJFx0+8GUiAutAIKW3j/nUefxDzDflpjbE+NfZR5dNuXfiVyA2aQPgyamrynxoBFKeezGk39ajjMUp9cYWO46p6YH0u6xNMuJXIDdlA0h5ASpWzIlAiEDqcy7WY4zVC8fe5LgLgTXpZ1N0u5I+cEhO/Ap2uAGkPpG0zz5zeiZ9oklbMQikPOfg7cd4/BhnamJOOc8YnKek0wfpY76DEb+Ci5MIL/0cYCqbALyv1B6YYsScCKQ+35ped7GbRNuVS725tB3XmNr1RfqY0+DEHwIZbgJT2wjCefB4PAiAoHAujeHVBZXUXnBTIk/9TH8XrLahLR6X73NzPCEFaEroTW3rxIr5pn0zuAkuTS/QWNu8e4lFaj16qdcHvyEzpoSNTq/7MY1r3WPB9Q/S7zv1TvxYPPVWui5ksX14+6t99A1InT30n4qIq/qFp1XEoUq3Sf3YLvwmY9903RTrPQXMMO9tnXtxfcAzCO2k4pteQz1YNCVk5H3/3DFAQB944VZ+6G8L486DiQikRmBbzzPljtT4TsF+StLH/HsjfpBx2cKhDrIUSTcC/XwgRR+0SQSGRCC8qx2y37H0lYorxjK/2HGUcWls2xi9XogfJ2vdQCHr2/svTg4nTNMnFYo2VpX5AdcqhCjvikDdddTV9hTab+vdTnFtwKkpN8FeiD/2Jw3CDSDFpFLFw4qLwjIRSIHAtnv7wJQYLM4s8CXwSJFO6Go0lvTDftSrQd7ns6mpQArHzuPxIzDG8yDGKdHrYvwIpx0h1i8Gr7SjWFjHZ4nF8cBxHWK90Eex78XIuh3Npbl9CQlLuDw+QV/b9pHDHl4CdPwgvCba9DGGOhtV45KFSdY38EiR6ubZVbZqzJB37WNq7WPWcGpzSjneGLxUJ/W1v47rPsR21fWkONTlslHlrrnWHn+KHU93UM2x0xXj6sXdD97BNj/nLycI0wYgMMa7lHXCCn7Ba8xJCNkMsW7q9Re5rys22U4Qu7Nso8cmIFduqPT43R0jMMJr1Xm0jedP5cnjBSnPIV2XqeWrMFP5ujx+9D/UuYzzo0uSTTTjeZwHjT/cxQ6nHrkY2JokC7w1c+VEh0UA19QQnuOws+re29g9fswQYxRS7j7ZFRZwfvSJR2Pib/Nh7oo5TUI8xOJOAggOsncEttGR6h3ENRocyinEedKXg9CI+LeV9HFOkfjXeGVteNd9XcybBtNUNkRww5Dk38c6RxM/bjO29QQdalH7WFDamBYCfd6+T2vmcaOdCj4Y5xDOITi4D0yiiB8dTWX3jTud4rWwmH0AHd8jNbcJAX5TtX61p8Q7QzmIfYR8VhI/dpgpgV9/GjWXFh8nbW6BLYhAOQK4tvBiqkdgKo7XkCGfrmH3E+ohd7FteVzKdO1oVT9jlGMHn8pJN0b8OKZ6BIZwqFJ7oUN8h2ZKd0XgiyEwwZkFTgY3t0kriR9GsZPJM6SWBIc4WdtMpO82DPH0jSjthQgM4e0PdQ6n/tsOwAqEitcUEjbbIe7k9BzCOjdNK0M9oUEAn9qDCPtb1zGAbLuTrmvM7HdaCAzhQA11rQ7Vz1RWGPwxFCZtIzGNiB/Ag/zh/Q81saEXm6Q/NOLb2V9qjxDnMV6bkobYKPvECjw5FP5tyL8x8Ss4m+j9Y6Ho6esKM0+FQGrSx7iHfCgBXDBEGqqfvuYylHOM86kpNq2JH+Cgs03x/rFIJP2+TnnaqUNgCO91KG9T5zkEyQ2Bm86njxxrMAQuGCuwaeJQdCJ+BSfcAIY+4XQMbXP18pvumG37Y7vtRgAXZ5MLtA1aOKeHvg6Hun6G6qcN7mVtMN6h1qLJxtgL8euEMUl4zXgNtdNp301zLIaOdaiFaTpG6m8eAk0uzrazX9e1t65+2+I0VLuhcIFDEbsx9kr8CiSIFAPQMNBQE9f+63ISfh06lKVEYAhvH+PfZEdmiI2z73MA6zHUmsSGfJIQfwgcNgDdBPROYCgQdBzoD31jI0I+dP86DubbjUDqEA/QXee5jet8iDRUP33OBbwzVIrZHHdkMPiBfpvgmQ8NaugF9fGNN5z4eKJBLwDNdY7MiQARIALbhgA2g5DbT1g3ACDmKnKO9ZCq2q97buyfCBABIjBGBNZO/HWgkNDr0KGMCBABItAOgeQx/nbDYisiQASIABFIhQCJPxWytEsEiAARGAkCeLAlTCT+EA0eEwEiQAS2AAES/xYsMqdIBIgAEQgRIPGHaPC4NwT29vbM7u5utL35g7dF61KRCBCBbgiQ+Lvhx9YVCBw8eNA0In8JQZL8K8BkNRHoGQESf8+A0twCgcOHD1uv/9ixY3YTWEiWj3Yuut6YB99h5i/8F5LT+19GiDVEoD8ESPz9YUlLBQTg9avnD/JfGfq58Dr7sxrw/OcfIvkX4GSRCPSGAIm/NyhpqAwBeP2aQPx15L/z9DON+/ut8ksiHxbv/4YLtClzIkAEekSAxN8jmDS1jIB6/SoB8X/rW98q3wCE+M3Tz7Cqc/yE1Jc/a/Zf+CTG/hU85kSgJwRI/D0BSTPVCIRev2pVef87F0qsX9KO/MtyxP4Z97d48I0I9IEAib8PFGmjFoGi16/KIH/E/nPJev1nir/vvmmIbxzaf4j7M/STg4oFItAWARJ/W+TYrhECZV4/DOCRz2LoZ0c+5M08/h0cuX8I/eCpH3r/jaCnMhFYQoDEvwQJK1IgUOX1a1+50I/3+iHLPH+9A0CO0A+f+lHomBOBxgiQ+BtDxgZtEQD51yX94Bd3AfD6kTLPX47CMp/6sXDwjQi0QoDE3wo2NmqDQFW4p2jLPvP/08+SJ3wk1m9/VdDF+aGXK+Opn1/mUz9F/FgmAqsQIPGvQojyXhGIJX94/98576rsuf7M85eYv7sP8HcAKPOpn17XiMY2HwES/+av8ahmGEv8GPTjTz7N7D3lOXb8pbF+kWT1fOrH4sQ3IhCDAIk/BiXq9IrAkSNHou3NXnKl1c08/kKsP1fvn/rhb/1Ew0vFLUWAxL+lC7/Oaa96wicc295Tnite/3MXnr0+169P+ZSU9/lbPyGEPCYCSwiQ+JcgYcUQCDQJ+cxecsXi6Z7wuX4ZKH7bR/9h3FrOnvqRuwAmIkAE8giQ+PN4sDQQAs29/shYv94JIMdTPzeczy98DbSm7GY6CJD4p7NWGzfSZl5/g1i/IJWL/fOpn407dzihbgiQ+Lvhx9YdEIDXH0v+iPPvSsgn9xy/9B1d1qd+GPrpsGJsuikIkPg3ZSUnOo9Y4sf08ISP/l5/5tGXPdfvo/5ok9PHUz/4oTfZBJiIwDYjQOLf5tUfydybkP/xG++xo86e3w9j+iKJqZ/zt35GsvIcxroQIPGvC3n2myEA4l/1Oz6qrI93Zh6/ePdITct86kcRZb6NCJD4t3HVRzjnJl4/Hu/MPPuS5/ghi5LjqZ/fkqd++EufIzwjOKSUCJD4U6JL29EINH28c/8pp1vb+tx+5vFXPNdfJ7feP8k/eq2oOH0ESPzTX8ONmUGzn3K4ws478+zFx0eKLjt1eSrINpJn/eU3/n/5XxrzN/zClwWSbxuNAIl/o5d3epOLJX/E+nPf6G0a67cfDeA+AAeay8Zxw4XGfOgd0wOOIyYCDRAg8TcAi6rpEWgS8tmVxzvdr3fmY/rO7/d3ANallxr17Jdy1ZO5ySH05kL88w+S/NOvNntYFwIk/nUhz34rEWj2QS++0bvw2HPP7UNin/OHhi1YzWp9tSPaD77TzH/pJyT08zm0ZCICG4UAiX+jlnMzJtPqG70a43cO/LKHD2i8R28Poadl5BXt9//thfT+ARjTRiGQI371jjZqhpzMJBFo8mw/vtG7eMoH01147jhalL3nvyR3Gvq+0Pd2PnS7kP87J4kjB00EgECR23PET4iIwJgQaBbykad8qjz4XL3M0Hr4bqb52L/3+8vkQvzzf/NTDP2M6QThWFojQOJvDR0bpkagacjH/paP9fDVd3f+vrg71sdfePI4QvL1S3LfTuVZLnvGb15sDL3/1EtP+4kRIPEnBpjmuyHQJOSze94V7imfzMMPPHipy90R2LJ/GijTFxWtz/RxoPUun39AQj8fYOjHAsO3SSJA4p/ksm3XoBuHfDIPXT198e1tqF/LJXmpHO2CzwiCOwPzwTvM/F8/2Zi/5lM/23U2bsZsSfybsY4bPQuEfKK/2PVU+d3+8y53nrugko/hS9kjla8Xz189/FI52okC/nsDqr//ppeL93/7RuPPyW0eAiT+zVvTjZxRk3j/TEI++7IBZDH83B0A4BGPH5584MHjHsDpl8lV4tupPW3/AfH+Sf4AjmkiCJD4J7JQHKaxf60LG0BMOn7T+7yH7rx556HrMfKFB28P4cnLgR5Xyxc6egdg2zwg5P+LP23mD9D7j1kf6qwXARL/evFn7w0RiA35wCzI30bz1TP3nrqtCzx8eP/45/z6xVHm55fJoV5iz3zgXUL+d0DIRARGiwCJf7RLw4FVIRBL/ntPfY7ZfenlzvP3xuCdq6fuw/bd5TAZxv7h/ZP8q5aP9SNAgMQ/gkXgEJoh0CjeL8SPDcA66N5DX8T2M58+Qr64I1i0d3cH1orcFegdAHLzgHj+L3gKN4BmS0vtgRAg8Q8ENLvpF4Emz/fPXvo655HbsL59W5RRFHc9uxPwtwFZOZMvt0Mj6Ln2gVym6tqL/H7ZAO5n6Kff1ae1rgiQ+LsiyPZrQ6BJyOfxt7zXjjOL4MND97F71AW+u+hJqVSOepjx+kvty+XmgTvtBmAHwDciMAIESPwjWAQOoT0CTch/N/T8rasunrnv2nno6qkXctHJPHg0cM69y72BpfawCz2Vw/P/hadyAwAuTGtHgMS/9iXgALog0OTLXbOXvc7ghQSfXd+LHr6Tey3r4uc9/KV22R2ASrw+6nPtxeb9d8rrXTDORATWhgCJf23Qs+O+EGj0Ya8Q/95Tn53z4OGVr3xuH4P1HnzuMwFp7NoX5VB2dovy/fsk9HMfyb+v9aed5giQ+JtjxhYjRAAf9sb+ps/x33mP2X/ac2QWzjNf+P6+7GP3eTkmXZRnNbnY/8JqKNdenNTcf5eZn/N02QDkDoCJCAyMAIl/YMDZXToEmpD/7GWvtQOBN66evM3dG94r5F4/Jw+fCgraQXXJfiiXdtb7J/l7OJkNhACJfyCg2c0wCMQ+5rn3tGeb47/zbuvDw13HPySXa9nnmTzUWnjw6tdra5uHsX1rV637dqH8PvH+r78UCkxEYBAESPyDwMxOhkQAT/rE/KaPJf/fvXspRo+K6pi/8+Jzcpmc8+wX8f7Q07dOv3/TzwdycpHNv/h5Mz/rGWZ+L73/Ic+Vbe2LxL+tK7/h825C/o8L+YfP7ec8eHHQnd+Pg+xocWdQKQfAop+1CdsHdw6Qex27JPfJRnTvXRu+OpzeuhEg8a97Bdh/MgSakP/uyy4Tt9v+t+MJPfKsHnJ47pK6yYPPBGCv2O+9Qv7Xvdr2wzcikAIBEn8KVGlzNAjEkv/sgtea2fmvCTx568ovynKkHrzeA6DK+e54L5O72kwfWuLdZ2Xr6QOqQnuofPERM//50+j9Ax6m3hE4oXeLNEgERoYAyP/YsWNmb2+vdmS7F7zGPs1z6MPyW/6SwL/Ow3duPuhZfHUvETk8dSsqkUuV1V6Sw7KkGLl0ML/nbqd76RWuHd+JQA8I0OPvAUSaGD8C8Z7/a8x3LrjMkr564mEM3vnmgYcumvoPKOhx6NlrnZN6ncDzXyU3977bzK+VUBQTEegJARJ/T0DSzPgRiCV/eP7H/4N8wCpeuTrsNpcplsb2tV5ztEMD5JIhuTuDoL6p/AsS+vm5Z7o7AGeS70SgNQIk/tbQseEUEQD5x3zDd+/pzzLH33pnzvNXfx6VCANlZfj5gQfvJGVy1yLXzlrS9ivk6OOed8tLwj9MRKADAiT+DuCx6TQRiP2GL8j/sT/9rNl72rNyHjy8d+fR4+kc94SOK7t668yrR18qd+3sHUGZ3NahE2/P5+hU/pv990vo55rX2A+Ap7kCHPW6ESDxr3sF2P9aEIglfwzu+C3vMrML8XilRuNdLm6+r4EEyXnuWa29M9ASNCLl3q7rz73DStYenv8XHjXzq+UPzMgmwEQEmiJA4m+KGPU3BoEm5D+78DKze8Gl3tO3znjmkQMQeOLqodvcVvp6K4fbHuiF8rBe7UAuDZbs5uSiAe+f5G/R4ls8AiT+eKyouYEIgPxPPvnkqLj/7KLLzOP/8Q6z94xnwXcXNJwHrz65uwMASJCGclejdwhLclGFdq4+bG/vAMrk3u4977XevzXBNyIQgQCJPwIkqmw+ArHev/3Q95Y7zO6Fl2YePLxy55lrvD+M4TuZ03H1C/1QBnNVctSr7uLY3kHI0tjPGR6Vp37ex7DP5p+p/cyQxN8PjrSyAQg08/5fbWYXXap+ee6pHufve49fcLHl7PMAvRcAYKopeYzc3hks2hTbG/H8mYhADAIk/hiUqLNVCMR6/7sXvTrn+asHDrDsHYDm2R0BvHqXFnIIvb47tAoLOYyUyQvtpGiNy4e+TERgFQIk/lUIUb6VCMSS/+ziheevHrjN8eSNJPXvl/IouWuVs2vvMaQG7e1dgvbi7jDm76fXb4HnWy0C/K2eWngo3GYEQP5Iu7u7tTDsXixP+4jG4Q/eKzmOlPS9p25/1MfR92r5oqvFb/2gbm43EVjXlJf7XkMFVWROBAoI0OMvAMIiEQgRiPf8LzV7pz7TkrNG4S3VW6/c1WA/UJnz5eU9lFvpQidr79s5SUGONlaOUcvBF75gn/EP58BjIlBEgMRfRIRlIlBAIJb8j/+nd9bH9sUbXx27d51bPdVH7sdUWl+Qz9/nfl20MA0WiUCGAIk/g4IHRKAaAZB/zJ9zfPxt77RGxPcWB9z59+qj2xzuOUT2rShHE0iK9Vr28jK71iL0JMHrZyICNQiQ+GvAoYgIhAhozD+sKx7vPeOZZveiVznPXtzz8Ld84K2HLxTK5a4etuvkzhZ01a4c+zbmUT7dU1wblhcIkPgXWPCICNQiAI8/hvxnL39VznN3Prz68c57Dz179ee9xPn72Z1BrtbfC0gdvH4xXCGVL3O9v3YuFG43AiT+7V5/zr4hArEhn92LX2kD8/DAkeCVZ7kc2zJyV7tCDn2nnLVDw6x9YE/r4fE/ypCPhZdvSwiQ+JcgYQURqEcg1uvXp3ysX249ePjnSM5Pz+W1ctG07n1JO7Vobyvycn7IW7+O2ywl8W/z6nPurRBAyCfmg97Zxa+0nrx11q0n7uPx4qqHHvyyPO/B5+WLmL71+OH1+5crB/JH6PG3WuAtaETi34JF5hT7RyDG69879TSzLy/nh7tIv43Nq8cvXryvtTV6Z+DqMGZtGXjyaCMK0FmW+xpr11mZv4ePdlqo+JZDgMSfg4MFIhCHQLTX//JXWoPwytVDtzlq1VPHYZnc1kOpTh7YcapOH40geg8/5LVA8C2HAIk/BwcLRCAegVivH56/9dADT9z5+uKhw333nj1ceVevuZcv1avcaZe2sz16Ock/flG3RJPEvyULzWn2j0C8139JFodv9ly+8/Rdm0XsXmP6tl6mVSsXx3+fxN//4k/cIol/4gvI4a8XgViv38X21bd3Hnvu3Xr1K+R1OpCVyX3d/N0M+az3TBlX7yT+ca0HRzMxBGK9/t2XX+Jj726C8NKRqmP7qgcl1ROv31Uvt4MAelVyeP18rt+jw4zEz3OACHREIMbrn11yidk7zf16J7pbxPZtqSS2X1bv7hHsfYH9aCAo25i+u2NwclGw3v7iM4T5e+6FUSYiYEj8PAmIQEcE4PVHkf/LXxHE+qVTcfdtvN4dOo8dXrt/Ofkitq+ev4vpoxF0F3JtpzH/Jfnn5bn+R77YcbZsvgkIkPg3YRU5h7UjEEP8e6edavZPK3uuHz66JO+ha+xfPXeN3duyvTdQTx9N5LjQbtHetwjk8/fcs3asOID1I0DiX/8acAQbgkAM+c9e8Qo7W3jn6sHbHLXq6eMwJ4+J7aNBsZ016exaqRx+/otmfjfJ38OxtRmJf2uXnhPvGwEQP8I+dQle/+ySV7iYvvfE1ZO3uXP96+VL7ZwF1345to/xWLP+bsEg1s+QT90ybbyMxL/xS8wJDolAjNe/K8S/d9ozfCw/jNHrMXI9dl68i9+HdXIsE3P1mle1W5bvX3btkLCwr5EhQOIf2YJwONNGIPqDXuv1O09dY/K5PIvLl+lI3Up5qBNYDtrNX3PdtMHm6FsjQOJvDR0bEoFyBGJDPnunnmq9dlixMX3NxZW3ZeS+iyh52A4Ni+0zubtbMIj338V4v4d4qzIS/1YtNyc7FAIxIZ/jt93qYvkyKHHE8e7Lmrsa+75SXhbbh53Arvf2w37Mu+8z5q57rRbftgcBEv/2rDVnOiACsSGf47e9bTlOL+PMPH7rpRdi+5nn7vT0uX20CV8ouDI8fD1e6Kh8/+77DLx/pu1BgMS/PWvNmQ6MQGzIZ/bKly98/SwGv/DgFxF68dUhL3juCzlkXsf6+jnJUh/q+eOuYH7Z9fKkz5cGRojdrQsBEv+6kGe/W4FATMhn9qqX26d8bExevHYXm4f77rzz0tyjB49+IXdevWvvFPJyq+r0S9rPLxXy/zzJ30Oz0RmJf6OXl5NbNwKxIR94/XDX8Q/J5fKOYlYfyr2Wc/EX+rZ9aMXeAnh5YDfTy8vnryb5A9lNTyT+TV9hzm/tCESFfJ75DLN7ycU+Ju88/fyz/IjSa73m8PCXY/e5Omnl4vzaBnnYblm+L57//M771o4bB5AOARJ/OmxpmQhkCESFfC692Ow/81TrnTvfXt/h9OtxWW5vCkp0nIfvWpTZKNQFfZi77if5Z6u3eQck/s1bU85ohAhEh3xedZEdvY3Ny5HNw1i/9ft9fancTT7fTrx6VMOOE5fY9XKvYNvfSfL3cG1cRuLfuCXlhMaKQGzIZ0/CPvDw1V9f5O7IvpfK4dsjSQ659+BdK7Xn5dDM5NAI2qG9l5s7HzDzp/2CeP/3Ww2+bQYCJP7NWEfOYiIIRIV8xOtHHN566JLDCbdFVNmXi9E7udYhD+P14bHqBHVLNrW91ynK3yXev7yYNgMBEv9mrCNnMREEYkI+8PgR67eeuvfKnQ+ef3dyOO75enjvi5oqeaCz1B6tl+XW+3/qv+IGMJFzrW6YJP46dCgjAgkQiAn5zC690Lrp8PCtZ+/HYcuo0nrNQ7m9KwjaodxI7rz+rN9i+3d9wOw/5QWyAUgY6A7eBXhoJ5WdMKnRcrBEYEMQAPkfO3ascjbw+m0M3jM2PHDrg7sD65H7GlePgiRx3l2etUOF8+AhsGJ527Fy1OOgpVw2AKT5nR805kp8+1jS1e4PzeCQabwIkPjHuzYc2QYjgJDPqqRe/ULPszko1vG1d+WDehVolW2sBVCzHM99e6sLhUCuhzbPFURP22kTlUu9bAK2dIdsBlLcea6Eqk6XzQuVKJ+OMsJXTGNAgMQ/hlXgGLYSAZD/3t5e6dwPfuHLwpfCmKUJTOoZdUmONpB7gXJzplcnR7vALlRz7WPkvqO/+htj8PJpbuSuQAeFDeG58kLNGX6DsCW+DYUAiX8opNkPESggUEb8IPxD9zxoDnwBpKmBGOFfIWCEcWwubKz0nOWQS4usbFsH5So56jO7gT7aiyzfb7lcOy7tHwPyKZN/7m/MXF4o79/uNoSdM2QjkA1hB5sCjpmSIkDiTwovjROBOASU8JG7BFoMYvAo2powL5F7onXqi3uG5di/s5bVe+M7CAPZfn0/Yb9yXCW32mJsx8anlvt1dw7BeJ15S/72TTYC87kvi9qHnOTqi8zOtRd7LWZ9I0Di7xtR2iMCKxBAeGd3d9eGeZTwMw8fxA2ytQSu7rLmIiiVBx2qqq3Sgmdv1GlV1kQNepmVq5IOxLdH9ZLcG9J6zW11oV97C+H1w0ztZnJpd/uHzFxeO9e4bzJzEwgB635M4u+OIS0QgSgEioR/koR0ih5+oxj7Uq9CmMq1loCLCl6ILJOjoI28frRcFSUvmHCWYuRBn/5wkUn72x+0xbl0sHPG0xkGWoDT6YjE3wk+NiYCqxGAd48XEogehH/Afngr/CsEvIixF2L3IsvLHV8HdOpj/iX10pfVg305Bs9nOexqOZNbanX1pfKy9u55/8xu2A/sisCOP6wP+7XyoN9Qr9j+nT4EJHcAO9e5uwBRZ2qJAIm/JXBsRgTqEMh591+UD2yF6A8L4S88bbQWLxasaY/cm32oBvWempflaAC5S5lciBLJ1QdyX7lk12p7fWm0FLtfkjtDWb+h3I4HAwj69YquJqjXdlFytMvbxR3AHHcB11zIDcBj2SYj8bdBjW2IQAUCOcKHd/9+8e6F+JEsN3uCds21ICyoh0tKqKiSgz0LcmtYjXl2RdFWab3mdXatoYpxebtQgaksNp9V4MClXL/BeCvlKkAujZfae/k7XQiI3n+IV/wxiT8eK2oSgUoEQPjf+ewjZn9v3z6OeZKQ/nLyhKn8FypYkZeH9SB9vMpEVq8gt0SpBiBDRdC+KLe3At64qmvzsB3qouRQ8va0DfKs34JcdaxcOwja18nf+WExK3cF18nPWzA1QoDE3wguKm8dAo980U55rn+LNvyD5HKMGPb+s55hn7s/LCSEKP0iQCF8J/KQzsBv6iDb+jK56CzH9kvsioFS+9rejsYO377lxhH0qxp2XKjP2bUjdu3lcHlc2trPK2u/GK9qVM1XhunsY7z+GBU63oXc9e+0vfwd4vnLY6A7D96i1cwjECDxR4BElQ1GQIldSNwSjRK7rQcDytwzBlIctMLFrg/aUA7qoIrcvbuyLbqHddzhsjxX7zrMYvciQ1qy67qzvTn5QsseqdwSKQreLoSSMvv+uX1XG9RbJSnXymVUlql9Z6FdjEw6qZT7cS1auhHYsu48AY7Z+LzdcDMwn/2KmV/4ZiH/t6oa8xUIkPhXAETxZiEwv/seYwJyt/wDMpEDy3Guwk4aJGSfs4EA9a7C1loF++YbBu2cMoS+HQ7r5FV2tf2SHBU+VdnNyUMlHBfbq1w78nJUW1EoV8OQSb2KMoC8XNtl8qAdDlGvtz7heKxMhFYOPT2AwKes32C8n5HQ2gVC/h8m+StMdTmJvw4dyjYCAcTfbXr0S+bA3fcFc1p45o57AkL0WuppW5IqEpTVQRt5aVPwVJZQHxAXdKLlUI5p7zsr2lXmhBmkTO7tulr3jqoouSqq0aKRQF6mkoEk7aLlUCxR1qrwjgSe/20fNjvXXxAOjMclCJD4S0Bh1fQQyMhdho5jLWuOGR367OfNIWE4kDmcRo0ogEPAe7k8J7d+f428or1YzdmVQm2/XeWYB8Zd7Decn5UXxot+df5t5NqvAOj6D+yFdjvJF58Z5NYptI9xgPjPfJoxZ8qXvZgqESDxV0JDwZQQqPtte50HCF89+CzG7YUgE1Bm9ty4q5CyS/Fyr6/twaiSsvZa7ys1hu6rF7H3KLmMF0xrx40GcqT2bb/BfJy4RO4EWf/WiNjJ2hfloimdODl69nLt19ag30I7W1EyHtVbKYdCSb/F9jLu+W0fMTsfIfF7aEozEn8pLKycEgL6rdhVY8bz9JYnrX8LbSETS3DaUguaV8mhD50qOUjKJzVli1rwchRtVViP48Dukjy0K8I6eRZDRxtv1zevbafqTklKxflov6gvsZv1W5RrO7RBCuzasspRKNjNyYvtrNC1QbPPfMXsfFZi/vT6FZilnH96cQkSVmwqArNL5ev+xX/CIct/szbUKpODsoJ/8IBz/xylZXVLckgKNmz7oK6yjdcplQd2c/LArvYLeaYDeYndTF5hF9gV/4VtquShjvardiDLtSvrIxivtgtzaT+/7aNimakKARJ/FTKs3zgE9p75dIMXkvX85c3lzr9c1Kvc1weOaKYPz9LWOyGKSMtyVHo7mbyi30we2HHN/Z1KUI8OvV17iDdUab3mqCurXyW3xpw9fFIR2sUxmtv+/fHcV9qsKEcZDXyetUdVUBcl1zaSIy211zo85cNUiQCJvxIaCqaCQMyfMdS5wOtXH3KROw/Slq276fxYtAl83UU777GulrvWi3683ax9IEe/3mt1dtW6awPvfLW8fLzWAtrb/6Edb1v7teNa9Gut2TqnZ2P72Si8Hd8GGk6+sJm1t/0u7KqGrUH7Qr85Ocbmx2Dt+bFCx5XRrWtRlM9f9ttm/gcfsaEf9MW0QIAx/gUWPNoCBPae9XRz/PZbzIlX3QCesF5oftpwTUXgM5u7N1dv3dI6ubeJ9lk7W3Dt9TAnh65PqM/Gpcqo8CknR51WBPKsXzVUaJ+T+3bWlNiyXdo3qQna5eRBGz3UdjYvtLNt5c0OBwpFudRptb01KMizW4RCvc6jSg6v/y/lcx3ZGHBrsPP6883OG87XEW91To9/q5d/MyYPj//w4cPRkwH5f/sz/8V859XyC4+5f6Ak/897kVnZ1q+SQ9vroH2ZDVHIbGZy1AXtVGOlPLAVtvHt9p/zNK1d5JBldoPxLjQi5MF4td2SzcLYrLxQp22Rx8jrdCArkwd15raPmfk/O9fMf5/xfxJ/NF1QccwIgPibkD/msivE/9hn/lTyC+wLddbhhAPqvUg4oki2XnMrR8H+hzho5+vRsE5uG/l2Ze2byO14XGfZ+KX97LXnmd3XvtSNQ8ejOexLyvTDemcqUu6UMzu21Yp52X7RYUX/Wu9z2Hb28WmDS1l/XpaVq+Sot7ry9gcfNfs/tt0bAEM9/kRhNn0ElPhjH+/UGc8uc7/uqDn+WMqBL8gjgaKAfJF2zMFH3YeG+8/2z4l7Jjro9RbP5UPgPGq0hy28LeSokLIVhHJb6/SX5GLPMlxgV9v7b7D6om1/8NGvmt3LX2pm8jp098fM4Xd/YmEX3UiyluAVF+06cSB3FaH9fPuC3CrCegkOogrv3PVeJc+sO8P+3fUvdu0XCTDunNiNF+9+oEvyrF9p9wdyByDZzhteljeyBSUS/xYs8jZNUT1/kH/4Dd4mGCAUhFfTdOg9HzGH3isfJmZ+KSw4YrO2cGiJyr5JAezk5Vq1JLctF+3q5Lnn54054e6Pm93XiccvCeSvG8Chuz/hjfoMpK/963hUQ/uzeTDeSrkKkKtdNe7ZOFNRude1eGTCoH1JO1WTse+f/hRbml31Yq3N8gN/9XU5lg1b8gN/9Q1fr/2K3bd/1Ow8T77p+7ynZm224YDEvw2rvIVzVO8fU9c7gLYbQSx8s9eeL+GV8w02gMPv1TgySKtAXCgqF1qZVBRUXJ+q2F5+0mtuMsffe5MzJ++LDeDj5nBxA7Dd4Q0vn4JDWx3+Ng5UcnIp+DsHbZ7J7XyhjIOgkR4W7XoDu1edm5nCwf5zfzZX3js9X84JpaDymXGbAs6LQ3f8kRvGH3zcqs9//2Nm5+M3F5tudJnEv9HLy8kBgXATUET0N3w01/pijg+OoaObR1FeVg43AMgPvedj8h781oxwn9Kf5UlvJKRF1CMq0VV+4PNflTDPx4Xwz/O9uAxlvA7d9XGRuzuA7IYBKtKxBmq0oZVnA3f0jaImhIvseP1EdD6ZXA7K5pOXawfO/sHPf90cv+/fqUrn3N4JXvEic+TIEWPe+DIzF49//vsfD7eizn1MwQCJfwqrxDH2joA++695XQf61BBIo+kGALvuLkBCCnLsNoGFz4u6RQLVupTFqG2NUmid3LfLtXf66tkXyR+qsyvOkx5cJB562r8doQxCY//ebBY7t2UrV4nL3bj9eEvlkMnL7xiL/rR9Xn5QwjOH3/VJA89f1wq5vvK9L0rh3V1xzSDDbzuB/HeE/PHatkTi37YV53xbIxB+flAkk1VGZ6915LLr80PvdqEgfAB7QF6OCNV/DujQOsDypqLsXsH3mJMH7axY282dZ3/XJ8TLf4kl+3C8u1e8JCseEp0swT3P+s1qFweZvKRfaKFtdguwaGYFkGGXWCmXzyokNIPXgY/9jsTiJR4fkcKNQe/4dM2Q68agm0mEyY1SIfFv1HJyMkMgoBuAkofmTfqevc5tBDPf6OAjQv6S7CYg+cFHv2bLWm8L4NdiLLzIuZmiPVjcWlgC37Fx/cN3/6E87YMNYEH40EYZL5D/4bv+0BuQzPaLYmlnNQSubUraZVU4yApo4JKtwpvdIWzd/KU3GvN68dBbPoWjGwBy3QR8b1uXkfi3bsk54b4QCL1K2FQy0bxJP3vPcU+VaK4bgtrQDeCA3yBcvTytYssL4sRjkgcOBF/P8YSvdvb398XJnku7r5mDr36LvQPYe657KkZ1sg3gzk/IJvCH9pFJpV846CEd23qprJNbu6KDsZW1d/LF/lG0n8nlQL981Zb8rS15001Ay9uWk/i3bcU532QIKJloHt4JtNkMwoHqhqC5ymYm/6Gt1mMMOg6tQ37QFzCeVWOaXYk7ArlLAPnbdv7TgCB2r1vOKrn7cMB95gBT+XZaUSaHprzsA/n4zEGK8hSOexLnLVv3GKbMvpcUuAa92KMRIkAEPAK4I1ACPvnkkw1e+EARL60v3jX0BR5I/Vvf+lYluYf91/U5u/LXzWNfflBCQ79u7xTgseOOwb1wHL7cUz0LnVAWtJMO8+203Mzu/ktutE/l1I2fsnIE6PGX48JaIpAEAf0wUfOyTnCnoCk81jrN62ShfWwCZd6/1kV5/1f9upnJ69C7/lDuAD7phlD24ay68tZLlwIYPvPv84e5ep2UbV/STuWZXV8hj2LaB0/f6L6olqnxoBYBEn8tPBQSgeERCEk7PE41EvX+YzcAjOPQnZ90sX/ldcnB2ShqWvncvyjafcE3WLR3Vmw5MJjJbZ3/ngGO3y6hH3ntCPnjxbQaAYZ6VmNEDSKwFQhgA9AwVN2E4fl/+6sfMrMrz7Uf2CIyD1JGHD/856oWNdgawn+2LA3dr2rCQijVcpncaWb6vl/zdvH+ZQNgWo0AiX81RtQgAluDAO4w9A5g1aTxpardK+RXLsVth+Pt4vZhnD+sC3XCehz72H5mI5BndRXtpWfXr29z68fN/hPPM/NbuQHUrR+Jvw4dyojAliIA8seH0cjr0uzqc823v/ZB5/2LovXZC55/vi7z0/P+fdamTC51mTx/V+BKkOd1zNs/YeZPfKlsAO73eOrmsI0yEv82rjrnTAQiEYj1/rEB7F75YhfjF/ffhuGlj9AbRyGsxxDy8ny7cvnC8y+XOxuwi85A/Ps/KhvA27gBAC9NJH5FgjkRIAKlCDTx/h+//83WBiL0Rd9dyza3CnnvXVs4ucb4FzoqtzVw8fP3DL7sa90tQKZh7wB+9HxuAABREonf4cB3IkAEViAQ4/3jZ5Af+/oDzvuHh++9/NCzz38HoBCjh5eu7bJj1IUvbzdXp+00r7B7q4SA6P2T+Fec6xQTASIQIBDt/V/zYjO7+sU+Ng8vXF5LcXpfZ+u9p5756PDrfd1Su8VdQLnderm5VX6H6C/cbyEFU9uqQ3r8W7XcnCwR6AeBGO8fxH/8gRuct45u1UPHoRxnZXj4kEsKPXsr1zorLcpdO9umVG67WPSvtqSz/Re/ZavJn8TvTxhmRIAINEMgxvvfO/1nzLf/9n7r/Vv/XVx09cfxKE74L5P7+kDTev9ZOVqetbD9ZCXffg7Pf0sTiX9LF57TJgJ9IRDl/V/za2b36l8NPPqKGLzeFSCXAYZ3AO7zgqDdkhxtAnlmC3W+PpT/t6+Z+e8Ff3+gL0AmYIfEP4FF4hCJwNgRiCX/mWwA+bh85ocH3r/UBXcG4V1BdlwqD2zBq/eefdZGQFwcO7l5m/zu0BbG+0n8Y7+iOD4iMBEEYkI/IH71/OHSW69e5gfPHin08KvlzntfkmcevrdXtB/KbWe+P5D/lqWoH2m76aabksHSt+0+7Z199tkGrz5Tn+Mrjqsv25/+9KfNOeecUzTfSxm33H0ljBOvbUtl5+XYsHj+859v8CpLs2t/Tarld/5v/xPrgeMY/5F85gpWivOlgTx3esG/DxLMFOVQ+Iuvm78/9TJz/4t/LFBud1jki2K5ndX+W2HaGRQgjqNHjy71glumVOlTn/qU6QscnPx9E1bfRNX3+HRdgCGw7CNhjKkIFefXFDaoPnBMZaNsrVOc+13H/+Y3v9nccMMNlWYOfu4b5sSLfi+QC89Yx6CKbyAP1JcOq+SBvdL2rt1bjn3Z3CyvlEn5FWuI11Dp5ptvzl13B4bquKqfVART1V/T+r5ICv0C/FRJT6iu9rEeKdckJQZd5872/SLw1re+1dxyyy2VRvfOkCd+/u4es3/Gz1rfHvRs4/JLsfkwMu91fItQ4o7L5FIH2/pvyT7aGHP0u55hzj70I5Xj7UOA8x8vOFeYK/ilT46JHWMU8fdFKmWDevjhh8uqW9WRVFrBlms0BIbrONFzk2RhMARA/r/0S79U29/s2hc5R1+88SzG71tkZXjqkCPzOVRCudZr3kZ+40lPR7PBkm4EQ28CUcSf8pakL+8ylafaFxGmGh/OUKxPH2uUcozhldTnZh/a5fE4EfjzP/9zc8oppxjkZWnvjJ82jz/4myJSn9x56LYM79x76GirGsizkpcHNVZvWZ5rtWgfWIXHf/TIM9DV4Ek3gSHuAtZO/EB37B7g2MfX1x1ZX5vcqitmqA1m1TgoHxYBeP5VoR+Q//EPvWnZgxf3PfPqZbjuuOK5fNwJ2Fco1zrkaiuQ+7uHRTtjbjxJQj4npA351CGvG0CqzwPRdxTxQ7EvcoGtFGko0mo79rGPD/MCIQ+VhuxrqDmxn9UI1MX9986E5/+mwP/OfPbM6w89/pyHH9wZlOpUycVIph/cOTx0yi+unkxiDVwjGgLqu6to4u+749BeV1IEQCmJpOv4MNdU4+szzBOuSerjPjBNPUbaT4MAyL8y7CPkv3vtr1jPHb07T9x561mM39fn5ai0/7PPAdB40b5MHti3xnzZqs7NQ6e8ALVrT7hW+o46RBN/3x0X0Uxtv9hf03KX8aUifczhrLPOajqVUv11EHEXTEsnwcrJIICwTxX5z65/kZld9yKZi/ri7mhRlnrxzhdlHCGpvpdnHjzqy+S5Fk5DHvTfwUtKZx/6YYn3D/thrx1EyVvf5B9N/BjLWMM96yCtkrWprEo5vil9qFsEKCUuxb5YHh8C9eT/KwZx/9BjdzH6vBcfJw/bhMfq4e/LXYK+IPfHkt940lMl3v/DowCvT/JvRPwpZ9+WBOBNp/Sodc5tx4f2qcbXV5iny9wUn7Y5vf62yG1GuzryP/7hN4r3LV55znN33js88sy/j5YHbWx72Hbe/Y5Qv+trOX/oCedY738MiONa7YNPGhF/6ou0jwmlXJw28x/7nIDXFMaYcl1pe70IrCJ/69XLECWEn7sDQIX4566uUq5evW9vWziPXn6VX0qFl3r7Uh/Kbzzys1IeR+rjm/WNiB/TThnuaUNA6/RWY06DlOPrYy3abGYx847VSYlP7Biot34EKh/zlA97Z9e/MO/dew8fo868/vAok4d3B9D13r2N49vGeS8fVfYOw+lJg6x89qEfkm/2PgVdjiJ1vW4aE3/KWTf9Yg82ijabRds5dAW7bb9l7foK8zTFvGwsXevWvfl0HT/bd0cAH/RWkf/sesT7n+y9/SBGL926GD/qAs8fdwLZ3YDUZ14+jsTDt7re07cevq9X7x/y7Bh6rnzjkZ+RkM8Pdp9sDxa6cl9j4k95kQ5J4m2xbzL/rovTdoyx7cYyvjFtqLHYUa9/BOoe85y9Hl5/4OF7r37Z44cOPHV47YjX17xCeXisbbQOuT9+6Ht+bjTk3+W6aUz8WO4+QgywU5aaEGuXiZf1PaW6PtZgTPg1WfcprRPH2gwBxPvL0t6ZTzZ4WU/ee/TCxfifvVxMXr11SBbeOrz8XNm3st689/phyf1z7UrLYufG7/rpsiEOXtfFcWtF/IPPsKTDLpMuMRdd1YQsm+hGD0AU+wjzrAu/qnmOIeRUNTbWD4tAFfkf/+gbxPNexO2d/+89fBA5YvKSa5zelq3nL/WSL8v1bsDL0TbXvkQuds4+/AMS7x8H+bddmVbEn9I7S0WWbQEqaxc7f5DrWNPYcB7bRjTWdduGcdXF+3ev/2VQvIvTaxxec30iB7keqwy51oVyrSvqab3mBfmN3/WTEvL5gbUvR9vruBXxY7Z9hBqqUIshzLYTruqz7/qYObTtsw/sU46v7bzGOKa2c2G7bghUxftnb3ih2X/eTy1i99ZDV888zJ0Xr7F5vQtYxPxxAxDoy3CdLMjV+0deIn/oe88Q8v/+bhPt2LrtNXNCx36TNMdkEM6oSpC3nXCVzSbXlGL1AAAT/UlEQVT12HRWef0pN6Y6bGLmsU7s6sYXg2vYHjj0sQmqTYSbUmHT5zh1vEPkwLivv+zWdLx7e3vm2LFjS83weOeBz3zDkjFi8i4t54juZHLE+MHegT6KVm6blrRXOZqJptUP7KB8z1NfYO7/1fwz/inPIzuUwhvO2aac0Jr4QXypyG0K8V7MfxX5F9anl2LTBS7rNNW6lfXVtK4prn2uAWylIv4+x9kU06nqHzx40OCFDSBMe897ssFTPodv+1MXu7fCZWJHNbx6m3yM3346HGwAmRx6jtlzG0RODntqx9t90v/6f+bod/+k2XnTxa6f4B1rPvQmEHRfe9g61AOrqbyYVRffmIkLuGD8q+YAvTapK+Ypx9ZmPsU2Y1/b4nhZTovAkSNHSjuYvV7+alcYd9cYvsbkxTPPy6WcyRDvj5RrG7Hm7Hk72h75rQ+Y+dseWBoniB93S12v2SXDPVR0Iv4e+q80UeUhjYW41kVQXT3+dY27cqFLBFVrX6LKqi1A4PDhw6WzfPyj8tv94qUvYvM4dg57VictS3XEc1/oltiAPGsLm15f22Vyp2du/YAxf/nXpePE+dz1ui017CvbOJmdiH/bL9Cq+aci1z5OnjYnSd1JRxkRSI0AiB8hn2LaO/Nn3LP93hsPf1sH3vnKcubNuyd+KvW9XqVc7zzE869KY/P6o4i/jiz6IKMysKrIs6q+zMa66urw6jKmridP1UbVZUwp2k5hjVPMmzarEajy+o9/5Lecx4+moTcOd129dORlctX3erY9zPj6JXuhl29vB/J3AeYvvyhhn/vQ01JKxZNLHUVWnBCjVzdo/CGQVEQHogrJCv2k6isGh6IOCCocH+Qpx1e3DsWxlZWn8KG5jhu4FrFVGfNhEUh5TsfOBOc+yH93d3epyfEP/5Y58fy3Cs8HH+RaLV8WYnfFQI5Dvzlgg3ByvMtxZgdFKQvh22QzyFGSN7S3cl9GZolfNoTfeBVKuYQ5jAFLDCqK+HOjLxRwcW6zh1YkqFRYdCV9nHBjOekKp1BpsWxTLVVkZVIExnDe4E5XiR9P+Cw95XPmz8oveL7YHH7HJwULy8ouLyNmlYPM6+RFPS0X8zI7b7/PmOefJq9n5tZmTNdfVKgnN/qSQldSKjFpq4okWixXtVtnfarF7RrmSYVdyme86fGv80weZ99VIZ/Z9edKvP9nhJYlXm9f2AD0GHlJOYzxl8m9HWvP3gU4O3n7/imfrD16Er233ztOAP2oeiH+vv7uaxlSSqRj8DzKxhcSqo61TK9rXZfNNRV2GBNeXTelKmymFJqqmgPr+0UAH/JWkv915/oneMSZ9+GZ7MkdELN4+O4JHy/XsgzRPq+PMo5tveq7zwesPStfxPWdvaDs7aC9+cwXjHn7++XApZROTBtu6IX4U04qJZnqonTNdf7hJtDVZti+zcKG7VONK+WGj/Fj7RXbcD483m4EQPzlT/k8xexee67zuHPevvf84eHnvHxfr7qhLDwuykM7VXpSvy/EP7/1fXaxUl2DMN6GH3oh/radW0RWvKnXlxK4FUNYu7irR51q89QTjuS89lNk6waAL3aVkf/s+vPM7LqXWA/ePZ0Dj7zwkq3BPZcf5KEO5FoOj7VO8zoZdERufv995vVnnJVsffQabNpBb8SfyvsDaemr6eSG0semlHKMbRcX88e4UiSMKRxX182paozbvOFXYcJ6h0B1yOc8iffjzyQi/u5j7iBhlIN/K8u27aJFrb79DMDpqp7mL/of/5hsydrybm/EH5JA37OcwsWfaoxdcU01riLRp/T6U9ru+1ylveEQqIv3H3/wZkv+znPXGH7gyYtHDmK2cuTycs/tL3SycijXNmhf8PxtObCj8rNPPMU89INpfr+/7bUxCeJP5bX2eYqmGmORYJuMGWNKNa6yDanLWOvmlWrzquuTsmkgUBXvx+hn175UaDiI64exeY3bh3kor4rdq71Yudc76/B3m6OnPLFXUMuuwdgOeiN+dJjqwo+dzCbqdVncVITZZUxt16itZ9O2P7abDgKI9//DP/zD0oD3zniaefzB3/XxejytA2/eef948MZ5+0F9KIceyqqn5WJeJ7d3Bws7R5/wo+bsE09eGmfbirZhHvTXK/GvgxDagLYN40zp7Vdt8CTnNmcj2/SBwEc/+tFSMyD/3WvOt56/i7njSR78w2/5uLyyHHw+UKofysWzr7Tn9SC/8ZQfKR1n00pcg12ut60kfoBWRV5NFyClfpcxpgzx1G2cXcZch2Wqu5e6PimbFgJVf6t3dt0FEva5QFzvRfwe3jyI2N0FwLMPYvZeL9OH3io57KFdYDNrr/ZEdvaJ320e+qGfWDuwvRI/ZpPqwu8LKZBWHXH11c+67ehjsH2Po8vtZdexdPFwuvbN9uNHAH+rt5L8r71QPP8Lck/52Pi/kLF7tt/noRdv4//BXQHi9SrXHO1Vz8bzV9s56/ARc/QJP9waUHBs12uhd+IfO6nqxtQVuNarFtmwywaVMsyzan1T4kqvP/Lk2WK1uj/UPrv2IvH8L1zE+Yvxei0Lfs5zD3LrtUvZevU+h77Qvn7TtzSvkB99wg9Z77/pUvVB+uhz64g/BFo3gbBuLMddxpaKIGM3oy5jX4V/yo1lVd+UTwMB/KH2W265pXSws2svNrtXX2i9dPtbPv6pGxfDd9/k1d/40dx59Ivf99d6E7QtbR/K5Thr5+8QbnzCD5aOsaoS119f53/vxI9Bp7zwq0CJqS8S1yrvNcbm2HRSevux69rXyVmGbaoQVllfrJsuAvXk/3Lx/PE3cvPeuovJS7X37nNyQKH1WQ7P33v9Vu7KC71ALnpye4D/LhcbZ5/0XeahH/5x1KxM4Ko+fxAxCfGPlVCLxDXWcWJcbceWytvHmdlkTEWsV57ZkQrY2FJuLJHDoNoEEKgl/2teITH/i63nb+P21jv38XmpzeL28M41no9c9azX7u4QoG31IbMv1SuRW3teT47POnySxPt/oBZNXHd9kj466/x7/GUjbkIQZe1T1ZWNCwSVkizbzKULaaZ8mqeJbXrmbVZ+fG1SkM6QswT5I91www1L3c6uucTWHb7jfsnxlI8k8cRdwlM6OArKVhCUIZfNoFJvlRz2pL+j3/v95uHHv20+/fgx20P4Bi5I4egkIX4MfGyEWkb6GCfqx0b8GFeb1ISYm9qH7ZT2m4wH65XiYmgyBupOB4HV5D83h+64T/gbnjuSe7dlHPrNoFRe1A/L9k4BFYG9UG4lIhO9G7/n+8yn/3FB/OAlcCjyFOlACqNjtFnlRQPYVOC2waHLeDZlA4vBjcQfgxJ1FIH6sM8rzezqS6zn7p7rl0Mle8k1jg/PvlQunWBTWJKrfigXPX36x30W4Mpnn3SSeehHnmi5CGEdvFLyUjLiH9uFWQfiOp9N1xNT87ZjGZNHrnNJmW/TJpcSx22yXU/+rzK7V13iY/gam/e5jeuXHOfi/D5uH+qWyQsxfn1iCPlZJ55oLvnmPyUlfF3vZMSPDqq8bO18qLyO9DGGMW1Sq8Zahdk2EuGY1q1qXVg/LgTqyf9S8/gHbndevQzbeffwyBdevz2G114mD/VUrrl6/8W8IL/kn75p7rv8cqlNm5ISf9qhx1uP2YDaEm78KFZrYgxtxrFt3v5qJKlBBKoRqCP/vdOfaR77+l/Is/6vEgOI+es//S0exOtR58v4cDcsa31Mbj8DULuL/J//8R8l/zwtKfGPxSOLIdO2IZbq02s4yVg+dB1uxq6nbbzLGRrjTe2vjvwx59nVl5nZVa+2sXv1/DUmn+VC+JDZshxn9dbzdxuClUOvTB7qqVzys48cNt9zxWuTQp/sqR4dNbztdV6gMaSPsWKTWuc4MYaYOxPoFdO6x10cz5BlrBteTGkQgFNxzjnnpDHewioctL7WG+SPn3j4sz/7s9KR7Ar54w7g0Lveaw781SP2w9vSxzfB8SBuzSWc45Ijfy3ZtpbgpQYibBqukVOxdw+omptTjz1mPvVrv2LO+eM/dbKe35MTf8/jbWyuCZmuc5PCBhW7SYUgbKu3rxhg0+uLCNQm8zwCYzrH+r4zB/Gfcsop5s1vfnPps/57pz9byP/ZQv7vNodlA7DBfSXrHMHnMbOEDrkleMhwECR7pyDlJbnqief/14+aL919pznt8iuDhv0cJg31YIjrvCjbkmk/0A5jZZu9fUV4neeYjoH5tBFYGfq56nXmsa89Ik/+vEa4WmP8/kmesCyxfX1SR3+bp7JceAKoVP8dtyYBNjnxY9RNvO4ks4w0uk4CaYMRPLExeWORMPeuxs2vd0i30uAq8gcos6suN9+RTQDP4sNd1/i/LduYvdwU+NzJcZPgngJynwEEctUP5WLVPefvDk7DN3pf/EJ01msahPh7HXEDY23ItE2bBkMqVW17Z0LCW8C5zk17MQoeTR0BkD9CP1W/7on57Qr5P/bVL5ndK18nr8vds//We5c7gZwX7+4M1OPP/SaQvTNQuc/tUz6wgZdsGz7/+S89Yv7++qt7hXYQ4l/HRdmWTHtFN7ExevuJAab5rUUgzvu/Uu4ArjTf/upXJL9i8QSQoGa9fOvR465AvXx/h2A9/OBYPX9RxI2Eevw7QflJ//kTxnz2L3tbj0GIH6Md2pNu2986Nqk2YyXp568B3v3k8WCpOwLq/R8+fHilsdmVV5nHvvJVc/ze++Qu4EqhdnxI6z4DcLF7X9Z65NbDFzV3uLL896/vz+sfjPhXIjcihTZE3GX4bZ7mIdEtI76OTXt5FKzZNARA/CeffLKJ2QD2nnu6mV15tfn2V75hZldcbY/hxrvn/TUXz9679k3yJ/3f/23+Z08hn8GIf8iLsmuYpw0Rtz3Z2/QFbx8vpjwC3AzzeLDULwIgfn3FWN698hoh/mvNY3/z383u5VdnMXuN3bfJf/xP+gn5DPocPzzpIS7Orh57GzKOORHKdNqMNTWGKeefesOCgzGkk1G2pqzbXATU60e+u7tr9vb27GvVjGdXXiebwHXm0J3vtKqH75IcXj8iQA3z+YXnmp0HP2nMmc9f1W2lfFDirxxFz4I+iGuoTarpWEGcKckT4+n7r/2EywtSTr1xhf3xmAikQkA3AdiP3QRwB4C0/9wzzIHPf84cwgYA8pckn/G6w4jyP9387833/deHXMMW74OFejC2ITyxpkRahVlfdqrso75NHylJH2NqcweCdrEp9TnATSV2JajXJwLYBI4cOdLgs4AzbBjo21/+O/OdK67Nxfzt0zzBZwBl5e/9268Zc9utracwKPFjlG3Irsns+iIujHOMY01JbEPMGWvZ1xpVnRepN5eqfllPBIAANgF8GIyNILwrqEJn134O8HfyOcA1uef3V30GsI9v9bZ8xHNw4u/7tzaKYPZJ1mMb69S9fV2rPtdIbYZ5ys0x7IfHRKAOgYMHD2abQMwGgDAQ7gBm/g4gfI7fPdu//Jz/NyXk0yYNTvwpvbG+CWVsY01NaH3jV3VCop/UfaVcu6p5sZ4IVCGgdwHIV20C7kkgfwcAg4j9I+5f8tz/93zja2Z+wblV3VbWRxF/355mqos+RQhhLGPFGvS9DuFZkWqeYR/hceq7qdSbZDgXHhOBWASU+GO+F1C8A8AHAaXP/X/uM2beMN4fRfx9/x53qos+BXmNZaypiSzFpll3MQzhkQ/RR90cKSMCdQiEdwF1elGfATSM90cRPwbVJ/mnuCBTkD7mPZaxpvb2U+EHDKvS0JtN1ThYTwTWiUDsBpC7A5AB27h/kH/z5t+OnkbUc/xKCiAfPY7uoUIRdvoks5QkAtt9etxNx9on7mXLkequpqyvYl1f51PRLsoPP/xwWXVtXcrx1Hbcg3DKY4+dftUcUd9mvWP7HUJPw0D4TgCS5sW+sQHghS+Dhd8D+N5vfFVCPm8zO9e/qdhkqazfGbMCeLdNSWnJYmRFn6SPLqtOiMjh1KpNaay1E6GQCBCBySCgxK951cBPvPt2c8Kd7xCxo/Oyb/XCcQ2jF1Eef1WHXepTEnWXcZW1ndJYy8bPOiJABKaHAO4AwlS1ATyO5/+vfaO9A5gj1i+vnTPlJx1qUnSMv8YGRUSACBABIpAIAQ0B1T0JhE1h/5rXmwN//3+MOUN+w2fFF7vW5vEnwohmiQARIAIbi4BuAiD64h0Ayvi28M71v7Fy/vT4V0JEBSJABIjAuBDABlC8A8AvhR47dixqoCT+KJioRASIABEYHwLFDSD2Z6JJ/ONbS46ICBABItAIgXADKIaAygwxxl+GCuuIABEgAhNEABtATKLHH4MSdYgAESACG4QAiX+DFpNTIQJEgAjEIEDij0GJOkSACBCBDUKAxL9Bi8mpEAEiQARiECDxx6BEHSJABIjABiFA4t+gxeRUiAARIAIxCJD4Y1CiDhEgAkRggxAg8W/QYnIqRIAIEIEYBEj8MShRhwgQASKwQQiQ+DdoMTkVIkAEiEAMAiT+GJSoQwSIABHYIARI/Bu0mJwKESACRCAGARJ/DErUIQJEgAhsEAIk/g1aTE6FCBABIhCDAIk/BiXqEAEiQAQ2CAES/wYtJqdCBIgAEYhBgMQfgxJ1iAARIAIbhACJf4MWk1MhAkSACMQgQOKPQYk6RIAIEIENQoDEv0GLyakQASJABGIQIPHHoEQdIkAEiMAGIUDi36DF5FSIABEgAjEIkPhjUKIOESACRGCDECDxb9BicipEgAgQgRgESPwxKFGHCBABIrBBCJD4N2gxORUiQASIQAwCO6I0j1GkDhEgAkSACGwGAvT4N2MdOQsiQASIQDQCJP5oqKhIBIgAEdgMBP4/ji6qsIVu/bkAAAAASUVORK5CYII=;fontFamily=Architects Daughter;fontSource=https%3A%2F%2Ffonts.googleapis.com%2Fcss%3Ffamily%3DArchitects%2BDaughter;fontSize=17;labelPosition=right;align=left;spacing=0;spacingLeft=11;" parent="1" vertex="1">
          <mxGeometry x="20" y="200" width="50" height="50" as="geometry" />
        </mxCell>
        <mxCell id="1j7GA2dCwZSHKUOCSirF-1" value="" style="edgeStyle=none;orthogonalLoop=1;jettySize=auto;html=1;rounded=0;fontFamily=Architects Daughter;fontSource=https%3A%2F%2Ffonts.googleapis.com%2Fcss%3Ffamily%3DArchitects%2BDaughter;fontSize=16;startSize=14;endArrow=none;endSize=14;sourcePerimeterSpacing=8;targetPerimeterSpacing=8;curved=1;strokeWidth=3;startFill=0;" parent="1" edge="1">
          <mxGeometry width="140" relative="1" as="geometry">
            <mxPoint x="424" y="1085" as="sourcePoint" />
            <mxPoint x="424" y="15" as="targetPoint" />
            <Array as="points" />
          </mxGeometry>
        </mxCell>
        <mxCell id="1j7GA2dCwZSHKUOCSirF-2" value="Update payment plan; collect tax &#xa;docs; file personal tax return; &#xa;file business tax return." style="shape=image;verticalLabelPosition=middle;labelBackgroundColor=none;verticalAlign=middle;imageAspect=0;image=https://th.bing.com/th/id/OIP.IbAsZr9zWqGizOPSZg1YXQHaHB?w=192&amp;h=183&amp;c=7&amp;r=0&amp;o=5&amp;pid=1.7;clipPath=inset(0% 6.25% 8.47% 5.21% round 11%);fontFamily=Architects Daughter;fontSource=https%3A%2F%2Ffonts.googleapis.com%2Fcss%3Ffamily%3DArchitects%2BDaughter;fontSize=17;labelPosition=right;align=left;spacing=0;spacingLeft=11;aspect=fixed;" parent="1" vertex="1">
          <mxGeometry x="20" y="410" width="50" height="50" as="geometry" />
        </mxCell>
        <mxCell id="1j7GA2dCwZSHKUOCSirF-3" value="Call Texas Rental Relief program." style="shape=image;verticalLabelPosition=middle;labelBackgroundColor=none;verticalAlign=middle;aspect=fixed;imageAspect=0;image=data:image/jpeg,/9j/4AAQSkZJRgABAQAAAQABAAD/2wBDAAsJCQcJCQcJCQkJCwkJCQkJCQsJCwsMCwsLDA0QDBEODQ4MEhkSJRodJR0ZHxwpKRYlNzU2GioyPi0pMBk7IRP/2wBDAQcICAsJCxULCxUsHRkdLCwsLCwsLCwsLCwsLCwsLCwsLCwsLCwsLCwsLCwsLCwsLCwsLCwsLCwsLCwsLCwsLCz/wAARCACNAQ0DASIAAhEBAxEB/8QAGwABAAIDAQEAAAAAAAAAAAAAAAQFAQIDBgf/xABLEAABBAIABAMDBQoKCQUAAAABAAIDBAURBhIhMRNBUSJhcQcUMoGRFTM2QlN0obGy0RYjJDVykpPB4fBSVWJjc4OFs9I0Q0Z1gv/EABkBAQADAQEAAAAAAAAAAAAAAAABAgMEBf/EACQRAQACAgEEAwADAQAAAAAAAAABAgMREgQhMUEFE2EiI1Hw/9oADAMBAAIRAxEAPwD62sHsVlav7IDOy2WB2CygIiICIiAixseo+1Z2PUICLGx6hNj1CDKIiAiIgIiICIiAiIgIiICIiAiIgIiICIiAiIgLR/cBbrQ9XBBv5IiICIiAnoieiCphqQ2p8gZTJtk5A5Xub0I9xXf7l0/97/aO/elH7/k/zj+5T0ED7lU/97/aO/euBrQ1LuPEXPqQy83M5zuzendWygWx/LcYfQy/qAQ0nhERAREQEREBERARNhEBERAREQEREBERAREQEREBafjf5+C3Wje5QboiICIiAnoieiCBR+/5P84/uU9QKP3/ACf5x/cp6AodyGZ7oJ4dOfXLnBjuzgfQ+qkxywzMEkUjJGHenMcHNOjroR0WXPYxrnPcGtaNuc4gAfElBxgtwzRmTmDeT761/QsI77UR0l627xapDIIj/F8//vu8/qXeajXnkbJst2R4gadCUdwCpDnwQiMOcxgc5scYcWtBcezW780HOtZbYa4EFkrDqSN3dp/cu3iM5/D5hz8vNy7669dKLarPcRYrHkstHQ+Tx6OCVKhh55pTz2Zesjz10P8ARCDezbq1GCSxII2l3KCQ4j69BI7tSWB9lkrTAzn5pNEAcvfuFpkGOfRvMY0uea07WNaNkuLCAAuE0UhxEkQY4yOpcgYB1LuQDWleIiYhy3yXradeNJFa/StuLa8vOWjmOmuHQ9u4WRfpExgTNJknfXYOu3Ss+k0D3eagYaSctdFKbZLI4tGxX8EN0NEAjuo0MU4yz75qvFew99VjQ088Rb08dzewD9a7LThXcwxjPkmlba7yvJ7EFdgkmkbGwvYwFx/GeeUD61s+VkbHSPeGxtHM5zjoAepKpsvBavSwVY4A+BkUs8jpC5jPFI5Iw1wB2R1Ol2Als4gNt15zKYmtmijDWymRjgCWcxA7jY6qvCOMS0++3O1ddojsn1rda21zq8okDTyu1saPoQQFIVPiHXnG34zZ/A5mfN3WmMjnf0PNzBnl6dFcKl44zqG2DJOSkWkREVWwiIgIiICIiAiIgwVqzzWzuxWGdip9DZEWC5rQS5waPVx0PtKgZRc/Gr/lov67f3p49f8ALQ/12/vQdEXPx6/5aL+u3962bJG/fI9jtd+Ug6+OkHCvXkhkuPc5pE0vO3lB6DXntefyOQt5ey/DYd38WPZyN1u+RjPOONw+w/53tlL97JW5MHiS5hbtuRt6IETCOsbD+tXOPoUsVVEEDQ1jGl0sjurnuA2XvKCgEN7heeN0Xi2cRO5jZxrckEh6c4HbSmbm4gkcGl8OKicRsdH2ZNd/TQWT4+emc0F0WJhfokdH2ntPl7l0yV+bCigY6Qdi2gssPi++RH8XTSQNfX5qUOMeQkwhdWyjnGsA75rZ0TzADfIfeoQp5PiUyXbEklOmwO+5kTdh3PvpK/p2966VqtriOzHkMhGY8ZCXGlVd3l/25Pcf0/Urh2R+b3mUp4PCgkaxtWUdQ92vonXT3BQlDxWUsMmOLyg8O7H7MUh0GWGDoCCfNX6rcri6+ThAcSyxH7VeZnR8bx1A2PL1UPFZSyJzicm3kvwtPhv/ABbDG/jg+qDtxHkbOJw92/WbG6aHw+USglvtPDewXm6uX+Um5WrXIMdjX154/Fj9rlL2nt0JVxxt+DeU/wCQfskaV53GcaR43EY6GTD5B0NatHF841yQv5dgEPcNaPxRD0PD3EcmWmuY+9UNPK0QHWIDvlc3euZgPX0+0KryXEXFP8ILmGxNanK6KMSRiUEO5QwOcXOJ15pwpUyeSzGS4rvQivFdiENGEHZczTWl515aAHvO/RVV+/cxvG+Rs06El6f5t4Ygi5uYtcxm3ey0npr080SuW3flPMkIdi8cIzLGJCH9QwuAcR9SmcX53IYKrQlpMrufPNIyTx2ucAGNDgBpaYviXP3shUqWOGrdSCUv8SxIZC2Llbsb5o2jr27qF8oYDoOHQ4backA4H8ZpcwFv19kQ9Rh8lWzGOp34PozNHO0/Sjkb7LmH3gqnwWcyeUvcU1pY4NY2Qx1BGCC53NK0c5//ACFW4wu4Y4mkxTg5uIzpbPjdn2YrR1uMfHt9izwX/PfHA8xd0fcRNP0RLhfz3yiYuq+5foY+KBj2Mc5p5zt50OgO1KoZT5Rrn3Pn+59AU7D4Huk5tO+bvcNuA3vttTOP/wAG7f8Ax6v7St+Hv5jwn5jB+yEFmFlEQEREBERAREQYd2Kw3sju32LLewQZUPIxSS1ntY3mIc1xb5kN9FMRBW1q2LsRhzYhzDQe0lwcHAddja7fc7H/AJEfa796xYqOL/HrO8Ocd/Jsnuct61ts243jw52fTjP6wUGPudQ/It+0/vXWGtXrlxiYGl+g7qTvW9d12RB5vB/zzxf+eR/sK2+eVLlW86tK2Rscc8bi3eg4MPTqqzDw2I8pxVJJDKyOayx0L3tIbIOTW2k91zwUFqGjmGzQSse+WwWNe0tc8GPQLQfXyWlaxNZtM+HPkyWrlrSI7TtLw00NfDRzzPDIohM+RzuzWhx6nS5Z6xXt8O3568gfDLHEWPbsAjxWjY81ybBZHDFuEwyicwWAIi0+ISXdBylRzXtHg75uIJvnBgjHghh8XYmBI5R9qw5Tz4u+MVfq57770tqVqtTw+LmsSNjjNeszmdvXM4AAdFyzRDpcCRog3oyPrIUHIwWXcO4yFsEzpmfMA6NrSZG8pG9t15eanZSKaR2B8OKR3h2onSFjdhgHL1d7lvw/hEvPrltOW1NdoiFjNepVpqteaZjJrTiyBh3uRw6kDSpbv4WYL0+Y2v0ArXNwWZc1wvJHDI+OKeZ0sjGEtjBaRtzh2XS3FO7ijCStikMMdKy18gaeRrjvQJWFbbmfx6GTHFa1tE+WvG/4N5Pv3g6Ab3/GNPksYalBkeEMZRsNJis41sTtjRaTvRHnsHRVpmchWxeOtXrELp4oeTmiaGku5nBv4/ReZZ8oGPDWcmGyQi1trmNj5A0ddt100rsGnA96zVmyXDN/mFjHzSvql4I54ubq1pP1OHud7lXW8pUw/HORvWmTOhbWMJ8GMvdzPYzXT06dV7LC5nCZxj7NHl8aPQnZJGGTxc29c3TfX4qpy3FuJxuSs0JcVPaniDC58TInl22g9j7XRAb8oHDznxsbDkeaSSONu651t7g0b6qL8oPWHhvQJ3kQegJ82HyWGcb4p0sDG8PXQ6SaJjXGCL2S94aHHQ307q9z+do4UYz51UfYF2wYouXkPhuBb7R5vig14kw7sxiyyEct+pyW8fIOjmzxgHlB/wBrsvNfJ0+eS3xLJY5/Hf8ANXTF7S1xkL5S7fTW9919Dadhp9QD/eq3LZCpg6NjIvr87WvjD2wBjHuLzrZJQU/H/wCDdvoT/KKvYE/je5W/D38x4X8yg7jR+iFq/K1X4Q5mSu51c0xc8B3I5/LrfL7Xs7XnGfKHjyxpjw2SLANNMYjLOnkC3og9yioMDxLFnprkUdC5V+bRxPLrIAD/ABHEabr00qy1x7RrW7lMYy/M+rK+J5h5Hb5Treh10g9ki8hS44rXrtKk3E5KJ1qZsIkka3kj2CeZ3uXrwgIiICIiDV/b61lvYLD+w+KyOw+CDKIiAo1moycBwJZM3qyRvcH3qSiCFBae14r2hyy9mv1pkg9x9VMP1rnPBDOwskbv/RP4zT6gqNC+1DIyvMHSMdsRStBPT0egqstlp3TDFYv27svsySN+jA0jqdjz9fRRRJmMFNC+3NLbpzBrZXvLnGJ3mRzE9FeUsXj8c61LCzlfM50kj5DsgHry8x8gvN5DI2+JLT8PiTqiwg37ZB5HgO+iD6dOnr8O+1+orirxrG3Hg+OzdVecl78de/UQ3uZTI5+6zG4OR8dOMtfcvN5mkj0aRo69B5/BZpZDIYK4cdl3yS1JXF1a28OeQPRx6lWD5KfDUWPrRVXms9x+c2B1POem3EdS4qC82uJrQY0OixNZ59vWnSuHT2T6/qWOPpbW/svOo/7s7ep+VxYt9Nipy9RHvf8Au2xny+fsy/MpZalCAPa2VvM0yv7eRH+C3rZ92Njs1s1zMmrMJjk87AHYD3+9dredo4O03HyU5YqcdZroZmj2HvA3ytA8vIlQMfj7XENxuYyrCyowj5jVI01zQdgvBG9eY+Ktk6qLROKlWXS/FXxzHU9Rede/38hxDeLMuyxlop5qkbdOpVGue0SMad+0AQPtHVXmDzbMlGYZh4V6D2Z4joE67uA/WulbMwOu2KE0Tq7mP5K/iaAkaOnw36LscPjjkmZQRuFpjHM208rCXfjOaPNYfRfFMbd8ddg6qtq8da8a9fkq7jb8G8p/yP8AuNUHBcUcK1MPiatjJQMngqRsmjLJXOa4DqDppU7jb8G8p8YP+41VdDhvFZThKkG1a7LtjHtfHZawCXxxstcXd+vmtXIi8LObkeK+IMvjoXRYl0XhB3KWsmlJaOje29guPxUezk8diOO8ldvvLIBUMWw3mPO9jNDX1K44CyYnx82KnayO7ipZIpGBoaXR8xAcR6g7B/xVVI/Gx8fZF+RdVbWFR43bLPD5zGzX0+m+6D0lDjDhjJXK9GpO99icuEbXRaBLRzHrtUnyif8Axb/7B/64l6CG9wTFLG+CzhmTcwbG6J0AfzP6aaW9eq8/8ohbrhckgAX5HEnsADESSg94z6DP6Lf1LzXHX4OXv+LX/bCsm8QcNhrR91sf0AH/AKiP0+KqOMbNa3wtbnrTRzQvlg5JInBzHak5TohBh34Bf9DH7KpuGOLOGsVhaNG7O9tiLxDI1sWwOZ5I6q5d+AX/AENv7KruE7HCceCoMyEuJbaBlMgs+D4vV5ILubqg9bicvjM1Xdax7y+FsronFzOU8ze/ReDw+YxGH4j4rlyM4hZNM+OLbC7mIk2ey97jreCm8SDFz0niPUkrKZjIbzEgOcGeq8Xw3UpXOJuL22q8M7WSPc0TMa8NPi6OtoPU43ibh3LWvmdCyJbAifNy+G5vsNIBOyPersKJXxmLqyGWtSrQylpYXxRsa7lJ2RsBS0BERAREQav8vith2HwWr/L4rYdh8EBERAREQEKIg1exr2PY4Ate0tcD2II0QVFo46jjovApwNijLnPIbskucdkknqpiKNR5Wi0xGonsj2oK08MkVlrHQvGnh50PtW1evBWiihgY1kTGgMa3tpaXY/ErTtHfl5h08x1W1R/iV67++4xv4jorcp1r0y4V5ctd3K7jqGQZGy3XZK2KRsrA7fRzTsdR+lSmtDWhrQAGgAAdgB5BbLBOgT6DarqGs2mY1PhCt0sa+SG7aiaX1PbY8+R8unn7l2rTPnj8R0Rja524wTsuZ5OKixh2ReJn7FWN5EUf5RwOuZ3+f8bIdlaZmfLKtK1mZiPKNfo08lWlp3I/Fry8vOzmc3ejsdWkFb1atalXr1KzBHXgYI4mAkhrR5bPVdkULq2HCYivkZ8rBWEd6cObNK18gDw7W9sB5fL0Ua7wtw1kLMtu5QbLYl14jzLMObQ0OjXa/QrtEHnW8FcHtdG9uMYHRvbIw+LOdOaeYHq9WOSwuIy7a7MjWE7a5eYQXvbyF4AP0CPRWKIPOfwI4N/1Wz+2n/8ANTzgcK7GNw5qNGOadtgD5NA8xf8AS5ubufVWiIIZxtA0PuZ4I+Y+AK3g8zteEBrl5t836VUfwJ4O/wBWM9Pv0/8A5r0aIKvGYDB4d88mNqNgfO1jJnB8ji5rCSB7ZK6U8NiqFq5cqVxHZuHdl4e93Od83ZxI/QrBEBERAREQEREGr/L4rI7D4LD+wWR2HwQZREQEREBERAREQYI2CPUaULGktjnhPeCeRg/o9wVOUOSk4ySSwTyRPeduA+iSPUIJiwdEEHsVB3l4vpNhnaO+vYcUGQa3pYgmh95bzN+0IGLP8ne3r7Esjev9IlT1X4x7Xi7ykECy4t/ouGwrBAREQEREBERAREQEREBERAREQEREBERBq/sPisjsPguZJ7e9bt7BBsiIgIiICIiAiIgIiICaBGiAR70RBq2ONhcWMa0u1zco1vXqtkRAREQEREBERAREQEREBERAREQEREBERB//2Q==;clipPath=inset(10.99% 13.2% 15.25% 48.14%);fontFamily=Architects Daughter;fontSource=https%3A%2F%2Ffonts.googleapis.com%2Fcss%3Ffamily%3DArchitects%2BDaughter;fontSize=17;spacing=0;spacingLeft=11;labelPosition=right;align=left;imageBorder=default;" parent="1" vertex="1">
          <mxGeometry x="20" y="268.5" width="50" height="50" as="geometry" />
        </mxCell>
        <mxCell id="1j7GA2dCwZSHKUOCSirF-4" value="" style="edgeStyle=none;orthogonalLoop=1;jettySize=auto;html=1;rounded=0;fontFamily=Architects Daughter;fontSource=https%3A%2F%2Ffonts.googleapis.com%2Fcss%3Ffamily%3DArchitects%2BDaughter;fontSize=16;startSize=0;endArrow=none;endSize=0;sourcePerimeterSpacing=0;targetPerimeterSpacing=0;curved=1;strokeWidth=3;startArrow=none;startFill=0;" parent="1" edge="1">
          <mxGeometry width="140" relative="1" as="geometry">
            <mxPoint x="20" y="40" as="sourcePoint" />
            <mxPoint x="400" y="40" as="targetPoint" />
            <Array as="points" />
          </mxGeometry>
        </mxCell>
        <mxCell id="8W5laIdohghY-NCQJXUD-1" value="NOW" style="edgeLabel;html=1;align=center;verticalAlign=middle;resizable=0;points=[];fontSize=23;fontFamily=Architects Daughter;fontSource=https%3A%2F%2Ffonts.googleapis.com%2Fcss%3Ffamily%3DArchitects%2BDaughter;spacing=0;" vertex="1" connectable="0" parent="1j7GA2dCwZSHKUOCSirF-4">
          <mxGeometry relative="1" as="geometry">
            <mxPoint as="offset" />
          </mxGeometry>
        </mxCell>
        <mxCell id="1j7GA2dCwZSHKUOCSirF-11" value="" style="edgeStyle=none;orthogonalLoop=1;jettySize=auto;html=1;rounded=0;fontFamily=Architects Daughter;fontSource=https%3A%2F%2Ffonts.googleapis.com%2Fcss%3Ffamily%3DArchitects%2BDaughter;fontSize=16;startSize=0;endArrow=none;endSize=0;sourcePerimeterSpacing=0;targetPerimeterSpacing=0;curved=1;strokeWidth=3;startArrow=none;startFill=0;" parent="1" edge="1">
          <mxGeometry width="140" relative="1" as="geometry">
            <mxPoint x="450" y="40" as="sourcePoint" />
            <mxPoint x="830" y="40" as="targetPoint" />
            <Array as="points" />
          </mxGeometry>
        </mxCell>
        <mxCell id="1j7GA2dCwZSHKUOCSirF-12" value="&lt;span&gt;Continue&lt;/span&gt;" style="edgeLabel;html=1;align=center;verticalAlign=middle;resizable=0;points=[];fontSize=23;fontFamily=Architects Daughter;fontSource=https%3A%2F%2Ffonts.googleapis.com%2Fcss%3Ffamily%3DArchitects%2BDaughter;" parent="1j7GA2dCwZSHKUOCSirF-11" vertex="1" connectable="0">
          <mxGeometry relative="1" as="geometry">
            <mxPoint as="offset" />
          </mxGeometry>
        </mxCell>
        <mxCell id="1j7GA2dCwZSHKUOCSirF-18" value="Call Josh after hbia2 is in prod." style="shape=image;verticalLabelPosition=middle;labelBackgroundColor=none;verticalAlign=middle;aspect=fixed;imageAspect=0;image=data:image/jpeg,/9j/4Q/+RXhpZgAATU0AKgAAAAgABgESAAMAAAABAAEAAAEaAAUAAAABAAAAVgEbAAUAAAABAAAAXgEoAAMAAAABAAIAAAITAAMAAAABAAEAAIdpAAQAAAABAAAAZgAAAAAAAABIAAAAAQAAAEgAAAABAAeQAAAHAAAABDAyMjGRAQAHAAAABAECAwCgAAAHAAAABDAxMDCgAQADAAAAAQABAACgAgAEAAAAAQAAAMegAwAEAAAAAQAAAMekBgADAAAAAQAAAAAAAAAAAAAAAAAAAAAAAAAAAAAAAAAAAAAAAAAAAAAAAAAAAAAAAAAAAAAAAAAAAAAAAAAAAAAAAAAAAAAAAAAAAAAAAAAAAAAAAAAAAAAAAAAAAAAAAAAAAAAAAAAAAAAAAAAAAAAAAAAAAAAAAAAAAAAAAAAAAAAAAAAAAAAAAAAAAAAAAAAAAAAAAAAAAAAAAAAAAAAAAAAAAAAAAAAAAAAAAAAAAAAAAAAAAAAAAAAAAAAAAAAAAAAAAAAAAAAAAAAAAAAAAAAAAAAAAAAAAAAAAAAAAAAAAAAAAAAAAAAAAAAAAAAAAAAAAAAAAAAAAAAAAAAAAAAAAAAAAAAAAAAAAAAAAAAAAAAAAAAAAAAAAAAAAAAAAAAAAAAAAAAAAAAAAAAAAAAAAAAAAAAAAAAAAAAAAAAAAAAAAAAAAAAAAAAAAAAAAAAAAAAAAAAAAAAAAAAAAAAAAAAAAAAAAAAAAAAAAAAAAAAAAAAAAAAAAAAAAAAAAAAAAAAAAAAAAAAAAAAAAAAAAAAAAAAAAAAAAAAAAAAAAAAAAAAAAAAAAAAAAAAAAAAAAAAAAAAAAAAAAAAAAAAAAAAAAAAAAAAAAAAAAAAAAAAAAAAAAAAAAAAAAAAAAAAAAAAAAAAAAAAAAAAAAAAAAAAAAAAAAAAAAAAAAAAAAAAAAAAAAAAAAAAAAAAAAAAAAAAAAAAAAAAAAAAAAAAAAAAAAAAAAAAAAAAAAAAAAAAAAAAAAAAAAAAAAAAAAAAAAAAAAAAAAAAAAAAAAAAAAAAAAAAAAAAAAAAAAAAAAAAAAAAAAAAAAAAAAAAAAAAAAAAAAAAAAAAAAAAAAAAAAAAAAAAAAAAAAAAAAAAAAAAAAAAAAAAAAAAAAAAAAAAAAAAAAAAAAAAAAAAAAAAAAAAAAAAAAAAAAAAAAAAAAAAAAAAAAAAAAAAAAAAAAAAAAAAAAAAAAAAAAAAAAAAAAAAAAAAAAAAAAAAAAAAAAAAAAAAAAAAAAAAAAAAAAAAAAAAAAAAAAAAAAAAAAAAAAAAAAAAAAAAAAAAAAAAAAAAAAAAAAAAAAAAAAAAAAAAAAAAAAAAAAAAAAAAAAAAAAAAAAAAAAAAAAAAAAAAAAAAAAAAAAAAAAAAAAAAAAAAAAAAAAAAAAAAAAAAAAAAAAAAAAAAAAAAAAAAAAAAAAAAAAAAAAAAAAAAAAAAAAAAAAAAAAAAAAAAAAAAAAAAAAAAAAAAAAAAAAAAAAAAAAAAAAAAAAAAAAAAAAAAAAAAAAAAAAAAAAAAAAAAAAAAAAAAAAAAAAAAAAAAAAAAAAAAAAAAAAAAAAAAAAAAAAAAAAAAAAAAAAAAAAAAAAAAAAAAAAAAAAAAAAAAAAAAAAAAAAAAAAAAAAAAAAAAAAAAAAAAAAAAAAAAAAAAAAAAAAAAAAAAAAAAAAAAAAAAAAAAAAAAAAAAAAAAAAAAAAAAAAAAAAAAAAAAAAAAAAAAAAAAAAAAAAAAAAAAAAAAAAAAAAAAAAAAAAAAAAAAAAAAAAAAAAAAAAAAAAAAAAAAAAAAAAAAAAAAAAAAAAAAAAAAAAAAAAAAAAAAAAAAAAAAAAAAAAAAAAAAAAAAAAAAAAAAAAAAAAAAAAAAAAAAAAAAAAAAAAAAAAAAAAAAAAAAAAAAAAAAAAAAAAAAAAAAAAAAAAAAAAAAAAAAAAAAAAAAAAAAAAAAAAAAAAAAAAAAAAAAAAAAAAAAAAAAAAAAAAAAAAAAAAAAAAAAAAAAAAAAAAAAAAAAAAAAAAAAAAAAAAAAAAAAAAAAAAAAAAAAAAAAAAAAAAAAAAAAAAAAAAAAAAAAAAAAAAAAAAAAAAAAAAAAAAAAAAAAAAAAAAAAAAAAAAAAAAAAAAAAAAAAAAAAAAAAAAAAAAAAAAAAAAAAAAAAAAAAAAAAAAAAAAAAAAAAAAAAAAAAAAAAAAAAAAAAAAAAAAAAAAAAAAAAAAAAAAAAAAAAAAAAAAAAAAAAAAAAAAAAAAAAAAAAAAAAAAAAAAAAAAAAAAAAAAAAAAAAAAAAAAAAAAAAAAAAAAAAAAAAAAAAAAAAAAAAAAAAAAAAAAAAAAAAAAAAAAAAAAAAAAAAAAAAAAAAAAAAAAAAAAAAAAAAAAAAAAAAAAAAAAAAAAAAAAAAAAAAAAAAAAAAAAAAAAAAAAAAAAAAAAAAAAAAAAAAAAAAAAAAAAAAAAAAAAAAAAAAAAAAAAAAAAAAAAAAAAAAAAAAAAAAAAAAAAAAAAAAAAAAAAAAAAAAAAAAAAAAAAAAAAAAAAAAAAAAAAAAAAAAAAAAAAAAAAAAAAAAAAAAAAAAAAAAAAAAAAAAAAAAAAAAAAAAAAAAAAAAAAAAAAAAAAAAAAAAAAAAAAAAAAAAAAAAAAAAAAAAAAAAAAAAAAAAAAAAAAAAAAAAAAAAAAAAAAAAAAAAAAAAAAAAAAAAAAAAAAAAAAAAAAAAAAAAAAAAAAAAAAAAAAAAAAAAAAAAAAAAAAAAAAAAAAAAAAAAAAAAAAAAAAAAAAAAAAAAAAAAAAAAAAAAAAAAAAAAAAAAAAAAAAAAAAAAAAAAAAAAAAAAAAAAAAAAAAAAAAAAAAAAAAAAAAAAAAAAAAAAAAAAAAAAAAAAAAAAAAAAAAAAAAAAAAAAAAAAAAAAAAAAAAAAAAAAAAAAAAAAAAAAAAAAAAAAAAAAAAAAAAAAAAAAAAAAAAAAAAAAAAAAAAAAAAAAAAAAAAAAAAAAAAAAAAAAAAAAAAAAAAAAAAAAAAAAAAAAAAAAAAAAAAAAAAAAAAAAAAAAAAAAAAAAAAAAAAAAAAAAAAAAAAAAAAAAAAAAAAAAAAAAAAAAAAAAAAAAAAAAAAAAAAAAAAAAAAAAAAAAAAAAAAAAAAAAAAAAAAAAAAAAAAAAAAAAAAAAAAAAAAAAAAAAAAAAAAAAAAAAAAAAAAAAAAAAAAAAAAAAAAAAAAAAAAAAAAAAAAAAAAAAAAAAAAAAAAAAAAAAAAAAAAAAAAAAAAAAAAAAAAAAAAAAAAAAAAAAAAAAAAAAAAAAAAAAAAAAAAAAAAAAAAAAAAAAAAAAAAAAAAAAAAAAAAAAAAAAAAAAAAAAAAAAAAAAAAAAAAAAAAAAAAAAAAAAAAAAAAAAAAAAAAAAAAAAAAAAAAAAAAAAAAAAAAAAAAAAAAAAAAAAAAAAAAAAAAAAAAAAAAAAAAAAAAAAAAAAAAAAAAAAAAAAAAAAAAAAAAAAAAAAAAAAAAAAAAAAAAAAAAAAAAAAAAAAAAAAAAAAAAAAAAAAAAAAAAAAAAAAAAAAAAAAAAAAAAAAAAAAAAAAAAAAAAAAAAAAAAAAAAAAAAAAAAAAAAAAAAAAAAAAAAAAAAAAAAAAAAAAAAAAAAAAAAAAAAAAAAAAAAAAAAAAAAAAAAAAAAAAAAAAAAAAAAAAAAAAAAAAAAAAAAAAAAAAAAAAAAAAAAAAAAAAAAAAAAAAAAAAAAAAAAAAAAAAAAAAAAAAAAAAAAAAAAAAAAAAAAAAAAAAAAAAAAAAAAAAAAAAAAAAAAAAAAAAAAAAAAAAAAAAAAAAAAAAAAAAAAAAAAAAAAAAAAAAAAAAAAAAAAAAAAAAAAAAAAAAAAAAAAAAAAAAAAAAAAAAAAAAAAAAAAAAAAAAAAAAAAAAAAAAAAAAAAAAAAAAAAAAAAAAAAAAAAAAAAAAAAAAAAAAAAAAAAAAAAAAAAAAAAAAAAAAAAAAAAAAAAAAAAAAAAAAAAAAAAAAAAAAAAAAAAAAAAAAAAAAAAAAAAAAAAAAAAAAAAAAAAAAAAAAAAAAAAAAAAAAAAAAAAAAAAAAAAAAAAAAAAAAAAAAAAAAAAAAAAAAAAAAAAAAAAAAAAAAAAAAAAAAAAAAAAAAAAAAAAAAAAAAAAAAAAAAAAAAAAAAAAAAAAAAAAAAAAAAAAAAAAAAAAAAAAAAAAAAAAAAAAAAAAAAAAAAAAAAAAAAAAAAAAAAAAAAAAAAAAAAAAAAAAAAAAAAAAAAAAAAAAAAAAAAAAAAAAAAAAAAAAAAAAAAAAAAAAAAAAAAAAAAAAAAAAAAAAAAAAAAAAAAAAAAAAAAAAAAAAAAAAAAAAAAAAAAAAAAAAAAAAAAAAAAAAAAAAAAAAAAAAAAAAAAAAAAAAAAAAAAAAAAAAAAAAAAAAAAAAAAAAAAAAAAAAAAAAAAAAAAAAAAAAAAAAAAAAAAAAAAAAAAAAAAAAAAAAAAAAAAAAAAAAAAAAAAAAAAAAAAAAAAAAAAAAAAAAAAAAAAAAAAAAAAAAAAAAAAAAAAAAAAAAAAAAAAAAAAAAAAAAAAAAAAAAAAAAAAAAAAAAAAAAAAAAAAAAAAAAAAAAAAAAAAAAAAAAAAAAAAAAAAAAAAAAAAAAAAAAAAAAAAAAAAAAAAAAAAAAAAAAAAAAAAAAAAAAAAAAAAAAAAAAAAAAAAAAAAAAAAAAAAAAAAAAAAAAAAAAAAAAAAAAAAAAAAAAAAAAAAAAAAAAAAAAAAAAAAAAAAAAAAAAAAAAAAAAAAAAAAAAAAAAAAAAAAAAAAAAAAAAAAAAAAAAAAAAAAAAAAAAAAAAAAAAAAAAAAAAAAAAAAAAAAAAAAAAAAAAAAAAAAAAAAAAAAAAAAAAAAAAAAAAAAAAAAAAAAAAAAAAAAAAAAAAAAAAAAAAAAAAAAAAAAAAAAAAAAAAAAAAAAAAAAAAAAAAAAAAAAAAAAAAAAAAAAAAAAAAAAAAAAAAAAAAAAAAAAAAAAAAAAAAAAAAAAAAAAAAAAAAAAAAAAAAAAAAAAAAAAAAAAAAAAAAAAAAAAAAAAAAAAAAAAAAAAAAAAAAAAAAAAAAAAAAAAAAAAAAAAAAAAAAAAAAAAAAAAAAAAAAAAAAAAAAAAAAAAAAAAAAAAAAAAAAAAAAAAAAAAAAAAAAAAAAAAAAAAAAAAAAAAAAAAAAAAAAAAAAAAAAAAAAAAAAAAAAAAAAAAAAAAAAAAAAAAAAAAAAAAAAAAAAAAAAAAAAAAAAAAAAAAAAAAAAAAAAAAAAAAAAAAAAAAAAAAAAAAAAAAAAAAAAAAAAAAAAAAAAAAAAAAAAAAAAAAAAAAAAAAAAAAAAAAAAAAAAAAAAAAAAAAAAAAAAAAAAAAAAAAAAAAAAAAAAAAAAAAAAAAAAAAAAAAAAAAAAAAAAAAAAAAAAAAAAAAAAAAAAAAA/9sAhAABAQEBAQECAQECAwICAgMEAwMDAwQGBAQEBAQGBwYGBgYGBgcHBwcHBwcHCAgICAgICQkJCQkLCwsLCwsLCwsLAQICAgMDAwUDAwULCAYICwsLCwsLCwsLCwsLCwsLCwsLCwsLCwsLCwsLCwsLCwsLCwsLCwsLCwsLCwsLCwsLCwv/3QAEAA3/wAARCADHAMcDASIAAhEBAxEB/8QBogAAAQUBAQEBAQEAAAAAAAAAAAECAwQFBgcICQoLEAACAQMDAgQDBQUEBAAAAX0BAgMABBEFEiExQQYTUWEHInEUMoGRoQgjQrHBFVLR8CQzYnKCCQoWFxgZGiUmJygpKjQ1Njc4OTpDREVGR0hJSlNUVVZXWFlaY2RlZmdoaWpzdHV2d3h5eoOEhYaHiImKkpOUlZaXmJmaoqOkpaanqKmqsrO0tba3uLm6wsPExcbHyMnK0tPU1dbX2Nna4eLj5OXm5+jp6vHy8/T19vf4+foBAAMBAQEBAQEBAQEAAAAAAAABAgMEBQYHCAkKCxEAAgECBAQDBAcFBAQAAQJ3AAECAxEEBSExBhJBUQdhcRMiMoEIFEKRobHBCSMzUvAVYnLRChYkNOEl8RcYGRomJygpKjU2Nzg5OkNERUZHSElKU1RVVldYWVpjZGVmZ2hpanN0dXZ3eHl6goOEhYaHiImKkpOUlZaXmJmaoqOkpaanqKmqsrO0tba3uLm6wsPExcbHyMnK0tPU1dbX2Nna4uPk5ebn6Onq8vP09fb3+Pn6/9oADAMBAAIRAxEAPwD+SvS9Z0jXLf7RpNxHcx9yhBx9fSvL/ij8OdK1vQLjUNLtVW/hG9TGMF8dQce1Vvgb4ZGj+F/7XdsyX+Gx2CjpXttAH5gEEHB4xSV7N8avB6eHfEf9pWa7ba+y4A6K46j+teM0AFFFFABRRRQAUUV1PgrQtH8S+KLHQdd1SLRrW7k8t72ZS0UOR8pcL/DnAJ/hHJ4FAHPW1pdXcwtrSNpZDnCIuWwoyeB6AflULLt47jqMYxXp2uXvhbwgt/ongu6mvZ5/9FlvP9XGYVVd4jCt8yyPn7wwFUAZyTXDx22lRmCK+eaOVZHFypQDai4wE5JLH5hggAHHvgAyURpGEcYyTwAKmmtpbeZraZTHJGSrI42lSvUEHpjpir0trqdnY/aYlnSwu2ZEkZSiTeURkf3SVyuQCduRWWmwH5wSMHpxzjigBtFORtjZwD7HpScY460AJRRRQAV0Oj+FPEWv86PZyTgd1HFZdtY3c7r5cLuuR91SeK/RbwzBY2+gWkenR+XF5S4XGO3pQB8YQ/Bnx/Mu77IE9mYCufvfh54zsLk2k2nylh/dGRX6GUUAfnPc+CvFlnEZ7nT5lQd9v+Fc7FbXE8ot4EZ3PAUDJ/Kv05IBGD0rLttD0azna5tbWKORjksqgHNAHxZofwY8baygmkhFqhHBlOD+VdF/wz74r/5+IK+xqKAP/9D+Pb4RTCf4f6eR/CpX/vk4ropteitvFsPh+Rhm5tzIg90P+H8q88+A135/gYW//PCZ1/Pn+tYnxVvG0Hx7oHiAcKv7tv8Ad3cj8jQB2Xxi0Aa54JuHRcyWn75P+A9f0r4Sr9N7u3jvLSS2cArIpX25Ffmvqlk2m6ncae3WCRo/++TigChRRRQAUUUUAb3hzw3qfijUhp2mKPlUyTStkRwQr96SQgHaijqcfTnAr9W/+Ccv/BMa4/4KGfEmx8KeGG1nRPD2gzSf8Jbr93HEsUYBPk2llANzG5kXaG3uyxfeZSNqt23/AATs/wCCf+n/ALQfgRvFHiu8u/7Pv5IrvyLFzFIDaSToqEjBz8vmDtjbjmv7Xv2E/hj4F+B3wTPg74e6ZBpltM7zukXzs81ydzGT3JoA8D+Cf/BNz9jv9mKyisPhT8P7E3NvG8f9o6hGl3qEyudxDztltpIHy9BgADAFena5+z/8Atft30bxr4P027hLx+ZGbaMg46Zr7n0/w7JriOqjaX+banybasaj8J9M062UTRR+Y6f3vnoA/DD4s/8ABED9gv483jalo+i3Wh38oV/MsLgp91QsabeV8sKAOnAHFfzl/HL/AIIhftn+EdfvfCfhe60nX9F0MTf2WfMFtcTox3FNnl480n+8+PcDgf6A2meFLTRLmHUraP5k/vLXg3xj8Iaf4s1SS6E4tpG3v8i0Af5ePxG+DvxT+EWqzaL8S9AvdFngk8lvtMJVN+M7Vf7jcf3Sa82UlSGXgjpiv9A79oT4dWF1ZTab400y21nT5hIC8sWR+Vfzv/tef8E8fBfiTwvL4t+AFpBpusaVEC+nxKIYryL2B4WQdjwD0PYqAfkN8FvA2i+LLm71DWlEqWu0CLoCW7n24r6Tsvhx4I0+Yz22nRBj6jOPpXhH7O9+tvq2paPL8ryRq4B4P7s4I/WvofxbbeI7rRni8LTLBddiw7entQBuw2NlbjEEKIB/dUCrVfD2vab8YfPZNU+1ye6H5fwxWz8Nb7xT4a8Tx3OvwXbWzqY23BmC56HFAH2RRTI3WRBInQjIp9ABRXLap428KaMxj1K+ijZeCucn9K4HUPjr4Is8rbGS4I/urgfnQB7PRXzVc/tF2IOLTTnx/tMP6VU/4aL/AOob/wCPUAf/0f4tP2dZGOh38X8InB/8dFRftE/LY6VMvVZJMfktdD8HtKOiXeu6URjybvAH+zgY/SsD9ov/AJBWm/8AXST+QoA9x8MXo1Lw7Y3wOfMgQn645r4i+LGn/wBnePb+MDCyMJF+jAf1r6h+CupjUPAVvFnJtmaL8uf6149+0LpRg12z1dRxPFsJ906fzoA+eaKKKACiul0vwd4o1qza/wBKspJoV/iUccenr+Fdn8DfBdn4++OXg74d61BJNb61run6dPDHlZHS5uEiZVxggkNgUAf6Cn7EXwH8N/Br9mXw94TsrZri7i0+ytDPt3mRfLjy3/TPJ5r9Wvhr4N1PTtH2avCsMcfz7U++3+xXiP7IPhjR4bK+s2+aHw2EtkVv74rc8bfFX9p34ixXmg/sj+GI75LCcQPqepMsUMz8eZ9nwCZI8f8ALTpQB9WWfhfxfrqsdKs3kT/viuB1j4feLtK1D7dJbbQg2bv7lfBniT4Cf8FiPEPiaLxH8TfHOv6H4efT1ii0z4fwaegtb8E7rh5LiOSaXIIAhkG0Y5BzX0x+xxL/AMFI7XU7z4a/tg39lq9sksX2DWGsTavcwzb9++Ms4Ew/2Tg+g6UAe2W9jqqW8bM+4bf4q8A8fafqm+W9toSFVH3hV+ev0J+I/wAJk0srFp65l/djclfPni7ULLwda3Orasw+x2MTo+xd9AH44/F/W7TzW02IidLlB8jV+ZXi1bWxOpEHy4Aj/wCr/wCWdfe/xO/an/YA+MXje6+H3hT4laXp/iW1nNr9jvX+xXDXD4CxR+fiKUkkAAZ54r4K+Mei3HhfQtZ0y6RIFxJHHKeIpKAP5h/2qnufhx+09q2u+GGjQzeXOgwsgy8YjlDDGzJcOfl6ZGCCONjwr8bPC2txJDqrfYbjuG+4T7GvI/2ltR16++NGq2fillaewZLbKLs+RRkcevNeBUAfpfBq+k3KCSC5iZT6OKtJc20h2xyKx9ARX5lxzzRcROV+hxX1/wDBbwRcafYDxPrJYzzj90jE/Knrj3oA98rxH4vfEdvC1mNF0lh9tuF5P/PNfX6+ldl498daf4I0o3M2HuJBiKP1P+Ar4O1jVr7XdSl1TUX3yynJP9B7CgDPkkkmkMspLMxySaZRRQAUUUUAf//S/ke0/SksdcvryMYF3sc/7wGP6CvEv2i/+QTpv/XR/wCQr6NwM5rwX48aNqusaZYR6XA85SRywQZxwKAOV/Z21jbPf6E5+8FlQfTg13vx10f+0fBZvUXLWciyfgeD+leIfC/RvFPh7xrZ3lxZTRxM3luSvAVuP0r6+8RacmraFd6bIMiaJl/SgD82KkijeaRYYhlmIAHuafPa3Fq5juI2QjjBGK674daaNV8a6dZsMr5oY/8AAOf6UAfd/hrTE0bQLTTIwAIYlXj6V+zn7Jn/AAQi/agg+Lnwg/bTSfT9S8IXl+ms65bafOY7zRIkjea3MysYjL5hRFljiyyF9pDLuYfkZpj2MWo28uqRmW2WRDKinBaMEbgPTI6V/pZfsr+NvCGpfsXaH4t8NTQTWfi3Qri9trdI8OqokrBp3HEcYx0oA8W/Yws9P8deBtY8WxzebZ69q5CzH+OOL7//AKFXvPx1+M3iv4R6VB4d/Zz8JjxJrQlitws032W0tI5v3ZnlMcZPlAf88lJ9q5D9mv4MWH7Nf7Mngr4B+F7mS6XwrpdrYvduQZJpoUBeVsYG44yeBzXbp8Tdc8I64kenWP2hU+RpEX56AP59P22f+CvX/BRH9nv9vHwv+yloV14cl8OeJfECeH7C802GZNRdN1ojXsiXCSQLbfv2MIVHyI2JZcV/Rt+zD8eNR+I/gq+i+I13p+q3OkTm0mvLF0MYlHGP+mcn8qy9e1aX4saadL8QIltEnERMKIy/8DrnND+Hug+FIJLHSw0FhF+9lZfkRpKAPTP2tf2nvBnwK+BmpfEXVXaVtJgMzJGMyOo9K/k2+DX/AAXF8K/tiavP8MF8F6jeQ31xJmFIpJZIoJRjM5UG3UHGB81frT/wU38Uww/s+XepWgH2X7dBbbt33ssBX8oHwv8A2UvFnwY+JPiC40bUJG8C61DfwNbR26SR6fJfQgCeSHG2eS3DiS1BU4UY9cgH67fG7/gid+wJ8b/D16/w78Sz+B/G+qw3H2O21u5lljN3cnflIp3xgNziDbxwMV+I3i3w7+17/wAE7dSsvgB+1BfQeJ/hzc3B0+xuIZRJDYSDiGRZJ41KR9MoSUVR8pGMN0kv/BImPws95r/wn+J2m+INMn0kParHNPo8kGqwxAW9zMm+ZiqzB5QEY7SRt44r6J8D3/jT4yfsc33gr9re8kn8XeHdWisvPutjtcYuA1v5Usfy8fKARzxzzQB/PB+1DpA0b44a1by7d0hjlISTzceZGCvOPTHHpXz5Xsf7QXiG58TfG7xVqt0UY/2jPAhT7vl27eVHj/gCCvHKAPTvhN4Th8WeKkhuxm3tl82QeoHQfnX29qup2OgaVLqN4RHBbpk/QdAK+JPhH4rh8K+K0e74gul8lz6Z6H86+2db0mz1/SJtKuwGinTb/gaAPz+8YeKLzxdrkur3ZwCcRp2VB0FctXqVh8I/Fuoa3PpMUOyOByhmfhMdiPwr3nTPgH4St7LytSeWeYjlwdoH0FAHxpRXqXir4Xa7pHiV9E0SCS9TaHRkXOFPr2qXTvgt4+v2Ae1W3X+9IwGPw6/pQB5RRX2r4M+Cvh/Qbcya8qX9y3qPkX6Cu5/4V74I/wCgZB/3zQB//9P+SOz8TeHr9Ins7yGTz8BArjJ9sda3K+Pf2f8AR0vPEdxqsoyLSPC/7z//AFhX0V8QvFreC/Db6xCiyS7lSNW6En6e1AHcUV8s6J8ftZv9UtrC6sYds8iR5QsMbiB6mvqagDOuNI0q7/4+raKTP95Af6VUtPDWgWNyLyys4opV6MqgEV8rfEvxf4w8MeN7u10y+khhba6IMYAI+nqKw9D+MvjG11W3l1S7M1sHHmKVHK96APuGv9AP/gjr8D/jp4S/Yk0f/hN4opdH13w1fzwtNujuNMVIiYQY24fcxBx26V/n7aff291FHfWbJKhwRwGU47EHg/Q1/VB/wT5/4OErj7d4S/Y//a78OX2o6j4kmh8NeHvEfh5YIt098UtbaK9tSYkRVZ/mngb7m1fIypZgD+o7wbbWev8AgnS9Qz893axzY/66pXVa58KbfSNCOq3eViT5gzVmfB6waP4f6WUZhJaWMET7m3vwiV8l/tl/GX4ieMPjd4C/YC+Cg8rVvFenXOveItULAPpmhWbxQ5iXBJnnmmWK3BAGPNbPyhWAPdvBGt+ENa8TTaD4b/4mB0n/AI+bhU/dIKwPHfibwXb+PbPwL43+IGh6Pf63MYLLQPOjilmmWIzGJB/y1lEKlvLHQAnoK7TRfAfiv4TeCtN8A/DXRBZacPvBRvmYfxu7/wAb15trfijxH4daW3+InhjTr60im81hPB++SSH7kyf7dAHw7/wV18AaL4P/AGaJdR8R6zZ2+k2MsVxJNI+2NFQ5QkngAfpX43+DNUs/CfxT8MfAjxxcD+2vG1hJcaSsqY+1/YYgbiJ+2QDnHpnHQ19R/wDBZDw3dfGDwNpXiWyvLmC40O4GsaVpU8vk6XcahaDNuLmMczIHwdoPavi34A/tV/F3xN8aPC/7Uf7av9jHxNoqNomkw2dgtkkFlMR/AryHz7nauQDgcADjJAPuGb4AeGbVPNu9NiifO91aL7lfDXx00640W5h0prJGsftIk3on36/oz+Mfh3SvEnga1+KfhAAw3ke4eV/D/sV/Oj+3P8TvDGgWdpygmupVEMZ/im7CgD+ZCCPWvhv8GfiBp+geG9N1JLa6mttT13ULO1vLiCRr1bdbdBIpaDciCQMoJDHKlSFIyNI+A3hrwhqdxDqciaq6lcNt2opKgsoGT91srnPOM8dK+o3/AGXPiB8Krj42eN/jFEw8CatoV1Pa3xn2Rahd3F1FJYPEq7ixE+FBZcAtnpmvMo7l7xFu5QA0oDkDpk88UAfPvxA+ClrqXl3vg6NLaYEB484Qj19sV7P4YsNS0zQbXT9XlWaeFAjOvQ46fpWV/wALC8HLJLDNfRxPAxR1fggrXG3fxv8ACEWpw6dZFpxI4RpAMIoPf3oA9eubm3srdrq6cRxoMsx6AU6CZLiFZ4vuuAR9DVTU7C31fTZtPnAaOZCv51U8Ofbl0W3i1JQk0a+W2O+z5QfxAzQBt4FFNVgxIH8PFOoAKKKKAP/U/io/Z0UfY9Rf/bUfpWn+0MxHh6yQdDMf0FZn7OjD7HqKf7an9K1P2hlz4ds29Jj/ACoA+bvAlob3xjptsO86H/vnn+lfopXwn8GLdZ/iBaE/8swzD8BivuygD5L/AGhtHaHVrPXEHyzIYmPuvIr5zr7x+L2gf294JuRGuZbb98n/AAHr+lfKXwx8IQeMvEy6feki3iUySY7gdqAPpz4KaRe6d4RF7fMxa9czBT2U9Pz60eLfi7qnwe+LXgj4jeFtrat4R1a0122B4HnWUySxg+nzRivVQtrpljhQI4bdO3RVUf0Ffnv448QnxR4nutXySjtiPPZBwP0oA/2U/hS+kw2On3mkTRSaXe20IjfLFGUxJggjggjoa+dvjJ+z1da/+0tdfHPwzcyafrHjDwDD4XXUIn2NaNpl3Jcq0Sn5fMBuG5xzxnpX5j/8G+H7Tnxc+Ln/AATW8M3nxsez1KfwvqVx4e0u+s7q0nnm0q0itxBHeLA7GC4jD+U0cyxzNAkUrKfMEj/vLq3iHTtYsbPS7O4jEsnl3KN/6PTfQB+Vf7D3wn8Wfst+MvGHwf8A+CnXxS1jxrd6tr0mreFfF15LcCC50mZIc2cm0GOCRJ/NwittAPy4Hyr+rvgv4TfAb4seAz4v+DvxBbUbG40eKeymsdWjuUeaUuwZ1bI2n5AM4zW+uieHvF9gPCHiCyTVbJjvjR1+5/uV8OfG39mf9mlJb6PULCfSpIFDvLHZhi//AH7oA8x/ad/Yh+PvhzxOkXhrxnpviXQoP7L3rqlpbIUnupxHKU8vHlpFEhkAx19q/lm0n9qH4eftV/8ABQIfsZaV4LuGudP1u5sF1fQroXdjLbwkNJNNFtAiRWQKSGbB4ODxX7D/ALSH7L+lXVo2t/CLxwmkrCV/tLyIZg80Kj93HJ5snlD8q8H/AGG/gp8O/gD4qfQ/hVabJtZuDJfajIv713I6n/pmAAB6CgD7D/a4+Jd/+xl/wTv+JWr6C0mt2+i+INF0XwysTjzru61ApFJBHnj90WU/QV/LJ/wUd8Qab4D8VfDbwJ8U9RkutSs49OudY+wKJA15LMJpT9mJJ2kqcdSOgya/a/8Abd/aj8K/tZftQ+HPCvgzT4x8DP2dLmaVJpAjQeIfF80RgkuY/lYvDYOzAsCv70kYO3NfyE/tzfHvUvij+0x4p8awSyxSt5doqyZVg0ZJEijGPlUlQeGG7K0AfoH+15+0rD+1F4Ij8JRPIbeSS2PnPAYP9FgO9UEbYKsWCckdM18jxRpDEsMfCoAB9BXF/DfafA2mbOnkiqFx42uLDxyvhnUbYxWsyAQz4OGk9PSgD5v+N/haTRvFB1iJf9Hvvmz2DjqK8WBwcjtX6JeNvC9r4t8PT6VcD5sbo2/usOlfnnc28tpcPazja8bFSPQjigD7x+FHiCTxF4LtrmfmSDMDH12dP0xXpFec/CjRjovgazhYYeYec31fp+mK9FJCruPQUAVtN2TWVxdqeReywY/65xxH/wBnpPNf7cIP4fLz+tcH8M9ZfVtN1Ik5UalO6/QhF/kgrtSf+Juq/wDTE/zFAGlRWHrWovpghlH3WYgj8Kxv+EqHpQB//9X+Jz9nJv3mpp7Rn+ddX+0EmfCUD/3Zx/KuR/ZyU/aNTbttjH867H9oAgeDoV9bhf5GgDxT4GjPj2L/AK5P/SvrzxdqbaL4en1Vf+XfY/4BhXyJ8DCB49jz/wA8X/pX1L8TEEngLU1Jx+5/kRQB2Ctb6hZB0+aKZMj3Vh/hXyx8N7ZvCXxavfDrABHDqv06r+ley/CHV21fwJaPIcvBmE/8B6fpisHxL4L1o/Eiw8aaSitDGAswzg9xnH0P6UAdl8SYppfAupx25Ibye3oCP6V+e9fpfrFqt7pNzZt0lidPzGK/NWePypni/ukj8qAP9Ev/AINSfBmgeP8A/gkh4+8O65viI+KWpyQXEDbJoH/sjSfnSv2KXxj40+Bni618AfEmaYSW7f8AEtuIl/c31pL/AB/9dI/+Wsdfjx/waV3mz/gmL4zslOGb4n6oy/hpWkV/Q/8AtK/Brwv+0X8HdT+G/i6aaxSaIhNQtZTBdWUzDHmQyj7pHYjpQBBY+JtSvLJZPD0azIPL2SRtXlmuaPr/AIl1C5sn1WVbny33M7fcevxA1H4vf8FOv2E9Zt/AUXw1tfjP4R0t1t4tT0q9TSr+0gA8sCW3f9w0wwPNmQqpJ+6gFdBpn/BWTX/Cmk6t49+N/wAHfEvhGCxtNjrDPa37zeSY48QxQSOT1/SgD1v4j+ILz4d6vdeEfHV1v0+4Z3mmuP8AnpX8/wB/wUF/4KHab+zz4a13wd8INTQ+NtehezURSRvJpsNx/G6jlZPKxtyOpHarv/BRz/gsP8GPF2gTz/Da01KfxBfQyRWkGp2E1sbTchV2bzRHwJlwQvPHTFfgb8PP2W/iv+0B46u/EXxFkkjuLuYtOEZDcO5HGTysYHTnJ4xjvQB9ED9qXxH4r+FPh/8AZO/ZtRrm7FvBY3EzQhYgkahZZXc9s45xtx+AP5W+I9Km0/Wrq2ku471Y3GbuMs0cpkG4OCyq3zDkblB9a/fCw+FHhP8AZ2+Gc2oaZp4NtoMMuq3axPsuJzbfvRljyewGegGOlfg/qvhi5u9TNx4Ssrp9Nv5ZP7ODrukkRWwEGB88iZAcKPfpigD3j4R/EjTLCwTwlr0yRGL/AFEufkZT2z2/H6V9GkW13FztkQ/QivzIbAOB2ruvAus+JY9es9J0m9lhWaVU2hvl5PoeP0oA/QSvKPG/wm0bxfcR38LCzuEPzMqZDj0I4/OvVgMACloAgtbeO0to7WLhYlCD6KMVneIHvI9Eum05DJP5TbFHUnHFbFU7vULGwCG9mSHedq7yBk+goA4T4VeHrvw34QhtNQQpcSM0kinqCe1atvqQuPHU+nL/AMu9opP/AAJv/rV2IIIyOlQLaWqXDXaRqJWG0uANxA7ZoA5LxsubOAD/AJ6f0NedeW1e+wSTWt3FfWrtFNDko6HaRkbTjHscVuf8JX4o/wCgjc/9/DQB/9b+MD9nzThb+GrnUSOZ5sD6KMVkftFagFs9P0tf4maQ/QcCvU/hVpo0vwHp8OMF08w/V+awvF3w1PjnxWl9q8hisbaIIip95yeT9AKAPmf4SXQtPH+nk8B2KfmK+1fF9p9u8Laha/3oHx+AyK8gT4GQaX4ls9X0G7McEDh3WT5jx2HTrX0A6LIhjcZUjBHtQB4D+z3OW8N3lqf+Wc+cfUf/AFq+gK4vwr4OtPCd7qDabhbe8dHWP+4QDn8PSu0oArXkiw2ksrdFQn8hXw34P8I6Pqial458ZSSReHtHmjW4W3ZVuruafcYraAsrKjSCNy0rKyQxqzbXfy4ZP1c+FX7Ivx7/AGpPD+sn4OWVr9h0yS3tdS1G8u4beK0+2b9mI2YTTsQjfJbxyMvBYKvNfGf7b1r4a+H3iPQf2fvhpOX8LeELNwpfy/OudVlkaO/urjyiyedJJCIwgZxDDFHDvcxl2AP73f8Ag2o+Jv8Awsr/AIJbWKyQGwi0LxZrGlQWkURS1tov3V3HHbBsu8Q88jfueQzF2kdnLGv3z1FLrUfDs8Fqitc7eN1fiN/wb8eFLLwD/wAEqfhfoNu4ke/+2avO4jxl724ll9/uRMiZ7+X26V+6Wj229fOh+b/YoA8r8NeD7GTTZItRQNLcu8YQjfI1fNX7Qvw08BaJ4eurnU9Kt0twghKSL2+T/npX3bbXFrZ3bSQIUaJ99fFH7YXgNvjRq2lJqVx9ns7EvI8UX/LWSgD+U39r39n7wXffGl/itZ+H7aC8W1W2tytvFiMCTPU89zisP9nr4KCw0iOHxHE9uZz9pSONfLkH/bWv2x+K/wAHdO8WeJLXSLmNLiPAMYWKP/ljUepfCeDwhogtXhUyeRiP/wCIoA/D39tXwRZ6b+zz4utol2s+gXyL8ncQnH8q/lA8MWl/pOmRWPiSS7stA8UQSFmgKyB2tGYJM0WCdkMgO7AD7N4U4JFf18f8FI5Y7D9njxm5XyG/se+UduWhIFfy4/Gn/hEvB/wK8C/DyHTjd6zPZJqk2qTW7QGKK9/0hLeJs4lUeadx5GegB+6AfNHirwXr/g25ji1iIGC4G+2uojvt7mMfxxSD5XHY45U/KwBBAq+FdUXRPEllqr/dgmVj9Aal0HW/E9rFJ4b0KadodSlh32SfPDcSxkiLfDykhXewTKnBbiulg0H4bXuj+d/wkElpfMxVYprNvKwNuC7IzlARk5QSHOBtUc0AfeFvPFdQJcwEMkihlI7g9Kmrx34Jx+L7/SJtIs1ttXit7e4uLY2t5C9wyWysxT7Jn7VmQgLHmIckDGDuHnniX9oEz2bW3hq2MUjDHmSfw/QUAfUtfJf7Qmt+drFnokLf8e6eY2PVun6CuH0D4w+MdBtXtVkW4VyWBlGSCa891fV7/XdRk1TU38yaU5Y0AfR3g/482NnpcWneJYJDJCoQSRgEEDpkcV6x4U+KPhrxhqR0vTPMWULuG8Yzj0r4Hq7p2o3uk3keoadIYpojlWXtQB+mRIAyeKb5kf8AeFfBet/FjxtrtmtjdXIjQYz5Q2Fsep/wxXI/8JJ4g/5/Zv8Avs0Af//X/kr0O2Wz0a1tV6JEg/StSq9pj7LFjpsX+VWKACiuc8S+K9D8JWa3uty+WrnaoAyWPsK774LeBPiD8dkHibSbRfDHgqGTy7nxRrKMtkh5G2FFw9zJlcGOEkrxuxkUAJ4c8M+KfGeu2nhTwPpV5rmsahIsFnp+nQPc3dzM/CRwwxhnd2PCqoJJ4Aqbx98H/jl8M9Z0DQfizoN14f1PxFdfZbHwzbmObxHPIn3op4PnGmMDtR1u1FzH5iyLbSoDjzHxj+2bB8M01Hwz+yVLd6YbhDaz+Kb07NZuIyGV/six4jsYXB6LuuOmZsDAu/sL+DdN8MftRaBrnxd1eTw/4P8Ah/H/AMJNrGoeQZfs3nWyPGqi3ErSea/kqE/iQMQowRQB+rjwa34r/bI8JfAD9n2+h0LwZ8JLG0u/Eel6MJZIr/VY7ZI57yaRlAubu5kEUKO4WVdhkiSMKAP5w/iBJBN4q1k6jaXenakt/cGW3ukxKJDK+9JQdpiaPhSu1ju3ZI4A/Rb9uz4n/Dj4o/FDSfh58A9eK6Zr4iufEd1c28tgJr2Z/MWS7DqMxW8JT1CBCT90Y+S/2h/h/P4LuNP1vxnf3d14h1+zW7lju4YEYJvxFL+4uHCh4QgAIbLb+cgYAP79P+Db34rp8QP+Cbfhfw9dzBrzw5dXmnyYOMQxXDtGPwjK1/RVp1wLO7Nr9w1/BF/wawftNaf4M+JXi39m7xBcJbDX2XVtKWQ7VuLiBFS4RDjG9UERxnoelf3Z3mqxzyPNFk4NAHVX11cxTmGT/vqvHvGsVjfq+87ti16De615McRuJPvp/KsaSOyvIB9m5A/CgD4OtPC97eeLrnVR8kCgJ8y1yfxI00ajaskA2Mn3NtfYHinw1caDozXZj8oPXlnh/wAEN4hs3uQPl4/4FQB/Mf8A8FQfDsem/su+J9f8ZXcum6Zb2pjkmjUNNtuGWFYYgeP35wOeMGvyF/4KYt8N/F02k/DL4SatZRXOoaVouqWun2sMyS32bd1PnTSlVPyiMqDz8v0x+5f/AAUs0nw78aPjmnh/W79rP4a/AW7j1PxSl9B5NnqOtyWwms4vPOMRWyTRl+qETbSCR8v5b+O/iLpf7QEF1qrabHY/DC7sm/4S7xjbiQ3Raxj8x1gih/f/AHo2X5htIQ+gDAH8+3wX8KeFPE/im3PxBjmt/DyutpeX8J2paS3QdYJZWKsoUOO+1fl54yDL8dfh7qnw9+JM1j4hvbG8/tHN+s+mYMRimkYZEfy+W3yk+Vxt4A4xXvehfGX4O/BTR9U8J+CtBn8V+H/ElrJa31xezLA7TLuXED/ZQ6bIpB+LcY7/ABLqJ09tQnbSVkS1MjeSspDSCPPyhioUEgYyQAPYUAfRPwf+AXir4v8AjDQPBfw2uBpfiW7RrlDqky2KSbA8sclq332UJGfmxw2COOnvPw38MT/tMeDPF2m+LtK03VvFPhpBcxaha3C2d/dZkzMrzp5kFyWVNkLeXIfcAg18f/DPxvq3hbxHb3RuR9kt433wzt+7khQ+e0C5B2+cUCcDq1e62/x00vVfCOtfDzwL4Wj0A+JUe6vBpkxd7uaM7lgAwDFbAb/3AJ44XrQB4j4d+Fd/42vrfRvCN5atqlw0iDTr2ZLOZPKBLZklKQAAD+KRGODhMVxviPwh4q8ITx23inTrjT2mUtF58bRiRRxuQkYZfdciu8+GvhyH4hWN54Em1ddPuFzeWEU+FtpJUX95ufqh8teO3HtX2F8AP2mP2hNN+D118ObHwzofi74deD1W71nT720haNYZJt5kYlk8yRtuFYB8bQcZFAH5vUV+nfxT+C37LnxFv9U8cfCDxDotlo84kNla2d2lnfC5Lj921lqNwjSR4zsZPsqqOisMV+a+paZLprRMctFcRiWJypTch44DAdCCpxlcg4JAzQBmUUUUAf/Q/j2+GXjKx8U+HIF8wfa4ECSp3yO+PSvoXw18KPil41t7m98J6FczWNgoe91KZDBptjFxmS5umHlxqoO4jJcqPlVq/Ov4HaTOfF8Hi02Q1GHR54HjtG4S8vHfFvbElSmHYF5FbAMMcmDkV+l/xf8A20f2h/iB+y+ngHwcutyLqi2Xh3xFdXsCiS7up0kYwqgdiPNGGHy9JccHGQDyXVrv4aaTqnhS28GWmh/EfxFrF5HY297ql0F0yG5ujsCJpwcP5UWVDy3iruJBVcDCec/tL/tN+IvH2v6r8O9L8Q6hP4X8K6b/AGNoii4+SZhJBHdTMbY+S63IWVh/yy2MAoBrxDwX4utfhpqd1fXSQ22p+H9OuLO0j3JeB9RuWZTOBgwkIh2nO7AVfvY4s/8ACSN41+AOs2+owaZp76Dfae0T2enxQz3rXBusiWSML9xT8vGNqhe+aAPGdU1/xR44u7HT7r/SpokjtLWGCFEOOFRFSJRk8ADgk1+sen6d+y18HvgKF8X65rGhXeu69PBdPopS41Sew0dGskWDzJzEwaVpz5/7iMgbQvyha/Lb4UfErxB8HviBpPxL8JOY9S0e5SeI5G0rgq6EYPDqdvHQE/h6z4Pn0b4vaqus/EIz3Nt4W0PUr3UEj2w+cTcSzRiMrgLvuLpQRtAAzjjgAHvX7Llro/g9rn4o/CzSLHVmttRj0m41LxmbaLSILG8s5fOjngDv5JuSpiWWRmiIkEPLE7uY/aS8VeDPiN4D03XJvEEOq6vpUs8NxHar9jSKa8xMUhtbgLObe3x9nzxz+865U+KfCO98SeGfA/jD4g6FdC2hsVsYZLOaJJ7O9E84/cyxShlcKFLAHkAH1r6d0r9pj4bfGHwL4v8ADvxM8AaLpF3qMRuZtS8LaXI2ps7M0klxJ5kxTyYpBE7R+bAhIHXnAB7L/wAEhPG/hvw/8d7rwfr1xImm6xawz2pk3wOmr2RBieKdCVi2tJt3HBIdelf2cfsx/t8eOoPEA+Cf7SdkW8UC0+02ut6fHtsNXig+8UGWMMsBxlGPcYJ5x/njaX4o8Xfs9+PbfUNFMqaZe2sc8Ue/5L+xmC4kH/PPzTGG6B4iMYyuK/qo/Yt+J3hn4kfDPTPD2vXken6losqHTdQiuRcXEEtrx+7bA8044uYvXIoA/qk8a/Fyzn8E6fr0Uu4KxRuPnr6w+FOoaNeeFl13UCrRqu+vwx+H3xx0r4s2c/wf8bBdC8ax2sc89iCNl1bngXVt6wTEEA/hX6R/CDU9TTQLXwwXkZo9m/8A650Ae6fGXxjY6tbR6fpUXDfxV+d/7Wvxx8Yfs0/Aa/8AG+jXltL4j1KWPRvCmkPIbd9Y1u+BS2soS335XI/AAnoDX6da14e8Ir4Gu/EPiSYWcNiufMk/gr8E/iP8XvDv7Rf/AAUosfA+oXif8IT+zFpzeJ9S05kaFl8QalEDp107lPJeKC0kkYFXAUtyCcbAD5U+P3gn4PfsmfsI3vwO/aA8YQ303h/THv8AU9Q1CeK4PiHXRFJPPp1qLo/vvNIkAUnOCOfN5r8Uv2L7DSfh1+zH8X/jPFo8F18I9S8Oalr2kaPqcpluYNTQyaW1s7IoLQS+YqMzHOzyx97eT8q/tP6l8dfjf8UPHH7YuhaxL4+8HaB4q1HT9Ft9aU39q9levKk06xqBbxW+4pg5XgqWPyAnzj9p61+IHwW/Zpb9ly/8QQHTvD/iqO4m0+zjco76hZLdfZ3uTFF5x09y2RmTm5Vj5RCpQB+Y0NzJDG8IwUkGCp6ZHQ+xHb8uhIr6H+Efxi+H/wAMrHX9I1vwqPE2neIomtp7W8lVDHCBmJopljLpNHId3mKAGCgbRnj5wooAlRF+VpThCcHGCQBjtkfh0r2nRbX4g/D59E+IljbpqdvM8cFs7f6RCzcn7Nj146L36Va+D/wgb4iwSaxH5d9BYziO/so7uKxuo4GXKTRy3OIMFgUIJJH93kEdjq+vXF/e283i3VL2PRdck06fUQEE0qWIkybiA4Ih8o/uVQdSOc5xQB9YfBz4afCn4y/Gr4heN7u1sdK8BxQWQmgmYJefa75A8VnaKpEBne5jKkMDjbgdTXs3ibxH8bP2QfEUfjCy+Gemw/D3SxDd/wDCLX25h9pIXF1NKR/pRB4LW7PbgY4G0muf/bw+H3jrSvGHw6n+FOhXE099pM7Wej6OJrmOO3sz9ns7hPJCzCVYJItxPCTbgOM7vzi+Mj/tHaLZ6f4f+MKeJ9O00APYWWufa44UZVG/yEuTjC7yBt5Ct70Acf4x8VaFqfiubVrLw9pultJffbBFbGY2qxSfOITG7H5BnooXA4AHAEPjvwxBoEs13A5SIatqOnLaZJMMVoYmHLevmkfVc1698LfgppfxW8IweJtT8Q2djq8mrW2nW1pPNEHmtII1EhWLGSyAxhc8HuOc1z3xz8KeHtBsrHW9P3yX+r6nrUs8rfKDFDc+TEoj/gxsdj/vY7AAA+dyMUlfcP7DXj79mvwn421jw9+1B4etdX0PWbNVgu5k3SWVxbvvGw9VEi5Vsf7Ir9N/+Ez/AOCPX/QCtP8Avlv8aAP/0f46fGXge/8Ah18A7TwLZGSx8QaZ4gmvNYm8sxrbXtjZLL5JuNitHNB5625gblLoSBT81c1oXxY1DWG0fwVY3k+lWllp1vpWoR2gjkurmAbvPa2aRhCCV24O5SeoJAxWx+2L44l8aeJtG8Y6bdXV9oeqDVJo/PiSCMzNqV55vlxckHY8f7yZfOPBbBGB8reLfB3iXwo+lp4ohFn/AGlp0GoWqk7gbaYExt8ucb8bse/OKAPu/wCJNh+xB8L/AIU6LqnwV0XW/GHi7xDvEU+v7/7Ot/Lby3MKRwWvnnOVVTu2tgnsD8J2sFqvw8u5f7R2zzajb/6CInIaOKOTMzSbNg2GRUChsnecrgCvpj4D/tI/Er4PeFJ5PA/i6W3lso3txodzNcQ2ctuT5/mRmCVAZhNkbeNykc9qwL3U/jR+0tPZeHNT8Qtdy6nc3F1pulXRkkdvJUgFDHER0DqN20ZRqAPlqKwvp4DcwQO8a5yyqSo2jJ56cDr6Cv0L8V+GvgV4Z/4J/Wfi/SdDSy+I+p+IpfD+ru8txvghtWNwUEEk+1G+SAMTEe44zx0P/BOD4+3X7PHiDx9q813HZqNBupLWSWV/sz6jbxyG3ibyQ27d88g25OIuM18x/F74k+MPjNpGs/FHxndW93qeqa0jXDWcPlq7RQsrzvkBv3xkUAtjoRgdKAPNPBt09v4B8YRLNKontbRDEv8Aq3AuY2y3uu35fqa+w/2cNBuvH/wO+JAuojql5F4ZZY3gWJF0+1sTvRJmOMeeyb8Y6QbickVY/ZA+H3hL4pfCnxH4bmtmuL6yvLe8k/dpguFc24wTmdR5cmYDwc157+zHrHi3RPi3b/CaC6uZfD3iW5njuPD8OprJZ3n7hxEJkQ+RO2HAiYgAt0oAxfBPw2n+Nn7MHifxNayyNq3woWG4jhWJCJtJ1CY+YmRhh9nmLzZOQFkYem36U/4J9fEzxjqHjGG1vnR9O8MpbmGNpDawKCWH73aNj/8AbXgY4r53/ZgtYPhh+17o2h+JNXsbDT7S5mg1See48u0+yiJmmikfCgnA2bSMeYAKt/HT4UeHvgb8dNO13whp95q/w98TMNR8NyQzMDdW7ZTZFOoOZraUlO7AqufvAkA/s6+Huu+Avjd8KYzrAawvdLLPYX4aJL3SZoOP3UkwIcj/AJ54xh/Sv1L/AGZvjdr+jeDxonxTs5b/AFCzjjeDUtPh22t8nqBk+VJ/0yl6V/Ol/wAE8/iXB4n+GsFjrulRaZdWcMSwO00cREg48uS7la483z+vl5yO/Nf0T+APENjd/CW10q1QLBAZG8yybZA2H+4H/wCWf7z/AJZ0Adt8W/j1Z+H/AAVrvxw+I0j2nh3wfpd3qt9EuXW1itYnmYgK5MkkgHQDPpX8tnxN8Y698Of2HNV8Q+N9V0hPiX+2xf3mtie8lW0bSfCb2v7pruZcCSC2sQdqcYlmOA2CW/Wr9ujQ9W+MEXwx/Yvj1qzt7b4u+LLTTtRtSv2kwaZpcR1O+3D97JJIfsog9P3vNfz7/wDBRHWdB/bf/wCCrnib4M+J73RdG0PQbW10zQr/AE+MS30cGnJLFBZxr54USNc3byGFQGby4wRgZoA/Of8AaC1nWvihY6D8I/Beo3Wm+EYLC21JNL8nyrfS9JsIvIS6u9rYeacjfulYEFkXKl+fiP4xfGnxh8XdTRPEF+97ZWM9zLatLDHDK7XBUPNMI/lM0ixx+YQSPlGK99/az8N+Ov2W/GviH9l658c2HinUJo7KPxbcaK8pg+22eMadJMdq3ItGRGc7Bi4BB+ePj4fMkhjERY7FJIXsCcZ4/AflQAyvs6z+LfhzUv2T9R+BnjnWJJrjTJYtU8Nx/Z/MjWSdohPFvHzRlQJRyADng4IFee/so6D8KvF/xz0PwP8AGKDzNI1yZLFZTLLEsFxKy+UzeSNxVmHlMBjaH3ZG2v2H/wCCp+p+F9Znj/Yv/Z00G0sbTwDLJqd1p2jwiO3sdsbIylseZNNcM2duOf3ZoA/Be38XX0Fjp2ltDE9rpsrTrF80Ylkcj5pDGyMSAAFIIIAwK9U+LWpTa74R0HxQIhbf2uZ7i4htPMSyWUSOo2xNkK+N2SDzzivAlZkOUOOMceh4r37x34c8Y3fwY8L+Pr2wP9i5bT7e+bClpU3ZiCjsoTg//XoA/RT4Z+J/F/wo8M/Boy63Po2oupv9D8XbY5hpct0IykOyWQrKgSLyGhO1cAEdAB6X/wAFi/iz4/8AiB4I+G9l8XbyOfxbFcarHqf9nXcb6dOtt5P2e6FuisYpZ4pwceadgBX5uCPxmtvil4zt/hvdfC37b5mj3E0cotpYY5dhQlv3UjgvD83JEeA2TnuD+m/7SXxtvbr9lrwF4G+IVi9xfaJb2V9YPfRvKl3dRLFFOkwkwceSTkHH4EcAH5DNIzIqEnCDABPA+npXpnjTUfFHivw1o3iPWHhlstKtotEtplAjkcQKZtpXOW8kSiPfgDbs6mug+NXxi0n4t6wmpaT4Q0TwrGkVvH5ekW/2fJhj2uSE2x/vGJY4QEfKM8c+q/GrwT8R/A3wK8NaP4neKK3N9JdXltJJi9F9dxhwZ4XAljZUDIc8Ej6UAfHVFSwwtPIIk2gn+8Qo/M4FXv7Juv70P/f6P/4qgD//0v49/Ex8ReHtH8JWWj+HrHW7M6zr2lppxRp4rbULmVIvs8UuFxgKktsRhhk5ziuf+Jngfw38QobDxpc6pcaN/ZenDTdWF/pjxSfb7LKvt8hPsyxltsSbpQwIC7e1ZHiTWLz4O3fhzx68K6vP4it4r+8guxvtWuLTZGs8bqxElxvEzmfkfvTjOWJ+gz8JodR/ZraH/hJdQn/tqIa1ZWbRQLcalEjrLdpa232g4jt8SO4HJkjJAwcUAfmhBHov2xVmnmWDzGBcQqzeWPunaZAMnuu7A9TX0l4X+HOreC/hfpfx9uvEws7+4ZovDmm2itcXUzxzPHMHXKiKIHrjdu8wcZO0/N8lrow0aO7hu3N6ZNr25iwoXn5lfcc9uNo/IVq2y6xpdte28ywjdZxqVn2swimZJVMYP8RGDxyAT0NAF/4feJNJ8Latc3+sQG4SWzngRNiuvmSrtXcpI+Ud8HNfVXw9m1/Wf2XtU+F2hW9npIubu41bUdSvLoxk2SrB5UYjALEO8TYOMYX3r56+DGr/AAu03xI9v8V9L+3afcRkCYTzQtblVJ4EPL7/ALmD61+tP7THw/8Ahzb/ALEFrea1daZpUltJANFtUlkhuVmhyJUNnN/pBx5nlHdnYQ7kfLQB8OeCvhjoevfsKeK/HQiSw1Ox8QWIE9xcmJLyFI5QEjRiFZ08xsY6/UV86fAJGk+OnguFZXt/M1zT08yL76hp0GV98V6h+zJ8MfFPxrk1T4UeDdOfU7rU7jT5LmOGWKKaKwgkYzyoJSASuVHfGenau50L4UWv7NHx3sbzxld6dq2o6H4j+w2ulzvPanzoT+7uroKFmhgjYxTDYsgmAwuV5IB5r+118P7P4b/Gq60W2d5JLu0tNRuGkbdme9iWZyPYls/jxxivqHUPB/xI1T9iGT9m7WNNM/iHwbr+q+MFzdwTrZ6Pb2lql1ChWVhGS8y3PlDG4AsBlhniP249QvfGHjDQVuLVlaCL+y9OvpikMc1lC2IxK8jZLAt5nnSFcq/PTj6w8bX194I/aj1nwx4A1C+tLtRc+G72R0tpIoIrmFUeD/SjPB6HFqB/tDpQB6j/AME7PG8Pj7wRY+E9FuvIutOzCRcwG5VNkP7wo03+jwg9QB27dq/tC+DniR4/hjbm8ge2iubOICa8tvJuOU72xAMUnt5Qx6V/nofsBeKvDvgn4kahoniPR4zrKh1hklWQXCmPDvEoUcOphyAeevpX90X7IvxE0S2/Zw/4SXW5EZrKD95Nd3D3Vx5VvH/y1lMhyfv5OaAMb4Sw+C9X/b9+LXxp0W6hmtfg/wCHdM8IWc8yxO6avrafb9Uuht58pYZIIfMY9YWAAHLfyGfEn4v/AAD+Bfxc8YftT/AzQ5rnWrabWfC9vdahMl1FN4mnlkc63aklvLWGIh1XGCzoAFBJr9m/2ofjTrfwD/4IreFbLwIP7O+Jv7Ueu6h4mlmsGDTRQa7Ob1xJKwVsQ6cYrdpguV3cbQMr/Ht8QvEsesahB4f0a6e40PQkaz0sMCo8neWaTaeVaZy0rA8gtt6KAADlZJNd8Va60srT6lqepT5JO6aeeeZvxZ3dj7kk19j/ALN/wo+I/wAJ/wBp3whefGX4Z6hd6baXIu9S03W9HnaD+zkIiuLiaGSE7obcOHcldowASK+dvhX8HvjF8XdXaz+DHhzVvEF9YlJJP7LtZJzbg/cd2jB8sZBwW2jjg1+uFt+2v8ZfCGieGvDOt+dBe3Wj6z/bOk6jJILi4htYpLe3jaaQDbE8qGebO3iE/NjhgD1D9rn9qvwT8Uv21p/CPwkvbafw3pltp6WlraiGfSLm9hDTvcOSkBaytxg+TAf320Sg9q/JX42aV4G8c/Fjxx4g0fXovtEs66hZGa6+0peeYC1wGuDx5u7DL2PK/TzLwNrHhRtV1rxJ49le4vHtpZYSE3q884IbcuAM5bvhf0r7k/YT8E/CD4haf8RfH/j/AMOwyy+HNPilsoLSOWdzLKshAt4TL/rsw5XnqcDaKAPzJsFvXvoU0wO1yXURCMZcvn5doHOc9MV+jX7V3xq+L3hHw1B+zjrskmq+F7uwtdYMt/bGAXN7qKm4+2wKiwmLJOxUII/dkMG5r4l1zw1aaN8TrnQ/iRaXfha1F0TdW9vbi6uLOKX51VIpJYA5CkYDSpkd6/SP9qHxL4S/aS+Dg+M3wm05jo2kTtpOoXGtsqakZLWOKSFbG3g88W8K2kSg+ZPKM+Z0xkgH58eAfCGj+JfAWv6k2i3l/eaXtla7hu1hit4fLkfmLyJC3MZydwGMfdwSdKTxr4p+Inwzu/DvibxNfXk+lNFcWmn3MpkiaG3j8v5N33THHk4z90cLXvP7K3wYufir8JPHdtp2pva3E8SwJaMSIbiWIebDjYNxcONgHTD9K8E8F6X+z7N8GPEuqeO9Q1GLxrDLEuiWlqf9HlQjDmbMDABSc/65SQMAeoB738KfiN8MNH/ZB8a2HxC8F2F/qqtDpPh7VPsEYf7Re+dJM73Xl+YZbdApQeZjaVXaByflfUr3xNc+ApZzBNJos2oQxRXUmAPOtIWRUwP4vJdM+mB6198f8EyNX0P4W698QP2mfENvpl0fh74cnudJiv0SaVtYuAfs6wRybkBKRSlpTHJ5e0HbX5z+IPEXiTxZPda74pvZbme9u5753lyTNc3JUzPnGNzYBb8KAOVooooA/9P+KL9oa1sNI8NeEfCdnFLKdDtpLX+0JJiRdpcJBfrtg6Q+X9rK4GcjGTxx5d8GPFN34U+LvhnxFHPPB9l1C2Ej2z+XN5DOFkVWHQmMlfpx0r1j9pT/AI99H+kP/pq0qvnnwb/yN+lf9fkH/oYoA1dTigvPF+tNbaUlpbiW4f7Lv8z7HFv6IQ0YcxD5RnhvSvovwRrHirwf+05da38MNOm2aAkgez+0rG50+0hEcgMhIBzGuQOTnHpXh03/ACOHin/cvf8A0Ovpn4af8nHeOP8AsEax/wCiaAPU/wBgTw6vxI+MPiLULnS9M1ZdOuI9Utoltk3PeGb90IZ7hfNih6tgnPyrnnOfl34+fCm8+GHxvvPBl/d/8JLc6q5lMrExzF55mHLsAvm5XlsFDnp2r7Y/4JFf8lQ1/wD652X/AKG9eKfth/8AJ4Fl/wBdIP8A0okoA439iD4f698U/iJqHg3wprSaBqVvbx6nY3ipJ9q+1QSLbxRQshCJ5n2kiTzQ0ZTIxnBHG/tdeOPFXjL9ojUvGHjaG3/tnZZR3zW4KRT3dpBHDPINu1sPLGxH3TjHSvf/APgld/ydAn/XnF/6XWlfMX7VP/Jcdd/6+p//AEa9AHp/7ZjeMfDfiWw8B+NdKsbS/ktbbVJr60leY3onj/dljISw8kboOQNwQHG3bX6F+Evgl8K/id8U/gl8S/GQurq48Y2Wl/abASNFYSzWsSQ/MyHz1x2xkEDHTOfjL/gpr/yXbQ/+xX03+clfod8FP9f+y7/1zi/9CSgD86YvBn/Cn/259f8Ah/40ihs7y2vp1jsoZpJbNbq52SC3MiKrNEAxTeUGcAkDpX9PXhH9ofw38UP+CVdxpPwa8PR674l+IeqQ+Hbdb+VotOU6lc/2UjTrKCwgXqYYl6ccda/nE/a6/wCUrvif/sZYv/RcdfsV/wAE4v8AkwP4Xf8AY9eHv/UkoA86/wCDpbxj4hs/2rPhx8HNJW30vw74D8Gw6ba2FmnlLb3tzzeKpUDchg+yrnoRwO9fzk/DW0+GM3h/xZc/ECadLuDSidJjhh8wPeGRFXc29NgHfhuCeOAD/Qp/wdQ/8pBD/wBcP/be0r+ajTP+PLUP+vdf/RsdAH7DfsS/tH6b8Gf2CvippeqW10J7q9ge2vLO+lsbloYntw9sksKs8QMkyEHgfO/TmvzZ+O3iG08T/EHxTeajIyXdrrNxBYwJDFDGto09zJJuEShdwdl+u48nAx7N8Pv+TJPGv/X43/pRpVfMPxZ/5Kn4l/7Ct5/6OagDuPiv8O9K+GZWDw7dNfrLHGk9wHYKhlG4IFMcRO4KeoIxx1xX2X8FtKk/ZC+CPiT4zeOL6OXUPEtpDZ+HLOzZ5TDqRh8+K4nikh+zt5AlUrlmwN4Xrz80fH7/AI8pP+uth/6Ikr6b/a1/5NP8Gf8AYTt//TZBQB5R8TP2Y/jDq2meCfEN3/YV2nja0W9tb+yknErEWgcrdGdFcyMkJckKy+ZuO4bufiv7bJp2mXWhNEY5nlUSSLIwyiZzGyg7GG7DA44I/L95da/5I7+z1/2Cx/6a7qvwT13/AJDd5/13k/8AQjQB9RfssftP+IP2fb3VrGDQ7XxJpuq2N1FLY3TeUq70Uu4YDJ+SMZXvjjHf5ZN1ZzT3Nxc2+PODGNYm2LGxII4IbKgcY/XitLwt/wAhOX/rzvP/AEnkrnKAPZ77R/Dnh34K6dq8tsZNa8Q3NyEmLHYlnbtGMBegfzEbn+62K8Yr23x5/wAkf8Bf9c9S/wDSivEqAPQ/CfhfT/Hbw+HdKcWerBG2eaWaO6IJY8gfuiifUNjsevof/DM3xE/562X/AH8b/wCIrmfgJ/yVjSf+2/8A6Jev0goA/9k=;fontFamily=Architects Daughter;fontSource=https%3A%2F%2Ffonts.googleapis.com%2Fcss%3Ffamily%3DArchitects%2BDaughter;fontSize=17;spacing=0;spacingLeft=11;labelPosition=right;align=left;" parent="1" vertex="1">
          <mxGeometry x="20" y="130" width="50" height="50" as="geometry" />
        </mxCell>
        <mxCell id="1j7GA2dCwZSHKUOCSirF-19" value="" style="edgeStyle=none;orthogonalLoop=1;jettySize=auto;html=1;rounded=0;fontFamily=Architects Daughter;fontSource=https%3A%2F%2Ffonts.googleapis.com%2Fcss%3Ffamily%3DArchitects%2BDaughter;fontSize=16;startSize=0;endArrow=none;endSize=0;sourcePerimeterSpacing=0;targetPerimeterSpacing=0;curved=1;strokeWidth=3;startArrow=none;startFill=0;labelBackgroundColor=none;" parent="1" edge="1">
          <mxGeometry width="140" relative="1" as="geometry">
            <mxPoint x="450" y="1361.5" as="sourcePoint" />
            <mxPoint x="830" y="1361.5" as="targetPoint" />
            <Array as="points" />
          </mxGeometry>
        </mxCell>
        <mxCell id="1j7GA2dCwZSHKUOCSirF-20" value="&lt;font&gt;Ideas&lt;/font&gt;" style="edgeLabel;html=1;align=center;verticalAlign=middle;resizable=0;points=[];fontSize=23;fontFamily=Architects Daughter;fontSource=https%3A%2F%2Ffonts.googleapis.com%2Fcss%3Ffamily%3DArchitects%2BDaughter;labelBackgroundColor=default;" parent="1j7GA2dCwZSHKUOCSirF-19" vertex="1" connectable="0">
          <mxGeometry x="0.0071" y="1" relative="1" as="geometry">
            <mxPoint x="1" y="-3" as="offset" />
          </mxGeometry>
        </mxCell>
        <mxCell id="1j7GA2dCwZSHKUOCSirF-23" value="portfolio" style="shape=image;verticalLabelPosition=bottom;labelBackgroundColor=none;verticalAlign=top;aspect=fixed;imageAspect=0;image=https://static.vecteezy.com/system/resources/previews/000/351/686/original/portfolio-vector-icon.jpg;clipPath=inset(17% 18% 18% 17%);fontFamily=Architects Daughter;fontSource=https%3A%2F%2Ffonts.googleapis.com%2Fcss%3Ffamily%3DArchitects%2BDaughter;spacingLeft=0;labelPosition=center;align=center;fontSize=17;spacingBottom=0;spacingTop=-3;spacing=0;" parent="1" vertex="1">
          <mxGeometry x="560" y="1172" width="50" height="50" as="geometry" />
        </mxCell>
        <mxCell id="1j7GA2dCwZSHKUOCSirF-27" value="wrenchai" style="shape=image;verticalLabelPosition=bottom;labelBackgroundColor=none;verticalAlign=top;imageAspect=0;image=https://th.bing.com/th/id/R.8adb9d1ea4737e6a7ad96adcd6d36097?rik=oQXyXv4sLCtqgQ&amp;riu=http%3a%2f%2fpluspng.com%2fimg-png%2fwrench-hd-png-png-file-svg-980.png&amp;ehk=v0tUtBmMGjUbjXjkgeGYHQAGbwv%2bHgC0HNOKOVEXehA%3d&amp;risl=&amp;pid=ImgRaw&amp;r=0;aspect=fixed;fontFamily=Architects Daughter;fontSource=https%3A%2F%2Ffonts.googleapis.com%2Fcss%3Ffamily%3DArchitects%2BDaughter;fontSize=17;labelPosition=center;align=center;spacingLeft=0;spacingBottom=0;spacing=0;spacingTop=-3;" parent="1" vertex="1">
          <mxGeometry x="649.9999999999999" y="1263.5" width="50" height="50" as="geometry" />
        </mxCell>
        <mxCell id="1j7GA2dCwZSHKUOCSirF-28" value=" hbia2" style="shape=image;verticalLabelPosition=bottom;labelBackgroundColor=none;verticalAlign=top;imageAspect=0;image=https://vectorseek.com/wp-content/uploads/2024/05/Vertex-AI-Logo-Vector.svg-.png;fontFamily=Architects Daughter;fontSource=https%3A%2F%2Ffonts.googleapis.com%2Fcss%3Ffamily%3DArchitects%2BDaughter;fontSize=17;spacing=0;spacingLeft=0;labelPosition=center;align=center;spacingTop=-3;spacingBottom=0;clipPath=inset(15.67% 8.02% 9.67% 7.25%);aspect=fixed;imageBackground=none;" parent="1" vertex="1">
          <mxGeometry x="470" y="1250" width="50" height="50" as="geometry" />
        </mxCell>
        <mxCell id="1j7GA2dCwZSHKUOCSirF-29" value="imdone" style="shape=image;verticalLabelPosition=bottom;labelBackgroundColor=none;verticalAlign=top;aspect=fixed;imageAspect=0;image=https://th.bing.com/th/id/OIP.9w8mXLBMt79PBs8O4VLvXgAAAA?rs=1&amp;pid=ImgDetMain;fontFamily=Architects Daughter;fontSource=https%3A%2F%2Ffonts.googleapis.com%2Fcss%3Ffamily%3DArchitects%2BDaughter;fontSize=17;spacing=0;spacingLeft=0;labelPosition=center;align=center;spacingTop=-3;spacingBottom=0;" parent="1" vertex="1">
          <mxGeometry x="730" y="1170" width="50" height="50" as="geometry" />
        </mxCell>
        <mxCell id="1j7GA2dCwZSHKUOCSirF-30" value="SemanticML" style="shape=image;verticalLabelPosition=bottom;labelBackgroundColor=none;verticalAlign=top;aspect=fixed;imageAspect=0;image=https://creazilla-store.fra1.digitaloceanspaces.com/icons/3210819/semantic-web-icon-md.png;clipPath=inset(8.67% 13% 17% 12.67%);fontFamily=Architects Daughter;fontSource=https%3A%2F%2Ffonts.googleapis.com%2Fcss%3Ffamily%3DArchitects%2BDaughter;spacing=0;spacingLeft=0;labelPosition=center;align=center;fontSize=17;spacingBottom=0;spacingTop=-3;" parent="1" vertex="1">
          <mxGeometry x="560" y="1250" width="50" height="50" as="geometry" />
        </mxCell>
        <mxCell id="1j7GA2dCwZSHKUOCSirF-31" value="Settle IP dispute," style="shape=image;verticalLabelPosition=middle;labelBackgroundColor=none;verticalAlign=middle;aspect=fixed;imageAspect=0;image=data:image/jpeg,/9j/4AAQSkZJRgABAQAAAQABAAD/2wCEAAoHCBUSFRgSEhIYGBgaFRoYHBgZGBgYGBoYGBgcGhgZGBgdIS4lHB4rIRoaJzgmKy8xNzU1HCU7QEgzPy40NTEBDAwMEA8QHhISHDQlJCExNjQxNDQxNDQ0NDQxMTQ0NjQ0NDQ0NDQxMTQxNDQ0NDQ0NDE0NDQ0NDQ0NDQ0NDQ0NP/AABEIAOEA4QMBIgACEQEDEQH/xAAcAAEAAQUBAQAAAAAAAAAAAAAABwEEBQYIAgP/xABEEAACAQMBBQQHBQMKBwEAAAABAgADBBEFBhIhMVEHQWFxEyIyUoGRoUJicoKxFDOSFSM0Q3Sys8HR8BYkNXOi4fFE/8QAGgEBAAMBAQEAAAAAAAAAAAAAAAECAwQFBv/EACcRAQEAAgEEAgEEAwEAAAAAAAABAhEDBBIhMQVBEyIzUWEycbEj/9oADAMBAAIRAxEAPwCZoiICIiAiIgJSeKjhQWYgADJJOAAO8nukc7VdrFtbE07Vf2ioOBYErSU/ixlvy8PGTMbfQkdnAGScDr3fOalrfaLp9rkG4FVhkblHFQ5HMZB3QfMyCdf2vvb4n9ortuH+rX1KY8N0e18czAAzbHh/mq2pb1Ptpc5FraKvRqrFj/AuP1mqX/aXqdX/APV6MdKaIoHxwW+s06JrOPGfSNspcbQ3lT95eV2z3Gq+PkDiWD3Dt7Ts3mxP6mfKJeSQ2+iVmX2XYeRIl7b67dJ7F3XXyquB8s4mOiNQ222y7RdTpcrtnHR1Rx5ZIz9ZtWmdtFZcC5tUcd7U2KH+Ft4fWRREpePG/Rt0do3afp1zgNVNBulYBB/GCVx8ZudKqrgMjBlPEMCCD5ETj+ZfQ9o7qybetrh0GclM7yHj9pDw+mZnlwfxUyurZWRRsv2vUqmKd+nom4D0qZNMn7y+0n1HlJQtrhKih6bq6sMhlIZSPAjgZhljcfaz7xESAiIgIiICIiAiIgIiIFJgdqNqLfTafpLh+J9lF41HPRR08TgCYfb7bynpq+jTFS4YZVM8FHvVCOQ6DmfAcZz9q2p1ruo1e4cu7c2PTuVQOAUdBNcOO5efpFrYNr9vbnUSVZvR0M8KSE4I7vSN9o/TwmpSkTqxxmM1FdkRElBERAREQEREBERAREQKzYdltr7nTXzQqZQnLUmyUbrw+y3iPrNdiRcZZqp26c2O21t9ST+bO5VAy1JiN4eKn7S+I+OJtM5BtLp6TrUpOyOhyrKcFT1Bk7dnfaKt7u2t2QtyBhW5LWwO7uV+o5Hu6Dlz4rj5npMqSYlJWZLEREBERAREQPM0rtF22XTae5Tw1xUB3FPJRyNRvAHkO8+AMzG1u0dPTrdripxPsomeLueSjw7z0AM5l1bUql1Ve4rNvO7bzHu6AAdwAAAHQTXjw7ru+kWvleXb1napUYs7HeZmOSSZ8JSJ1qEREBERAREQEREBERAREQEREBERArPVOoVIZSQQQQQSCCDkEEcjPEQJ77Mdvv2xRaXLf8wq+q3dVUc/zgcx38x34koTkC3rtTdaiMVdWDKw5qykFSPEETpHs+2uXUrfebAr08LVQcOOODqPdbj5EETk5cO27npaVt8REyWIiICfOq4UFiQAASSeQA5kz3I37ZNpDbWwtaZxUuMgkc1pKRvn83s+RaTjN3QjDtF2oOo3LMpPoaeUpDuIB9ZyOrcPhiajKyk7scZjNRSkRElBERAREQEREBERAREQEREBERAREQEREBM3sltA+nXKXCZIBw6A8HQ+0vn3jxAmElZFks1Uuu7C8SvTStTYMjqGUjvBGRLqQ92I7SEh9PqN7INSlnpw30HkfWA8WkwAzhynbdLqxKRIHljgZPITlzbjXDfXtWuDlN7cToKacFx58W/NJ27TtY/ZNPrMDhqg9CnHBzUBBx4hQx+E5qm/Dj9q2qRETpVIiICIlcQKREQEREBERARErApErKQESsYgUiVxKQEREBERAv8ARdSe1r07mn7VNw3mB7SnwIyPjOrbC7WtTStTOVdFdT91hkfrORJPvYrrHprJrctlrd93ieO45LJ8M74HlOfmx8bWlSPEpmJzaWQv28all7e1B9lWrMPFjuJ/deRHNx7VLw1dUuOPBNymPAKi5/8AIsfjNOnbxzWMVvsiImipErPpToOwyqMw6qpI+kW6H102zavVp0U9qpUVB4FmxmdC2HZnp1Ol6JrcVGK4ao5bfJxgkEEbvkMYkHbFAjUbQEYIuafDv9sTqec3NldzS8jl3bnZ7+TrtrYMSm6roxxvFG5b2BzBDD4TXJI3bl/1Cn/ZE/xKsjqbcdtxlqt9qRBjIl9oIlZSBWbnoehUvRrUqLvMw3sHkAeXCaZNr0baJUQU6oIKjAIGQQOWR1mPN3dv6Xo/H3hnJ/6/x4Wu0ukLR3alPgrHBXng4J4eHAzXZnNoNZFxhEUhVOePMtyzju8pg5bi7u2bYdZ+O81/H6fe0oGo6oObMF+ZxN5p6BQVd0pvcOZJ3s9Qe6afon7+n+MSRph1GVlmq9f4fp+Pkwyyzm76RxrFl6CqyZyOBB6qeUsZntrl/n/yCYErN8Mt4zbyOq4+zmyxk8SqRKmUmjlIiICSH2K6l6K/NEnhWpMuOrp66/QPI8mY2TvDQvbaqPs3FPP4SwVh8QTKZzeNiY6sxEZica7k/aav6S8uXzneuKhHlvsB9MTFz6XD7zMx72J+ZJnzndJqKUl7penVLqqtCgm+7tgD9ST3AcyZZSc+xLQFp27XzDL1WKIfdpoxU482Bz+ESvJl247JNsjsn2YWtoqvcoLitzO+N6mp6Kh4HzbPwm9pbqoAVVAHDAAAx8JS5uEpI1SowVFUszMcAAcyTIr1Ltopq+7bWrOgON533Cw6qoBx8fpOSd2VW9JMudJt6jpUehTZ0YMjFF3lYEEFWxkcQPlL+ajsdt1b6nlKYanVUZam5GSvvIQfWHceRHf3Z2+Vss8VKAO3L/qFP+yJ/iVZg9iNjK2qOd07lFSA9UjODjO4g72x8BzPdNj7ZLVq2qUKK+1UoUUX8T1qij6mTJoGkU7K3p21IeqigZ72bmzHxJyZv39uEkV15YvQthrGzA9HbI7j+sqKHfPUMR6vwxM9Us6bAq1NCDwIKqQR4giYvafae306mKlwx9Y4VFALseigkfMkATR7ftoty4FS0qqpI9YMrEZ7yvDPwMy1lfMSy+0/ZfZ3SlqCC2q44GmoFMn71McMeWJBWt6NWs6zW9dd11488qyk8GU94M6osL6ncU1q0mDI6hlYciD+h8JpXa9s8tzZtcKo9Jb5qA95p/1inwx63mvjL8fJZdUsc9zftnrBKdJH3QWYbxJAJ49w6CaDJJ0f9xS/Ast1Fsk09b4bjxz5r3TeowW1tiqqtVVCktunAxnIJB8+E1Kbvtl+4H/cH91ppEvwW3Hyx+Vwxw6izGa8L/Q/6RT/ABCSPI40P+kU/wAQkjzDqf8AKPV+D/ay/wBqFR3gTw9JSMFQR0IGMTE6vr4t33PR73qhs72OcsG2u4cKPHxaUx487PDq5eu6THK45a3Pfhh9orNaNYqnAEBgOme6YuXN1cNWcu3FmPd9ABPNe1qUwC6MoPIlSP1E7cfEkvt8pzazzyzwnja3iIl2BPSMVIYcwcjzHETzEVLpP/iVPelJBv8ALL+/Ez/HDdYKqu6xHRiPkTPEyW0ND0d1cJ7txUUeQc4+kxs0l2KidRbAoF020Cjh+zofiy7zfUmcuzoHsa1la1iLct69uxUgnjuOxdD5cSv5ZhzzxE4vt2y1GXTHCZw1WmrY93ezg+G8FnPE611nS6d3Re2rLvI64Yd/MEEHuIIBB6iQlqnY/eo5Fu9KpTzwZmKMB95SMfImV4c8cZqpsa32d1XTUrUpnJrBTj3GBV8+G6T8p1BI57Puzkae/wC03DrUr7pChQdynkYYqTxZiDjOBgE9ZI2ZTlymWXgiKNpQrbR2QbBxRX+IenZfrumSvObNpdpw+rm+pneSnXp7hB4MlEqDg94bDfBp0XZ3SVkWrTYMjqGVhyKsMgyMsbJCIA7Zq7PqTKxO6lJAo7gpBYkeZJmhTontF2DGpBatJ1Sug3QW9h0ySFYgZGCSQeOMmRpbdk2ou+660kXPFzUVhjPEhVyx8iBNuPkxmOqixuXYTcu1vcU2zuJWUr0BdfWA8PVBx4yRtZph7esjey1F1PkUYH6Sx2U2fp6dbrb0uODvMxGC7nG8xx5AAdwAEx/aVrK2lhWYnDVENFB3lqgIOPJd4/CYW92XhP05mEknR/3FL8AkbgTe9lbv0lALn1kOPyniD/l8Jr1E/THrfC5zHnsv3Hja8E0Bw5VBn5NNIzJOu7daqMj8mGPEHuI8Zp9xstWDYQqw65Cn4gyOHPGTVb/K9Hy58v5MJuXx4WGhrmvTx74/1kizBaFoPoDvuQz4wAPZXPieZmdmXNlMr4d/xXTZ8PFe+atvpo+2A/n8/cX/ADmDm/63pAuVGDuuvI9xHuma4my1ctg7oHXeB4eA5zbi5ce3z9PI67oOb89uONsyu5pcbG2wZ3qEZKgBfAtnJ88D6za7igtRSjjII4/+vGW+mWC26ejXiebN7x/08J61O7FGk7k8hgfiPBf9+Ewyy7s9x7PT9POn6XWcnq2o3YYOPEzzEGd8fIZa34UiJ6Ck8BxJ4D48pKGV/ktvdMSbv+FE/wBiJTvhqom7T7T0Wp3IxwZlceTorfrmanJV7dtN3a9C6A4PTNNj95DvL8cMflIqkcd3jC+yZrZfaCrp1dbmiQccGQ+y6E8VPTqD3H5TCxL2bmh1Fsxtfa6igNGoA+MtRYgVF6+r9ofeGRNjnH1OqyEMjFWHEMpwQeoI4ibBbbdalTXdW+q4HvFXPzcEzmy4f4qdum61VUUs7KqgZLMQFAHMkngJEHaP2lq6tZ6e+Qw3alcct3vWl1z3t0PDqIx1PXbm6/pNzUqDozkr14LyHymNlseHV3S1UmSX2Z9oIswLS7J9AT6j8zSJ5qw5lCfkfA8I0gTbLCZTVRK68tLunWQVKTq6MMhlYMpHgRLick6drFxbHNvXqUuOTuOygnxAODMzU2/1Nl3TfVMfdCKf4lUH6znvDd+Ktt0Rruv29inpLmsqDuXILtjuVebHynO+3G1tTU64dgVpJkU6efZBPFm6sfpgDxOvXV09VjUqOzsebOxZvmZ8ZphxTHzUWkvdNv2oOHXj3EdxHSWUTWyWaqcM8sMpljdWJK0/Uaddcowz3qcbw8x/nLuRalQqcqSD1HCX6a5cKMCs3xwf1E5cumv0+g4fm5MdcmPn+khFgBknA6nh9Zha+0lFKgUesv2mHEDy6iahc6hVqe3UZh0J4fLlLSTj08+6y5/ms8v2pqf2lGhWV1DIwYdQcifSRhQunQ5R2XyJEvDrtxy9M30z88St6e78Vvh85j2/rxu/6b7c3K013ncKPE8T4Ad80bXdYNw2FGEXkO8nqfGY+tXZzl2Zj1JJ/WfGa8fDMfN9vP635PPqJ24zU/6pERN3lEyuzVqa13bUh9u4pjrw3hn6TFTfexvTfTaitQj1aNNn/Mw3F/vE/CUzusbUx0NuDpErmJxbWaT2s6R+06fUYD1qBFceSAh/hulvlOcjOwK1IOrIwyGBBB5EEYInK21OjGyuq1swOEc7p48UPrIQTz9Uj5GdHBl7iLGHiInQqREQEREBERAREQEREBERArKRECsSkQErKRASspEBERArJ07D9J9Ha1LojjWfdH4KWRw/MX+XhIU06yavVSjTGXqOqKPFjj5Dn8J1bo2nLa0Kduns00VB47o4n4nJ+Mw5svGlpF7iJWJzLEirtr2b9LSW/prlqXq1MDiabH1W8d1j8mPSStPhdUFqKyOoZWUqwPIqRggycb23Y5BlJsW22zjabcvQOSh9amx+0hPDj7wxg+XjNdndjZZuKUiIkoIiICIiAiIgIiICIiAiIgIiICIiAiIgJWUmT0DSKl7Xp2tIes7YzjIVRxZm8AAT/wDYt1N1KRexPZvfqNqFQeqmadPI5uR67jyU4B+8ekm3EsNG0xLSjTt6QwiKFHU45sfEnJPnL+cOWXddrkREqKxEQNV292VXUrc0+Aqod6k57mxxU/dbkfge6c1Xds9J2p1FKsjFWU81YcxOvjI37Ttg/wBtU3dsoFwq+sowPTKByz74AwD3jh0xrxZ9t1UWICie6iFSVYEEEggjBBHAgjuOZ4nWoREQEREBERAREQEREBERAREQEREBERA9IpJwASTwAAySTyAE6F7L9jf5PoemrL/zFUAt1ReYQePeT14d01/sq2AKbuoXiYbg1Gkw9npUYHk3uju588Yl0Tl5eTfiLSPURExWIiICIiAlJWIEa9o3Z2t5m6tAFuAPWXktYeJ+y/Q9/I9ZBNzbvSZkqIyMpwyMCrKehB4idf4moba7DW+pLvEejrgYWsoBPDOA4+0v1E1w5bPF9K2OaYmc2l2XudPfcuaZCk4V14o/4W6+B4zCTqll9IUiIkoIiICIiAiIgIiICIiAiJktE0Sve1BStqbO3DOOCqD9pmPBR5xbJ5osEUk4AyScADiSTyAHeZMnZx2ammUvL9PWGGp0D9k8w9QH7XRe7mePAbDsN2dUNPxWrYrXHvEepTPSmD3/AHjx8pvuJy8nLvxFpACViJisREQEREBERAREQEREC1vrKnXRqdZFdGGCrAFT8DIn2p7H8k1NOcL3+hqHh5I+Mjyb5yYpSTjlcfQ5J1XSa9o+5c0Xpt0ZcA/hPJh5SxnXd7Y0q6mnWprUU81dQw+Rmga32RWdbJtme3Y5OAS6ZP3WOceAIm+PNPuK2ICiSJqnZFfUsmi1OuB7rbjn8rcPrNUvdlr2hwq2ddfH0bMvwZcgzWZ437RphonuohU4YEHoRg/IzzLikSsqq5OBxPcBxPygeYmVs9nbyscUrOu/lTfHxYjAm06X2T6jWwagp0FPvsC38KZ/WUueM9000KXFhY1K7inRpvUc8lRSx+nIeMmzRux22p4N1VeufdGaSfQlj8/lJB0zSaFqu5b0Upr0VQM+Z5n4zPLmn0mREOy/ZDUfFTUH9GvA+iQgueXB2xhfIZ+El3SNIo2lMUrektNB3KOZ6sebHxMyAiYZZXL2srERKhERAREQEREBERAREQEREBERApKRECiz1EQNL2w9g+cgbW/baInbh6Uvtb6Z7a+cnHYf2PlKxGfontIK8h5SpiJxLkrEQESsQEREBERAREQERED/2Q==;fontFamily=Architects Daughter;fontSource=https%3A%2F%2Ffonts.googleapis.com%2Fcss%3Ffamily%3DArchitects%2BDaughter;spacing=0;spacingLeft=11;labelPosition=right;align=left;fontSize=17;" parent="1" vertex="1">
          <mxGeometry x="20" y="780" width="50" height="50" as="geometry" />
        </mxCell>
        <mxCell id="1j7GA2dCwZSHKUOCSirF-32" value="devops" style="shape=image;verticalLabelPosition=bottom;labelBackgroundColor=none;verticalAlign=top;aspect=fixed;imageAspect=0;image=https://encrypted-tbn0.gstatic.com/images?q=tbn:ANd9GcR3Ct2YxyW6CoR-N3u5-GkKlHWXZlRuLTpI3A&amp;s;clipPath=inset(21.11% 22.44% 22.44% 21.11% round 49%);fontFamily=Architects Daughter;fontSource=https%3A%2F%2Ffonts.googleapis.com%2Fcss%3Ffamily%3DArchitects%2BDaughter;labelPosition=center;align=center;spacing=0;spacingLeft=0;fontSize=17;spacingBottom=0;spacingTop=-3;" parent="1" vertex="1">
          <mxGeometry x="470" y="1172" width="50" height="50" as="geometry" />
        </mxCell>
        <mxCell id="3mKlrd6wLIHu7DIJ2iSe-3" value="" style="edgeStyle=none;orthogonalLoop=1;jettySize=auto;html=1;rounded=0;fontFamily=Architects Daughter;fontSource=https%3A%2F%2Ffonts.googleapis.com%2Fcss%3Ffamily%3DArchitects%2BDaughter;fontSize=17;startSize=0;endArrow=none;endSize=0;sourcePerimeterSpacing=0;targetPerimeterSpacing=0;curved=1;strokeWidth=3;startArrow=none;startFill=0;" parent="1" edge="1">
          <mxGeometry width="140" relative="1" as="geometry">
            <mxPoint x="450" y="1150" as="sourcePoint" />
            <mxPoint x="830" y="1150" as="targetPoint" />
            <Array as="points" />
          </mxGeometry>
        </mxCell>
        <mxCell id="3mKlrd6wLIHu7DIJ2iSe-4" value="&lt;font&gt;Projects&lt;/font&gt;" style="edgeLabel;html=1;align=center;verticalAlign=middle;resizable=0;points=[];fontSize=23;fontFamily=Architects Daughter;fontSource=https%3A%2F%2Ffonts.googleapis.com%2Fcss%3Ffamily%3DArchitects%2BDaughter;labelBackgroundColor=default;" parent="3mKlrd6wLIHu7DIJ2iSe-3" vertex="1" connectable="0">
          <mxGeometry x="0.0071" y="1" relative="1" as="geometry">
            <mxPoint x="1" y="-3" as="offset" />
          </mxGeometry>
        </mxCell>
        <mxCell id="3mKlrd6wLIHu7DIJ2iSe-5" value="" style="edgeStyle=none;orthogonalLoop=1;jettySize=auto;html=1;rounded=0;fontFamily=Architects Daughter;fontSource=https%3A%2F%2Ffonts.googleapis.com%2Fcss%3Ffamily%3DArchitects%2BDaughter;fontSize=16;startSize=0;endArrow=none;endSize=0;sourcePerimeterSpacing=0;targetPerimeterSpacing=0;curved=1;strokeWidth=3;startArrow=none;startFill=0;" parent="1" edge="1">
          <mxGeometry width="140" relative="1" as="geometry">
            <mxPoint x="20" y="1150" as="sourcePoint" />
            <mxPoint x="400" y="1150" as="targetPoint" />
            <Array as="points" />
          </mxGeometry>
        </mxCell>
        <mxCell id="3mKlrd6wLIHu7DIJ2iSe-6" value="&lt;font&gt;Recycle&lt;/font&gt;" style="edgeLabel;html=1;align=center;verticalAlign=middle;resizable=0;points=[];fontSize=23;fontFamily=Architects Daughter;fontSource=https%3A%2F%2Ffonts.googleapis.com%2Fcss%3Ffamily%3DArchitects%2BDaughter;" parent="3mKlrd6wLIHu7DIJ2iSe-5" vertex="1" connectable="0">
          <mxGeometry x="0.0071" y="1" relative="1" as="geometry">
            <mxPoint x="1" y="-3" as="offset" />
          </mxGeometry>
        </mxCell>
        <mxCell id="3mKlrd6wLIHu7DIJ2iSe-10" value="Set up Cursor for projects." style="shape=image;verticalLabelPosition=middle;labelBackgroundColor=none;verticalAlign=middle;aspect=fixed;imageAspect=0;image=https://ai-cursor.com/wp-content/uploads/2024/09/logo-cursor-ai-png.webp;clipPath=inset(15% 15% 15.67% 15.67%);labelPosition=right;align=left;spacing=0;spacingLeft=11;fontSize=17;fontFamily=Architects Daughter;fontSource=https%3A%2F%2Ffonts.googleapis.com%2Fcss%3Ffamily%3DArchitects%2BDaughter;" parent="1" vertex="1">
          <mxGeometry x="20" y="60" width="50" height="50" as="geometry" />
        </mxCell>
        <mxCell id="3mKlrd6wLIHu7DIJ2iSe-14" value="" style="edgeStyle=none;orthogonalLoop=1;jettySize=auto;html=1;rounded=0;fontFamily=Architects Daughter;fontSource=https%3A%2F%2Ffonts.googleapis.com%2Fcss%3Ffamily%3DArchitects%2BDaughter;fontSize=16;startSize=0;endArrow=none;endSize=0;sourcePerimeterSpacing=0;targetPerimeterSpacing=0;curved=1;strokeWidth=3;startArrow=none;startFill=0;labelBackgroundColor=none;entryX=1;entryY=1;entryDx=0;entryDy=0;" parent="1" edge="1">
          <mxGeometry width="140" relative="1" as="geometry">
            <mxPoint x="399.99" y="621.1700000000001" as="sourcePoint" />
            <mxPoint x="20" y="620" as="targetPoint" />
            <Array as="points" />
          </mxGeometry>
        </mxCell>
        <mxCell id="3mKlrd6wLIHu7DIJ2iSe-15" value="WIP" style="edgeLabel;html=1;align=center;verticalAlign=middle;resizable=0;points=[];fontSize=23;fontFamily=Architects Daughter;fontSource=https%3A%2F%2Ffonts.googleapis.com%2Fcss%3Ffamily%3DArchitects%2BDaughter;" parent="3mKlrd6wLIHu7DIJ2iSe-14" vertex="1" connectable="0">
          <mxGeometry x="-0.06" relative="1" as="geometry">
            <mxPoint as="offset" />
          </mxGeometry>
        </mxCell>
        <mxCell id="3mKlrd6wLIHu7DIJ2iSe-13" value="Send three Upwork proposals." style="shape=image;verticalLabelPosition=middle;labelBackgroundColor=none;verticalAlign=middle;imageAspect=0;image=https://creazilla-store.fra1.digitaloceanspaces.com/icons/7913459/upwork-icon-md.png;clipPath=inset(5.67% 5% 5.67% 6.67% round 49%);aspect=fixed;fontFamily=Architects Daughter;fontSource=https%3A%2F%2Ffonts.googleapis.com%2Fcss%3Ffamily%3DArchitects%2BDaughter;fontSize=17;labelPosition=right;align=left;spacingLeft=11;spacing=0;" parent="1" vertex="1">
          <mxGeometry x="20" y="480" width="50" height="50" as="geometry" />
        </mxCell>
        <mxCell id="3mKlrd6wLIHu7DIJ2iSe-17" value="Upwork" style="shape=image;verticalLabelPosition=bottom;labelBackgroundColor=none;verticalAlign=top;imageAspect=0;image=https://creazilla-store.fra1.digitaloceanspaces.com/icons/7913459/upwork-icon-md.png;clipPath=inset(5.67% 5% 5.67% 6.67% round 49%);aspect=fixed;fontFamily=Architects Daughter;fontSource=https%3A%2F%2Ffonts.googleapis.com%2Fcss%3Ffamily%3DArchitects%2BDaughter;fontSize=17;labelPosition=center;align=center;spacingLeft=0;spacing=0;spacingTop=-3;" parent="1" vertex="1">
          <mxGeometry x="650" y="1170" width="50" height="50" as="geometry" />
        </mxCell>
        <mxCell id="8W5laIdohghY-NCQJXUD-5" value="Create &quot;BBQ near me&quot; directory site." style="shape=image;verticalLabelPosition=middle;labelBackgroundColor=none;verticalAlign=middle;aspect=fixed;imageAspect=0;image=https://static.vecteezy.com/system/resources/previews/025/464/199/non_2x/funny-gift-vintage-retro-texas-bbq-t-shirt-design-vector.jpg;labelPosition=right;align=left;spacing=0;spacingLeft=11;fontFamily=Architects Daughter;fontSource=https%3A%2F%2Ffonts.googleapis.com%2Fcss%3Ffamily%3DArchitects%2BDaughter;fontSize=17;fontColor=default;labelBorderColor=none;" vertex="1" parent="1">
          <mxGeometry x="20" y="550" width="50" height="50" as="geometry" />
        </mxCell>
      </root>
    </mxGraphModel>
  </diagram>
</mxfile>
